<svg width="132" height="114" viewBox="0 0 132 114" fill="none" xmlns="http://www.w3.org/2000/svg">
<g clip-path="url(#clip0_304_116)">
<path d="M0 112.845C0 113.012 0.133349 113.145 0.299403 113.145H131.701C131.867 113.145 132 113.012 132 112.845C132 112.679 131.867 112.545 131.701 112.545H0.299403C0.133347 112.545 0 112.679 0 112.845Z" fill="#3F3C57"/>
<path d="M42.8725 12.1152L44.3015 18.6497L41.2621 27.7451L36.3652 17.9728L37.0447 12.3036L42.8725 12.1152Z" fill="#FDB4B4"/>
<path d="M44.5673 18.3113H36.1123V28.5488H44.5673V18.3113Z" fill="#F18B90"/>
<path d="M41.0906 15.4069C44.2795 15.4069 46.8647 12.8162 46.8647 9.62045C46.8647 6.42467 44.2795 3.83398 41.0906 3.83398C37.9016 3.83398 35.3164 6.42467 35.3164 9.62045C35.3164 12.8162 37.9016 15.4069 41.0906 15.4069Z" fill="#FDB4B4"/>
<path d="M36.0644 13.9232C36.0644 13.9232 31.7603 5.95736 35.6409 2.12399C39.5215 -1.70938 42.6367 0.81657 42.6367 0.81657L44.4156 0.744525C44.4156 0.744525 44.7866 2.14746 45.3849 1.38799C45.9831 0.628523 47.0641 3.39441 47.0641 3.39441C49.0706 7.01561 42.115 7.82683 42.115 7.82683C42.115 7.82683 42.6173 9.43018 42.1067 9.76596C41.5962 10.1017 40.2322 11.3649 40.2322 11.3649L39.0113 12.2889L38.2858 11.1811C38.2858 11.1811 37.528 10.5816 37.1451 10.8334C36.7622 11.0853 37.2889 14.3988 37.2889 14.3988L36.0644 13.9232Z" fill="#2E2E41"/>
<path d="M29.1373 72.5266L26.9297 105.527L32.3567 105.711L39.5315 72.8032L29.1373 72.5266Z" fill="#2E2E41"/>
<path d="M42.2906 72.3423L40.083 105.343L45.51 105.527L52.6848 72.6188L42.2906 72.3423Z" fill="#2E2E41"/>
<path d="M27.8085 80.0662L30.6976 44.1241L26.2671 25.4083C25.8851 22.6261 27.6343 19.9937 30.3341 19.2759L34.6694 18.1232L36.5882 16.2002L40.9528 25.8591L43.6787 16.2076L45.8045 17.757L52.1096 20.5446L52.1067 20.6099L51.0954 43.2185L53.3529 79.7462L53.2528 79.7475L27.8085 80.0662Z" fill="#E8E9EA"/>
<path d="M45.162 105.152L46.7334 109.853C46.7334 109.853 52.8812 110.691 52.9768 112.598C53.0725 114.505 44.6217 113.401 39.6733 113.651C34.7249 113.9 38.8441 108.53 38.8441 108.53L39.3714 105.444L45.162 105.152Z" fill="#2E2E41"/>
<path d="M32.329 104.814L33.9004 109.515C33.9004 109.515 40.0482 110.352 40.1438 112.26C40.2395 114.167 31.7887 113.063 26.8403 113.312C21.8919 113.562 26.0111 108.191 26.0111 108.191L26.5384 105.105L32.329 104.814Z" fill="#2E2E41"/>
<path d="M24.6625 60.9778C24.5959 60.0509 24.7518 59.1215 25.1171 58.2673L23.9443 48.626L28.5385 48.2009L29.2334 58.0267C29.6951 58.8323 29.9576 59.737 29.9988 60.6651C30.134 62.9866 29.0489 64.9376 27.5751 65.0238C26.1014 65.11 24.7973 63.2985 24.6625 60.9778Z" fill="#FDB4B4"/>
<path d="M53.7605 62.393C53.704 61.4654 53.87 60.5377 54.2446 59.6876L53.1768 50.034L57.7753 49.6592L58.3632 59.492C58.8161 60.3026 59.0688 61.2101 59.0999 62.1386C59.2098 64.4614 58.1036 66.4004 56.6289 66.4705C55.1543 66.5406 53.87 64.715 53.7605 62.393Z" fill="#FDB4B4"/>
<path d="M23.9255 57.1112L23.91 57.028L21.5156 44.1539L24.3448 23.1896C24.5972 21.318 26.2649 19.9697 28.1455 20.1204C29.1277 20.1992 30.0088 20.666 30.627 21.435C31.245 22.204 31.5124 23.1663 31.3799 24.1447L29.2506 39.8676L30.5912 56.6848L23.9255 57.1112Z" fill="#E8E9EA"/>
<path d="M52.3412 56.8092L47.5274 24.6075C47.2772 23.6633 47.4236 22.6751 47.9419 21.8355C48.4602 20.9958 49.277 20.4232 50.2419 20.2232C52.0879 19.8406 53.9107 20.9714 54.3925 22.7972L59.0171 56.4048L52.3412 56.8092Z" fill="#E8E9EA"/>
<path d="M41.0939 28.8027C41.4203 28.8027 41.6849 28.5375 41.6849 28.2104C41.6849 27.8833 41.4203 27.6182 41.0939 27.6182C40.7675 27.6182 40.5029 27.8833 40.5029 28.2104C40.5029 28.5375 40.7675 28.8027 41.0939 28.8027Z" fill="#D6D7D8"/>
<path d="M41.0939 33.2871C41.4203 33.2871 41.6849 33.0219 41.6849 32.6948C41.6849 32.3677 41.4203 32.1025 41.0939 32.1025C40.7675 32.1025 40.5029 32.3677 40.5029 32.6948C40.5029 33.0219 40.7675 33.2871 41.0939 33.2871Z" fill="#D6D7D8"/>
<path d="M41.0939 37.7712C41.4203 37.7712 41.6849 37.506 41.6849 37.1789C41.6849 36.8518 41.4203 36.5867 41.0939 36.5867C40.7675 36.5867 40.5029 36.8518 40.5029 37.1789C40.5029 37.506 40.7675 37.7712 41.0939 37.7712Z" fill="#D6D7D8"/>
<path d="M41.0939 42.2553C41.4203 42.2553 41.6849 41.9901 41.6849 41.6631C41.6849 41.336 41.4203 41.0708 41.0939 41.0708C40.7675 41.0708 40.5029 41.336 40.5029 41.6631C40.5029 41.9901 40.7675 42.2553 41.0939 42.2553Z" fill="#D6D7D8"/>
<path d="M41.0939 46.7397C41.4203 46.7397 41.6849 46.4745 41.6849 46.1474C41.6849 45.8203 41.4203 45.5552 41.0939 45.5552C40.7675 45.5552 40.5029 45.8203 40.5029 46.1474C40.5029 46.4745 40.7675 46.7397 41.0939 46.7397Z" fill="#D6D7D8"/>
<path d="M41.0939 51.2238C41.4203 51.2238 41.6849 50.9587 41.6849 50.6316C41.6849 50.3045 41.4203 50.0393 41.0939 50.0393C40.7675 50.0393 40.5029 50.3045 40.5029 50.6316C40.5029 50.9587 40.7675 51.2238 41.0939 51.2238Z" fill="#D6D7D8"/>
<path d="M41.0939 55.7082C41.4203 55.7082 41.6849 55.443 41.6849 55.1159C41.6849 54.7888 41.4203 54.5237 41.0939 54.5237C40.7675 54.5237 40.5029 54.7888 40.5029 55.1159C40.5029 55.443 40.7675 55.7082 41.0939 55.7082Z" fill="#D6D7D8"/>
<path d="M41.0939 60.1923C41.4203 60.1923 41.6849 59.9272 41.6849 59.6001C41.6849 59.273 41.4203 59.0078 41.0939 59.0078C40.7675 59.0078 40.5029 59.273 40.5029 59.6001C40.5029 59.9272 40.7675 60.1923 41.0939 60.1923Z" fill="#D6D7D8"/>
<path d="M41.0943 63.6612L29.912 62.1678L29.6966 62.1392L23.9816 48.9335L20.5781 41.0713H29.4432L41.0943 63.6612Z" fill="#F18B90"/>
<path d="M85.9292 13.552L93.0386 9.64893V20.8005H84.8164L85.9292 13.552Z" fill="#2E2E41"/>
<path d="M94.5625 16.0383L95.2186 21.5131L90.4898 30.95L87.5547 22.1667L88.9346 15.8564L94.5625 16.0383Z" fill="#FDB4B4"/>
<path d="M95.4637 21.8398H87.2988V31.7261H95.4637V21.8398Z" fill="#F18B90"/>
<path d="M102.199 74.1948L104.33 106.063L99.0897 106.241L92.1611 74.4619L102.199 74.1948Z" fill="#2E2E41"/>
<path d="M89.4965 74.0166L91.6283 105.885L86.3875 106.063L79.459 74.2837L89.4965 74.0166Z" fill="#2E2E41"/>
<path d="M107.736 80.9539L107.611 80.9535L74.2246 80.8442L74.2546 80.7258L82.8381 46.6449L80.688 29.4455C80.2806 26.1865 82.0215 23.1059 85.0201 21.7802L86.1027 21.3017L88.1592 19.8029L90.7901 29.1192L95.0032 19.7957L96.8591 21.6553L101.045 22.7682C103.654 23.4618 105.344 26.0055 104.976 28.685L104.972 28.7037L98.5798 46.9814L107.736 80.9539Z" fill="#E8E9EA"/>
<path d="M86.7242 105.701L92.3161 105.982L92.8254 108.962C92.8254 108.962 96.8032 114.148 92.0246 113.908C87.246 113.667 79.0852 114.733 79.1775 112.891C79.2699 111.049 85.2067 110.241 85.2067 110.241L86.7242 105.701Z" fill="#2E2E41"/>
<path d="M99.1168 105.374L104.709 105.655L105.218 108.635C105.218 108.635 109.196 113.821 104.417 113.581C99.6385 113.34 91.4777 114.406 91.5701 112.564C91.6625 110.722 97.5993 109.914 97.5993 109.914L99.1168 105.374Z" fill="#2E2E41"/>
<path d="M104.237 62.7154C104.107 64.9565 102.848 66.7058 101.425 66.6226C100.002 66.5393 98.9537 64.6553 99.0842 62.4134C99.1241 61.5172 99.3775 60.6435 99.8234 59.8656L100.494 50.377L104.931 50.7874L103.798 60.0979C104.151 60.9228 104.302 61.8203 104.237 62.7154Z" fill="#FDB4B4"/>
<path d="M81.4385 61.8633C81.2608 64.1011 79.9646 65.8231 78.5435 65.7095C77.1224 65.596 76.1148 63.69 76.2929 61.4514C76.3518 60.5562 76.6237 59.6882 77.086 58.9199L77.9584 49.4478L82.3852 49.9528L81.0552 59.237C81.3904 60.0692 81.5219 60.9697 81.4385 61.8633Z" fill="#FDB4B4"/>
<path d="M104.952 58.985L98.5091 58.5728L98.5169 58.476L99.8039 42.3297L97.7479 27.1467C97.6197 26.201 97.8782 25.2707 98.4756 24.5274C99.0729 23.7841 99.9247 23.3329 100.874 23.2567C102.692 23.1131 104.304 24.4143 104.548 26.2234L107.28 46.4688L107.277 46.4839L104.952 58.985Z" fill="#E8E9EA"/>
<path d="M82.5111 58.3666L76.0576 57.9756L76.0718 57.8735L80.5219 25.5287C80.99 23.7523 82.7527 22.6596 84.5362 23.0293C85.469 23.2226 86.2584 23.776 86.7594 24.5877C87.2603 25.3994 87.4019 26.3545 87.158 27.277L82.5111 58.3666Z" fill="#E8E9EA"/>
<path d="M90.6527 31.9713C90.9679 31.9713 91.2235 31.7152 91.2235 31.3993C91.2235 31.0835 90.9679 30.8274 90.6527 30.8274C90.3375 30.8274 90.082 31.0835 90.082 31.3993C90.082 31.7152 90.3375 31.9713 90.6527 31.9713Z" fill="#D6D7D8"/>
<path d="M90.6527 36.3016C90.9679 36.3016 91.2235 36.0455 91.2235 35.7296C91.2235 35.4138 90.9679 35.1577 90.6527 35.1577C90.3375 35.1577 90.082 35.4138 90.082 35.7296C90.082 36.0455 90.3375 36.3016 90.6527 36.3016Z" fill="#D6D7D8"/>
<path d="M90.6527 40.6319C90.9679 40.6319 91.2235 40.3758 91.2235 40.06C91.2235 39.7441 90.9679 39.488 90.6527 39.488C90.3375 39.488 90.082 39.7441 90.082 40.06C90.082 40.3758 90.3375 40.6319 90.6527 40.6319Z" fill="#D6D7D8"/>
<path d="M90.6527 44.9622C90.9679 44.9622 91.2235 44.7062 91.2235 44.3903C91.2235 44.0744 90.9679 43.8184 90.6527 43.8184C90.3375 43.8184 90.082 44.0744 90.082 44.3903C90.082 44.7062 90.3375 44.9622 90.6527 44.9622Z" fill="#D6D7D8"/>
<path d="M90.6527 49.2926C90.9679 49.2926 91.2235 49.0365 91.2235 48.7206C91.2235 48.4047 90.9679 48.1487 90.6527 48.1487C90.3375 48.1487 90.082 48.4047 90.082 48.7206C90.082 49.0365 90.3375 49.2926 90.6527 49.2926Z" fill="#D6D7D8"/>
<path d="M90.6527 53.6229C90.9679 53.6229 91.2235 53.3668 91.2235 53.0509C91.2235 52.7351 90.9679 52.479 90.6527 52.479C90.3375 52.479 90.082 52.7351 90.082 53.0509C90.082 53.3668 90.3375 53.6229 90.6527 53.6229Z" fill="#D6D7D8"/>
<path d="M90.6527 57.9532C90.9679 57.9532 91.2235 57.6971 91.2235 57.3813C91.2235 57.0654 90.9679 56.8093 90.6527 56.8093C90.3375 56.8093 90.082 57.0654 90.082 57.3813C90.082 57.6971 90.3375 57.9532 90.6527 57.9532Z" fill="#D6D7D8"/>
<path d="M90.6527 62.2838C90.9679 62.2838 91.2235 62.0277 91.2235 61.7118C91.2235 61.396 90.9679 61.1399 90.6527 61.1399C90.3375 61.1399 90.082 61.396 90.082 61.7118C90.082 62.0277 90.3375 62.2838 90.6527 62.2838Z" fill="#D6D7D8"/>
<path d="M91.5198 18.8322C94.468 18.8322 96.858 16.4371 96.858 13.4826C96.858 10.5281 94.468 8.13306 91.5198 8.13306C88.5716 8.13306 86.1816 10.5281 86.1816 13.4826C86.1816 16.4371 88.5716 18.8322 91.5198 18.8322Z" fill="#FDB4B4"/>
<path d="M94.3173 7.23776C94.5731 7.75912 94.1674 8.41035 93.6305 8.62954C93.0936 8.84874 92.4871 8.75993 91.9146 8.66869C91.342 8.57745 90.7347 8.49093 90.1994 8.714C89.5068 9.00263 89.1163 9.72666 88.7799 10.3985C88.1519 11.6528 87.5238 12.9071 86.8957 14.1614C86.5889 14.7742 86.2751 15.4146 86.2692 16.1002C86.2583 17.3587 87.2545 18.3645 87.7906 19.5026C88.4432 20.8884 88.3894 22.5867 87.6503 23.9282C86.9113 25.2697 85.5059 26.2202 83.9879 26.4051C83.5886 26.4537 83.1659 26.4484 82.8068 26.2666C82.4477 26.0848 82.1736 25.6877 82.2402 25.2901C82.3702 24.5123 83.5561 24.3306 83.7738 23.5728C83.8875 23.1773 83.6862 22.7549 83.4147 22.4459C83.1433 22.1369 82.8 21.8959 82.5411 21.5763C81.9441 20.8394 81.9043 19.7018 82.4484 18.9248C82.7682 18.4682 83.2627 18.1289 83.4694 17.611C83.6455 17.1695 83.5816 16.6732 83.5148 16.2024C83.4291 15.5975 83.3434 14.9926 83.2577 14.3877C83.1577 13.6819 83.0592 12.9509 83.2568 12.2661C83.7098 10.6969 85.4779 9.95988 86.5148 8.69941C86.9966 8.11368 87.3207 7.40926 87.815 6.83407C88.6445 5.86883 89.9505 5.33635 91.2168 5.44704C92.4832 5.55773 93.6774 6.30875 94.3277 7.40333" fill="#2E2E41"/>
<path d="M93.4739 7.33667C93.2131 7.43014 93.1163 7.77055 93.1914 8.03773C93.2665 8.3049 93.463 8.51719 93.643 8.72821C95.678 11.1149 96.151 14.725 94.7998 17.5572C94.4404 18.3106 93.9616 19.0196 93.7677 19.8317C93.6267 20.4226 93.6343 21.0707 93.3071 21.5823C92.9741 22.1031 92.3142 22.4521 92.2489 23.0672C92.207 23.4619 92.4471 23.8454 92.7689 24.0768C93.0908 24.3082 93.4839 24.4141 93.8706 24.5004C94.8755 24.7248 95.903 24.8474 96.9324 24.8655C97.268 24.8714 97.6143 24.8641 97.9222 24.7301C98.2301 24.5961 98.4928 24.3055 98.4964 23.9691C98.4991 23.7048 98.347 23.4609 98.3276 23.1973C98.2694 22.4072 99.3302 21.987 99.5369 21.2224C99.6727 20.7197 99.405 20.2024 99.1199 19.767C98.8347 19.3316 98.5092 18.8745 98.5163 18.3537C98.523 17.8552 98.8352 17.4161 98.9565 16.9326C99.1243 16.2638 98.9182 15.5642 98.7137 14.9058C98.5398 14.3459 98.366 13.7861 98.1921 13.2263C98.0073 12.6312 97.8225 12.0361 97.6377 11.441C97.315 10.402 96.9763 9.33297 96.2781 8.49969C95.5799 7.6664 94.4229 7.12025 93.3916 7.46046" fill="#2E2E41"/>
<path d="M97.1124 28.0665L96.7466 27.9597C97.5088 25.3404 95.8652 20.4526 95.8486 20.4035L96.2093 20.2803C96.2791 20.4853 97.9082 25.3326 97.1124 28.0665Z" fill="#3F3C57"/>
<path d="M96.9289 31.075C97.8081 31.075 98.5209 30.3608 98.5209 29.4797C98.5209 28.5986 97.8081 27.8843 96.9289 27.8843C96.0497 27.8843 95.3369 28.5986 95.3369 29.4797C95.3369 30.3608 96.0497 31.075 96.9289 31.075Z" fill="#3F3C57"/>
<path d="M86.4687 35.1279H85.5033C85.3979 35.1279 85.3127 35.0423 85.3127 34.9369C85.3127 34.8314 85.3979 34.7459 85.5033 34.7459H86.4687C86.7348 34.7459 86.9848 34.642 87.1727 34.4533C87.3605 34.2647 87.4638 34.0139 87.4632 33.7474L87.4515 27.7879C87.4515 26.4932 86.4008 25.4403 85.1093 25.4403C83.8178 25.4403 82.7669 26.4932 82.7669 27.7875L82.7786 33.3657C82.7797 33.9099 83.2224 34.3559 83.7655 34.3601L84.4282 34.3652C84.5333 34.366 84.618 34.4521 84.6172 34.5576C84.6165 34.6625 84.5313 34.7471 84.4267 34.7471H84.4252L83.7625 34.7421C83.0114 34.7363 82.399 34.1191 82.3975 33.3664L82.3857 27.7879C82.3857 26.2827 83.6075 25.0583 85.1093 25.0583C86.6109 25.0583 87.8326 26.2827 87.8326 27.7875L87.8444 33.7467C87.8451 34.1154 87.7024 34.4622 87.4424 34.7231C87.1826 34.9841 86.8366 35.1279 86.4687 35.1279Z" fill="#3F3C57"/>
<path d="M84.4264 35.2329C84.7994 35.2329 85.1018 34.9298 85.1018 34.556C85.1018 34.1822 84.7994 33.8792 84.4264 33.8792C84.0534 33.8792 83.751 34.1822 83.751 34.556C83.751 34.9298 84.0534 35.2329 84.4264 35.2329Z" fill="#3F3C57"/>
<path d="M85.5035 35.6137C85.8766 35.6137 86.179 35.3107 86.179 34.9369C86.179 34.5631 85.8766 34.26 85.5035 34.26C85.1305 34.26 84.8281 34.5631 84.8281 34.9369C84.8281 35.3107 85.1305 35.6137 85.5035 35.6137Z" fill="#3F3C57"/>
<path d="M46.5109 25.2038L46.1451 25.0969C46.9073 22.4777 45.2822 17.5141 45.2656 17.4651L45.7229 17.8106C45.7927 18.0156 47.3067 22.4699 46.5109 25.2038Z" fill="#3F3C57"/>
<path d="M33.6503 25.6693L34.0161 25.5625C33.2539 22.9432 34.8975 18.0554 34.914 18.0063L34.5227 18.2691C34.4529 18.4741 32.8545 22.9354 33.6503 25.6693Z" fill="#3F3C57"/>
<path d="M46.3283 28.2123C47.2075 28.2123 47.9203 27.498 47.9203 26.6169C47.9203 25.7358 47.2075 25.0215 46.3283 25.0215C45.4491 25.0215 44.7363 25.7358 44.7363 26.6169C44.7363 27.498 45.4491 28.2123 46.3283 28.2123Z" fill="#3F3C57"/>
<path d="M35.3476 35.4801H34.3822C34.2768 35.4801 34.1916 35.3946 34.1916 35.2892C34.1916 35.1837 34.2768 35.0982 34.3822 35.0982H35.3476C35.6138 35.0982 35.8637 34.9943 36.0516 34.8056C36.2394 34.617 36.3427 34.3662 36.3421 34.0997L36.3304 28.1402C36.3304 26.8455 35.2797 25.7926 33.9882 25.7926C32.6967 25.7926 31.6458 26.8455 31.6458 28.1398L31.6575 33.718C31.6586 34.2621 32.1013 34.7082 32.6444 34.7124L33.3071 34.7175C33.4122 34.7183 33.4969 34.8044 33.4961 34.9099C33.4954 35.0148 33.4102 35.0994 33.3056 35.0994H33.3041L32.6414 35.0944C31.8903 35.0886 31.2779 34.4714 31.2764 33.7187L31.2646 28.1402C31.2646 26.635 32.4864 25.4106 33.9882 25.4106C35.4898 25.4106 36.7115 26.635 36.7115 28.1398L36.7233 34.099C36.724 34.4677 36.5813 34.8145 36.3213 35.0754C36.0615 35.3364 35.7155 35.4801 35.3476 35.4801Z" fill="#3F3C57"/>
<path d="M33.3053 35.5854C33.6783 35.5854 33.9807 35.2824 33.9807 34.9086C33.9807 34.5347 33.6783 34.2317 33.3053 34.2317C32.9323 34.2317 32.6299 34.5347 32.6299 34.9086C32.6299 35.2824 32.9323 35.5854 33.3053 35.5854Z" fill="#3F3C57"/>
<path d="M34.3815 35.966C34.7545 35.966 35.0569 35.663 35.0569 35.2892C35.0569 34.9153 34.7545 34.6123 34.3815 34.6123C34.0085 34.6123 33.7061 34.9153 33.7061 35.2892C33.7061 35.663 34.0085 35.966 34.3815 35.966Z" fill="#3F3C57"/>
</g>
<defs>
<clipPath id="clip0_304_116">
<rect width="132" height="114" fill="white"/>
</clipPath>
</defs>
</svg>
