<svg width="182" height="92" viewBox="0 0 182 92" fill="none" xmlns="http://www.w3.org/2000/svg">
<g clip-path="url(#clip0_304_117)">
<path d="M124.463 45.0919C125.439 44.9515 129.021 48.3116 125.226 53.0441C121.999 50.9376 123.073 45.2919 124.463 45.0919Z" fill="#DC696F"/>
<path d="M124.082 59.6199C124.11 59.5797 123.908 59.4713 124.693 58.8553C126.031 57.8051 129.181 56.9428 130.95 56.9437C128.678 56.5136 126.63 57.5507 124.693 58.5494C125.421 53.4263 132.444 55.3906 131.865 57.2495C131.798 57.4667 128.118 59.2456 127.821 59.3141C125.615 59.8226 125.144 58.7937 124.082 59.6199Z" fill="#DC696F"/>
<path d="M127.592 69.5602C127.631 69.5138 127.662 69.3028 128.355 68.6427C129.864 67.2045 132.727 66.0791 134.688 67.2663C136.194 68.1776 132.71 70.2048 132.094 70.3249C130.874 70.5625 128.723 70.175 127.592 69.5602Z" fill="#DC696F"/>
<path d="M132.17 63.7491C132.11 63.8078 131.912 63.5489 131.865 64.055C130.389 65.2857 129.572 62.053 130.339 59.8495C131.778 55.7149 134.659 61.0416 132.17 63.7491Z" fill="#DC696F"/>
<path d="M135.681 61.3021L141.938 60.614C138.639 60.4671 134.804 61.4178 136.596 60.0787C138.486 58.6672 144.814 59.3263 140.946 61.9138C138.978 63.2298 137.432 62.5154 135.681 61.3021Z" fill="#DC696F"/>
<path d="M125.913 53.9617C124.97 55.4407 124.463 57.9026 123.776 59.5435L124.082 59.62C123.147 60.9669 122.501 63.5477 122.25 65.2018L125.226 72.313C127.115 69.9287 129.316 66.3334 131.712 64.5137C131.74 64.6751 131.654 64.8591 131.56 64.9724C130.527 66.2165 129.155 67.1974 128.355 68.6427C127.662 69.3029 127.631 69.5139 127.592 69.5603C127.318 69.8829 125.488 72.3617 125.455 72.5424C125.404 72.8281 126.436 76.0084 126.829 76.1361C126.615 76.333 126.464 76.3138 126.523 76.5949C125.333 72.8381 121.536 63.6224 119.809 59.62C119.907 59.6311 120.035 59.5978 120.114 59.62L122.021 64.3607C122.495 62.702 123.032 62.2573 122.25 61.3022H122.403C123.183 62.2914 123.712 58.0053 125.76 53.9617L125.913 53.9617Z" fill="#DC696F"/>
<path d="M136.596 60.0788C134.803 61.4178 138.638 60.4672 141.937 60.614L135.68 61.3022C135.601 61.2474 135.474 61.1739 135.375 61.1493C135.745 60.7768 136.102 60.3281 136.443 59.9258C136.485 59.9058 136.557 59.9469 136.596 59.9258V60.0788Z" fill="#EEE0C0"/>
<path d="M136.443 59.9259C136.101 60.3281 135.744 60.7769 135.375 61.1494C134.37 62.1614 133.183 63.0575 132.322 64.2079C132.302 64.2209 132.083 64.2047 131.865 64.3608C131.869 64.2601 131.855 64.1548 131.865 64.055C132.005 63.9382 132.053 63.8765 132.17 63.7491C133.488 62.4747 134.942 61.3263 136.138 59.9259C136.218 59.899 136.385 59.9535 136.443 59.9259Z" fill="#DC696F"/>
<path d="M124.692 58.8553V58.5494C126.63 57.5507 128.678 56.5136 130.949 56.9437C129.18 56.9428 126.03 57.8051 124.692 58.8553Z" fill="#EEE0C0"/>
<path d="M122.251 61.3023C123.032 62.2574 122.495 62.7021 122.022 64.3609L120.114 59.6201C120.245 59.657 122.165 61.197 122.251 61.3023Z" fill="#EEE0C0"/>
<path d="M125.913 53.9618H125.761C127.26 51.0021 129.344 48.3765 130.95 45.4743C132.807 43.351 136.792 40.3027 139.725 41.2688C141.683 41.9141 140.238 43.7472 139.267 44.6332C135.79 47.8042 129.091 46.9299 127.516 51.6679C130.19 48.4925 134.054 50.7673 134.154 51.7444C134.318 53.3407 129.2 55.6774 126.753 52.8913C126.4 53.1882 126.156 53.5811 125.913 53.9618Z" fill="#DC696F"/>
<path d="M130.11 51.209C133.258 50.8043 135.488 51.593 129.804 51.5148L127.363 52.5853L127.21 52.2795C128.127 51.9074 129.114 51.3369 130.11 51.209Z" fill="#EEE0C0"/>
<path d="M138.122 58.2437C138.393 57.81 139.414 54.1555 142.777 53.8088C148.281 53.2415 143.559 58.1142 141.708 58.3967C140.368 58.6013 139.096 57.848 138.122 58.2437Z" fill="#DC696F"/>
<path d="M144.456 54.5735L144.837 54.6499C137.346 58.5327 135.989 58.7266 144.456 54.5735Z" fill="#EEE0C0"/>
<path d="M127.058 62.2199C128.268 61.948 130.356 66.0522 127.058 69.5604C124.041 66.9565 126.015 62.4541 127.058 62.2199Z" fill="#DC696F"/>
<path d="M127.21 62.6785C127.691 64.5524 127.341 67.0412 127.058 68.9485L127.21 62.6785Z" fill="#EEE0C0"/>
<path d="M138.122 58.2437C137.759 58.8253 137.198 59.5971 136.596 59.9259C136.558 59.9469 136.486 59.9058 136.444 59.9259C136.386 59.9534 136.218 59.8989 136.138 59.9259C135.59 60.1109 135.477 60.4499 135.299 60.3846C132.574 56.7133 136.593 51.3229 137.664 55.7204C138.227 58.0287 136.594 59.6104 138.122 58.2437Z" fill="#DC696F"/>
<path d="M136.215 54.7263L136.291 56.9438C135.437 62.8879 135.774 57.4048 136.215 54.7263Z" fill="#EEE0C0"/>
<path d="M132.17 63.749C132.053 63.8764 132.005 63.9381 131.865 64.0549C131.912 63.5487 132.11 63.8077 132.17 63.749Z" fill="#EEE0C0"/>
<path d="M131.56 64.9724C131.654 64.859 131.74 64.675 131.712 64.5136C131.721 64.5071 131.704 64.4758 131.865 64.3607C132.084 64.2045 132.302 64.2207 132.323 64.2077C136.821 61.3427 139.459 63.1309 137.282 64.8195C135.658 66.0797 133.267 66.0473 131.56 64.9724Z" fill="#DC696F"/>
<path d="M137.893 63.5962C138.015 63.6474 138.016 63.8496 137.893 63.9021C136.546 64.4755 126.476 65.0734 137.893 63.5962Z" fill="#EEE0C0"/>
<path d="M131.56 88.0644L131.255 87.9879C131.417 87.7665 131.547 87.7727 131.56 87.7585C131.54 87.7975 131.572 87.947 131.56 88.0644Z" fill="#EEE0C0"/>
<path d="M130.797 88.2938C130.766 88.4163 130.764 88.7565 130.873 88.8291C130.969 88.6997 131.514 88.0863 131.56 88.0644C132.228 87.75 134.329 87.4465 135.146 87.4527C135.606 87.4563 140.274 88.2079 140.259 88.5997C138.519 90.4351 132.672 90.9731 130.644 89.7466C132.835 88.8032 135.374 89.3073 137.664 88.5997L130.187 89.3643" fill="#DC696F"/>
<path d="M131.56 87.7585C131.547 87.7727 131.416 87.7665 131.254 87.9879L131.56 88.0644C131.513 88.0863 130.969 88.6996 130.873 88.829C130.764 88.7565 130.766 88.4163 130.796 88.2938" fill="#696969"/>
<path d="M130.339 90.0525V89.6702C130.437 89.4871 130.526 89.7977 130.644 89.7466C132.671 90.9731 138.519 90.4351 140.259 88.5997C140.274 88.2079 135.605 87.4563 135.146 87.4527C134.329 87.4465 132.227 87.75 131.56 88.0644C131.571 87.9471 131.539 87.7975 131.56 87.7586C131.917 87.362 132.45 87.0518 132.781 86.6116C132.91 83.366 136.581 80.5242 139.419 79.5005C144.258 77.7554 143.568 80.5151 141.327 83.4002C137.838 87.892 131.572 86.3364 132.018 87.6821C134.899 86.8267 137.936 87.4547 140.716 88.4468C138.614 90.999 133.219 90.8698 130.339 90.0525Z" fill="#DC696F"/>
<path d="M141.098 79.1947C143.341 78.9129 143.139 79.9855 141.785 82.3297C140.578 84.4199 137.687 86.2905 135.299 86.5352C131.74 86.9 136.033 85.5978 138.504 83.7825C142.191 80.6226 134.181 86.2793 133.468 86.5352C132.147 87.0095 133.86 83.5867 135.299 82.2533C136.227 81.3938 139.945 79.3397 141.098 79.1947Z" fill="#DC696F"/>
<path d="M64.3539 37.5401C63.216 37.3765 59.0399 41.2944 63.4641 46.8126C67.2271 44.3564 65.9753 37.7733 64.3539 37.5401Z" fill="#DC696F"/>
<path d="M64.7984 54.4802C64.7659 54.4333 65.0016 54.3069 64.0866 53.5886C62.5267 52.364 58.8536 51.3585 56.7907 51.3596C59.4398 50.8581 61.8279 52.0674 64.0866 53.2319C63.2376 47.2582 55.0487 49.5487 55.723 51.7162C55.8018 51.9694 60.0923 54.0437 60.4387 54.1235C63.0109 54.7165 63.5607 53.5168 64.7984 54.4802Z" fill="#DC696F"/>
<path d="M60.706 66.0709C60.66 66.0168 60.6241 65.7708 59.8162 65.001C58.0563 63.3241 54.7183 62.0119 52.4314 63.3962C50.6759 64.4588 54.7378 66.8226 55.4565 66.9625C56.8792 67.2396 59.3874 66.7878 60.706 66.0709Z" fill="#DC696F"/>
<path d="M55.367 59.2947C55.4377 59.3631 55.6681 59.0612 55.7229 59.6514C57.4437 61.0864 58.3964 57.317 57.5023 54.7476C55.8247 49.9266 52.4648 56.1377 55.367 59.2947Z" fill="#DC696F"/>
<path d="M51.2738 56.4417L43.9778 55.6393C47.8248 55.4681 52.2962 56.5765 50.2061 55.0152C48.0028 53.3693 40.624 54.1378 45.1345 57.155C47.4285 58.6894 49.232 57.8564 51.2738 56.4417Z" fill="#DC696F"/>
<path d="M62.6628 47.8826C63.7619 49.6071 64.3534 52.4778 65.154 54.3912L64.7981 54.4803C65.8877 56.0509 66.6412 59.0602 66.9335 60.9889L63.4635 69.2807C61.2614 66.5007 58.6944 62.3084 55.9007 60.1865C55.8683 60.3747 55.9689 60.5893 56.0786 60.7215C57.2832 62.172 58.8821 63.3158 59.8156 65.0011C60.6235 65.7709 60.6593 66.0169 60.7053 66.071C61.0249 66.4472 63.1585 69.3376 63.1966 69.5482C63.2568 69.8813 62.0529 73.5898 61.5951 73.7387C61.8443 73.9683 62.02 73.9459 61.951 74.2736C63.3386 69.893 67.7671 59.1472 69.7807 54.4803C69.6664 54.4933 69.5166 54.4544 69.4248 54.4803L67.2005 60.0082C66.6484 58.0741 66.0222 57.5555 66.9335 56.4418H66.7556C65.8466 57.5953 65.229 52.5975 62.8407 47.8826L62.6628 47.8826Z" fill="#DC696F"/>
<path d="M50.2067 55.0153C52.2968 56.5766 47.8255 55.4682 43.9785 55.6394L51.2744 56.4418C51.3667 56.3779 51.515 56.2923 51.6303 56.2635C51.1993 55.8292 50.7832 55.3059 50.3847 54.8369C50.3355 54.8136 50.2516 54.8615 50.2067 54.8369V55.0153Z" fill="#EEE0C0"/>
<path d="M50.3848 54.8369C50.7833 55.3059 51.1994 55.8291 51.6304 56.2634C52.8015 57.4435 54.1855 58.4884 55.1894 59.8298C55.2131 59.8449 55.4681 59.826 55.7232 60.0081C55.7182 59.8907 55.734 59.7679 55.7232 59.6515C55.56 59.5153 55.5039 59.4434 55.3673 59.2948C53.8302 57.8088 52.1353 56.4698 50.7407 54.8369C50.6474 54.8055 50.4524 54.869 50.3848 54.8369Z" fill="#DC696F"/>
<path d="M64.0869 53.5887V53.232C61.8282 52.0675 59.4401 50.8582 56.791 51.3597C58.8539 51.3586 62.527 52.3641 64.0869 53.5887Z" fill="#EEE0C0"/>
<path d="M66.9335 56.4417C66.0221 57.5554 66.6483 58.0739 67.2004 60.0081L69.4247 54.4802C69.2723 54.5233 67.0339 56.319 66.9335 56.4417Z" fill="#EEE0C0"/>
<path d="M62.6625 47.8825H62.8405C61.0924 44.4314 58.6623 41.3699 56.7902 37.9859C54.6244 35.51 49.9772 31.9556 46.5581 33.0821C44.2746 33.8345 45.9593 35.972 47.092 37.0051C51.146 40.7026 58.9575 39.6831 60.794 45.2077C57.6758 41.5051 53.17 44.1576 53.0533 45.2969C52.8626 47.1582 58.8307 49.883 61.6838 46.6343C62.0955 46.9805 62.3796 47.4386 62.6625 47.8825Z" fill="#DC696F"/>
<path d="M57.769 44.6728C54.0973 44.2009 51.4972 45.1206 58.1249 45.0295L60.972 46.2777L61.15 45.9211C60.0806 45.4872 58.93 44.8221 57.769 44.6728Z" fill="#EEE0C0"/>
<path d="M48.4267 52.8754C48.1112 52.3697 46.9206 48.1083 42.9993 47.7042C36.5813 47.0427 42.0875 52.7244 44.2449 53.0537C45.8081 53.2923 47.291 52.414 48.4267 52.8754Z" fill="#DC696F"/>
<path d="M41.0425 48.5957L40.5977 48.6849C49.3332 53.2123 50.9151 53.4383 41.0425 48.5957Z" fill="#EEE0C0"/>
<path d="M61.3285 57.5115C59.9177 57.1945 57.4826 61.9801 61.3285 66.0708C64.8463 63.0346 62.5442 57.7847 61.3285 57.5115Z" fill="#DC696F"/>
<path d="M61.1506 58.0466C60.5899 60.2317 60.9986 63.1337 61.3285 65.3577L61.1506 58.0466Z" fill="#EEE0C0"/>
<path d="M48.4268 52.8754C48.8499 53.5536 49.5047 54.4536 50.2062 54.8369C50.2512 54.8615 50.335 54.8136 50.3842 54.8369C50.4518 54.8691 50.6469 54.8055 50.7401 54.8369C51.3801 55.0527 51.5114 55.448 51.7188 55.3719C54.8959 51.0911 50.2098 44.8056 48.9606 49.9332C48.3049 52.6248 50.2085 54.4691 48.4268 52.8754Z" fill="#DC696F"/>
<path d="M50.6515 48.7742L50.5625 51.3598C51.5581 58.2908 51.1648 51.8973 50.6515 48.7742Z" fill="#EEE0C0"/>
<path d="M55.3672 59.2948C55.5037 59.4433 55.5598 59.5153 55.7231 59.6514C55.6684 59.0612 55.4379 59.3632 55.3672 59.2948Z" fill="#EEE0C0"/>
<path d="M56.0784 60.7213C55.9686 60.5892 55.868 60.3746 55.9004 60.1864C55.8904 60.1788 55.9105 60.1423 55.7225 60.0081C55.4673 59.826 55.2124 59.8449 55.1886 59.8297C49.9433 56.489 46.867 58.5742 49.4053 60.543C51.2998 62.0125 54.0872 61.9747 56.0784 60.7213Z" fill="#DC696F"/>
<path d="M48.6943 59.1165C48.5515 59.1761 48.5508 59.412 48.6943 59.4731C50.2646 60.1418 62.0064 60.8389 48.6943 59.1165Z" fill="#EEE0C0"/>
<path d="M56.0791 87.6474L56.435 87.5582C56.2463 87.3001 56.094 87.3073 56.0791 87.2908C56.1031 87.3362 56.0658 87.5105 56.0791 87.6474Z" fill="#EEE0C0"/>
<path d="M56.9684 87.9149C57.0043 88.0578 57.0064 88.4544 56.8794 88.5391C56.7672 88.3882 56.1328 87.673 56.0787 87.6475C55.3002 87.2808 52.8497 86.9269 51.8969 86.9342C51.3614 86.9383 45.9175 87.8148 45.9356 88.2716C47.9642 90.4118 54.7824 91.0391 57.1464 89.609C54.5917 88.5088 51.6312 89.0967 48.9607 88.2716L57.6802 89.1632" fill="#DC696F"/>
<path d="M56.0791 87.2908C56.094 87.3073 56.2462 87.3001 56.435 87.5582L56.0791 87.6474C56.1333 87.6729 56.7677 88.3881 56.8799 88.539C57.0068 88.4544 57.0047 88.0577 56.9688 87.9149" fill="#696969"/>
<path d="M57.5029 89.9654V89.5196C57.3888 89.3061 57.2852 89.6683 57.147 89.6088C54.783 91.0389 47.9648 90.4116 45.9362 88.2714C45.9181 87.8146 51.362 86.9381 51.8975 86.934C52.8503 86.9267 55.3008 87.2806 56.0793 87.6473C56.066 87.5104 56.1033 87.336 56.0793 87.2906C55.6629 86.8282 55.0413 86.4665 54.6557 85.9532C54.5051 82.1688 50.2247 78.8551 46.9149 77.6615C41.2724 75.6266 42.0774 78.8445 44.6906 82.2086C48.7591 87.4462 56.065 85.6324 55.5454 87.2015C52.1862 86.204 48.6447 86.9363 45.4023 88.0931C47.8543 91.0691 54.1445 90.9184 57.5029 89.9654Z" fill="#DC696F"/>
<path d="M44.957 77.3048C42.3419 76.9762 42.5771 78.2269 44.1562 80.9603C45.5643 83.3976 48.9352 85.5787 51.7191 85.8641C55.8687 86.2895 50.8638 84.771 47.9821 82.6544C43.6824 78.9697 53.023 85.5657 53.8545 85.8641C55.3952 86.4171 53.3971 82.426 51.7191 80.8712C50.6375 79.869 46.302 77.4739 44.957 77.3048Z" fill="#DC696F"/>
<path d="M77.072 24.8541C74.9079 16.0293 80.2926 7.1175 89.0991 4.94894C97.9057 2.78038 106.799 8.17628 108.963 17.001C110.718 24.158 107.508 31.3714 101.534 34.9994L103.458 56.1727L84.5252 46.9198C84.5252 46.9198 86.8574 41.7507 87.4798 36.4166C82.4752 34.6147 78.4361 30.4169 77.072 24.8541Z" fill="#FFB6B6"/>
<path d="M102.006 40.7815C102.006 40.7815 95.1435 52.8587 84.6819 41.489L65.2646 68.9966L74.5358 91.3622L116.905 92.0001L115.054 65.8998L102.006 40.7815Z" fill="#D6D6E3"/>
<path d="M85.2619 44.1338L87.2401 40.7815C87.2401 40.7815 63.2473 44.8054 63.2396 51.3979L52.4229 85.0412C51.8514 86.8189 54.4035 88.7676 55.7497 90.0592C56.64 90.9133 57.8206 91.3972 59.053 91.413L68.5046 91.5342L68.7336 80.8364L75.3441 60.5151L85.2619 44.1338Z" fill="#D6D6E3"/>
<path d="M101.308 43.3948L101.888 40.75C101.888 40.75 123.322 44.0664 123.33 50.6589L134.147 84.3022C134.718 86.0799 132.166 88.0285 130.82 89.3201C129.929 90.1743 128.749 90.6582 127.516 90.674L118.065 90.7952L117.836 80.0974L111.225 59.7761L101.308 43.3948Z" fill="#D6D6E3"/>
<path d="M103.324 41.0513C103.267 41.0301 103.197 41.0108 103.112 40.9935C101.073 40.5788 100.849 40.9189 100.365 36.8644C100.287 36.2129 100.226 35.5126 100.06 34.8764C101.846 33.1387 104.238 29.511 105.248 27.1536C105.515 26.9408 106.427 26.3736 106.469 26.3125C106.469 26.3125 106.469 26.3298 106.622 26.1595C109.069 22.1878 108.456 18.4863 105.783 21.7246C101.385 17.0516 93.5778 16.6444 89.911 11.7844C86.8229 12.747 84.5288 16.2263 83.5777 19.2013C82.3581 23.0162 83.2725 27.1536 83.2725 27.1536C83.9569 29.2989 87.2456 33.9582 88.7665 35.3352C89.1125 36.8986 88.929 38.2957 88.6139 39.7701C88.4761 40.4146 87.8267 41.2873 87.8508 41.5287L79.3046 40.4582C79.1804 40.1598 76.5625 39.7589 75.0315 35.8704C71.5689 27.0762 75.5027 2.97875 88.3849 3.06749C91.9376 -1.73343 99.5353 -0.244344 103.646 3.06749C111.746 9.59294 117.113 31.1486 111.2 37.8585C108.811 40.5698 104.69 40.5872 103.945 41.0281L103.324 41.0513Z" fill="#090814"/>
<path d="M106.622 26.1594C107.285 26.234 107.922 27.356 107.843 28.0711C107.686 29.5018 105.308 29.5086 105.554 28.3768C105.623 28.0579 106.817 27.7535 106.47 26.1594" fill="#EEE0C0"/>
<path d="M94.9018 66.789C94.8489 67.6623 94.7233 68.501 94.9409 69.3726C96.5053 67.9609 99.109 67.6696 98.4089 68.6077C98.274 68.7884 96.3383 69.1493 96.2399 70.115C99.6518 68.5424 100.658 66.8293 98.1515 71.4331C96.668 72.6253 95.1056 71.6353 94.8872 71.7704C94.1778 72.209 95.0327 79.0332 95.4864 78.7214C95.6899 74.941 95.7842 83.8036 97.4763 85.2066C98.0126 85.6513 97.1804 83.185 97.9948 84.2025C98.0943 84.3267 98.1565 85.4629 98.1444 85.7079C98.1415 85.7682 97.8076 85.5552 97.8855 86.6746C97.2058 85.7314 96.7876 84.6191 96.2508 83.5905C96.0482 82.3388 95.0432 78.5635 94.3541 77.7558C92.5861 75.683 91.9914 78.5626 90.0666 74.1906C93.4933 74.0158 94.4368 77.7413 94.7805 77.4952C93.8007 74.5975 94.5376 71.5966 94.4231 71.3061C94.1911 70.7172 92.5706 69.5832 93.9225 71.5109C91.6961 71.5006 91.1919 69.9 90.0248 68.3543C91.7753 67.9241 93.6037 68.5352 94.4037 70.2466C94.5342 69.2559 94.7208 65.4106 93.6763 65.173C93.3833 65.1063 93.0896 67.4402 88.4631 63.9319C90.6638 62.4137 93.445 62.2608 94.344 65.2096C95.7662 62.5288 94.516 63.944 94.4171 63.8713C94.1558 63.679 95.0684 61.9533 90.8887 58.6698C93.1978 62.3151 84.6383 59.1907 89.9427 58.5405C89.0927 54.0688 90.2411 57.4284 90.9626 58.2608C91.3486 58.7062 94.2581 61.7598 94.5082 61.7337C94.6054 61.7236 94.9419 60.2576 95.8616 61.0077C96.8513 61.815 95.0876 64.4012 95.9937 63.7771C97.5915 62.6764 94.8999 58.6549 95.6915 57.0489C96.9267 54.5426 95.8899 57.9567 97.2128 57.4937C94.2429 61.1605 99.5391 61.9215 94.6596 65.5625C94.6408 65.9428 94.9055 66.7266 94.9018 66.789Z" fill="#EF8383"/>
<path d="M101.867 69.3546C101.324 69.9086 100.171 70.188 99.4381 70.4346C97.4069 72.2145 98.0567 80.5691 98.6879 83.223C98.2109 83.2028 98.1606 83.0366 98.1313 83.0376L97.7027 80.5101L97.7605 83.2237C97.541 83.287 97.5131 83.2563 97.5008 83.2611C97.441 82.1427 97.2326 81.2537 97.3128 80.1015C97.3614 79.4043 97.7997 79.6526 97.8131 79.432C97.8318 79.1237 97.6085 77.3855 97.6989 75.8634C97.7658 74.7363 98.3711 71.3267 98.2883 70.7329C98.0778 69.2238 95.1454 66.4313 97.9511 66.5325C97.8024 65.5127 98.7172 63.9223 99.1907 62.7026C99.3888 62.1924 100.304 60.8452 100.246 60.3598C100.156 59.6059 99.5743 60.0004 99.3366 59.5613C98.9839 58.9098 99.7003 55.9677 100.447 56.2148C100.888 56.3608 99.9454 58.3044 102.672 56.0271C102.169 59.6974 103.446 57.7108 103.936 58.368C104.875 59.6301 100.46 58.7865 99.0247 63.8551C98.4449 65.9025 99.252 67.4665 101.085 65.2847C102.016 67.0153 100.872 68.0188 101.124 68.3329C101.315 68.5698 103.606 67.5791 101.867 69.3546Z" fill="#F18B90"/>
<path d="M86.103 62.9823C86.5499 64.0371 86.8915 65.0941 87.6546 65.9886C88.6661 63.418 91.5493 61.5527 91.275 63.0623C91.2222 63.3531 89.1629 64.9091 89.6103 66.099C92.6943 62.2584 92.8757 59.6609 92.6198 66.5258C91.5752 68.7918 89.1664 68.5453 88.989 68.8315C88.4127 69.7609 93.3921 77.2622 93.7424 76.631C91.7779 72.0794 97.0535 82.4158 99.8551 83.0706C100.743 83.2781 98.33 80.8733 99.8779 81.5898C100.067 81.6772 100.802 82.973 100.931 83.2674C100.962 83.3399 100.447 83.2854 101.19 84.5524C99.8438 83.8442 98.7052 82.7848 97.4764 81.8929C96.5093 80.5438 93.1307 76.7053 91.8521 76.1614C88.571 74.7658 89.5519 78.4902 84.7471 74.4902C88.6632 72.28 91.9406 76.0961 92.2002 75.6064C89.3625 72.7822 88.4778 68.8323 88.1742 68.5586C87.5589 68.004 84.9981 67.6227 87.7066 69.0918C85.0901 70.3826 83.5661 68.8009 81.2968 67.6716C83.0986 66.1428 85.5986 65.7893 87.5341 67.3278C87.1097 66.0899 85.0874 61.4719 83.7242 61.8046C83.3419 61.8979 84.3577 64.8062 76.8885 63.4001C78.5841 60.3322 81.7559 58.5253 84.5286 61.4567C84.6337 57.4812 83.9926 59.8722 83.8343 59.8448C83.4158 59.7723 83.4802 57.2148 76.6659 55.8108C81.4977 58.7337 69.6407 60.0793 75.4812 56.2127C71.8786 51.467 75.1831 54.7341 76.5142 55.288C77.2263 55.5843 82.4173 57.4621 82.6953 57.2852C82.8034 57.2164 82.3437 55.3005 83.8592 55.6419C85.4901 56.0093 84.9293 60.0737 85.628 58.8117C86.86 56.5861 81.3604 53.4459 81.3525 51.0996C81.3402 47.4381 82.1142 52.0479 83.3956 50.7309C82.0502 56.7683 88.7036 54.5612 85.1043 61.6858C85.3038 62.1428 86.071 62.9069 86.103 62.9823Z" fill="#F18B90"/>
<path d="M97.2444 65.4447C96.931 66.4118 95.741 67.4146 95.0258 68.1325C93.6815 71.4081 99.3123 80.8238 101.599 83.5661C101.028 83.8216 100.872 83.6561 100.838 83.6744L98.8628 80.9618L100.512 84.1097C100.291 84.3123 100.241 84.2927 100.229 84.3055C99.5074 83.0291 98.745 82.1088 98.1675 80.7108C97.8181 79.8649 98.4768 79.8996 98.3639 79.633C98.2062 79.2606 96.9315 77.3533 96.1503 75.5156C95.572 74.1549 94.2947 69.8029 93.8515 69.1551C92.7252 67.5088 87.6595 65.9506 91.0082 64.4274C90.2394 63.3187 90.3852 60.9186 90.2297 59.2114C90.1646 58.4971 90.4528 56.3819 90.1018 55.8468C89.5565 55.0156 89.1046 55.8185 88.57 55.4428C87.7768 54.8852 86.9022 51.0163 87.9214 50.8692C88.5239 50.7822 88.5514 53.6128 90.4217 49.3467C91.9704 53.9448 92.3104 50.8678 93.267 51.3522C95.1038 52.2824 89.436 53.8767 90.7067 60.6599C91.22 63.3998 93.0778 64.7612 93.9552 61.1305C96.0561 62.6144 95.2989 64.4609 95.778 64.6814C96.1394 64.8477 98.2484 62.3454 97.2444 65.4447Z" fill="#F18B90"/>
<path d="M92.8123 80.0427C90.8716 80.0902 88.9704 80.602 87.2672 81.5355L66.9814 81.0236L67.019 90.7048L87.5935 90.182C89.3617 90.9848 91.2959 91.3518 93.2346 91.2521C98.0916 91.0681 101.93 88.4094 101.812 85.315C101.695 82.2207 97.665 79.8623 92.8111 80.044L92.8123 80.0427Z" fill="#FFB6B6"/>
<path d="M99.656 70.0434C101.439 70.8118 103.014 71.9964 104.247 73.4984L122.264 83.104L119.63 89.5653L100.731 81.401C98.7913 81.4861 96.8598 81.1047 95.0977 80.2886C90.6585 78.3051 88.085 74.4052 89.3439 71.5773C90.6028 68.7494 95.2195 68.0648 99.6566 70.0451L99.656 70.0434Z" fill="#FFB6B6"/>
<path d="M59.4268 80.0073L68.7335 80.8364L87.9268 81.0396L86.0549 91.2354L60.4569 91.3621L59.4268 80.0073Z" fill="#D6D6E3"/>
<path d="M125.176 85.4968L123.276 81.7165L106.54 73.6167L103.121 82.9389L118.556 91.3146L125.176 85.4968Z" fill="#D6D6E3"/>
<path d="M0.00145696 91.2057C-0.0208131 91.5212 0.21523 91.7956 0.529911 91.8199H181.461C181.8 91.7759 182.039 91.4652 181.995 91.126C181.959 90.8472 181.74 90.6278 181.461 90.5916H0.529908C0.215227 90.6159 -0.0208131 90.8903 0.00145696 91.2057Z" fill="#CCCCCC"/>
</g>
<defs>
<clipPath id="clip0_304_117">
<rect width="182" height="92" rx="46" fill="white"/>
</clipPath>
</defs>
</svg>
