<svg width="119" height="116" viewBox="0 0 119 116" fill="none" xmlns="http://www.w3.org/2000/svg">
<g clip-path="url(#clip0_304_118)">
<path d="M48.0607 93.5073C47.8386 93.1577 46.8782 93.532 46.7016 93.2148C46.5257 92.8987 47.4181 92.417 47.9279 91.3168C48.0198 91.1184 48.5992 89.868 48.1703 89.4822C47.3573 88.7509 43.6371 91.7688 42.3352 90.7812C42.0494 90.5645 41.8498 90.1318 40.9851 89.4293C40.6411 89.1499 40.4331 89.0237 40.2317 89.0706C39.9461 89.1372 39.9235 89.4942 39.6171 90.1962C39.1578 91.2489 38.8861 91.1853 38.6184 92.0252C38.4197 92.6487 38.4651 93.0112 38.2313 93.0818C37.9004 93.1817 37.5959 92.5204 37.1766 92.5796C36.7487 92.64 36.49 93.41 36.4083 93.9865C36.255 95.0684 36.6805 95.7823 36.9163 96.5329C37.1726 97.3487 37.3247 98.5893 36.7328 100.346L30.875 115.757C32.1682 112.595 35.9128 103.926 37.4862 100.704C37.9404 99.7743 38.442 98.831 39.4717 98.4588C40.4632 98.1003 41.8248 98.3143 43.5607 97.9238C43.7635 97.8782 44.3261 97.7446 44.3969 97.4356C44.4554 97.1801 44.1245 97.0375 44.1753 96.7983C44.2435 96.4774 44.8943 96.4734 45.694 96.1032C46.2579 95.8421 46.6092 95.5316 46.9113 95.2646C47.0023 95.1841 48.3562 93.9726 48.0607 93.5073Z" fill="#F2F2F2"/>
<path d="M25.0144 101.621C24.7666 101.622 24.6862 102.17 24.4685 102.159C24.2516 102.149 24.2559 101.601 23.8247 101.05C23.747 100.95 23.257 100.324 22.9304 100.409C22.3115 100.571 22.8243 103.146 21.9296 103.458C21.7332 103.527 21.4482 103.493 20.8294 103.687C20.5833 103.764 20.457 103.823 20.4235 103.929C20.3761 104.079 20.5572 104.192 20.8378 104.535C21.2586 105.049 21.1468 105.155 21.511 105.52C21.7814 105.791 21.985 105.875 21.9547 106.003C21.9117 106.183 21.4763 106.132 21.3864 106.341C21.2947 106.555 21.6248 106.895 21.9042 107.099C22.4286 107.482 22.9266 107.493 23.3892 107.601C23.8919 107.719 24.5879 108.007 25.3403 108.785L31.7506 115.917C30.4615 114.412 26.9854 110.194 25.7462 108.544C25.3884 108.067 25.0373 107.565 25.1388 106.986C25.2365 106.428 25.7418 105.866 26.0374 104.957C26.0719 104.851 26.164 104.555 26.022 104.433C25.9047 104.333 25.7342 104.443 25.6232 104.351C25.4741 104.227 25.6598 103.928 25.696 103.454C25.7214 103.121 25.6596 102.87 25.6064 102.654C25.5904 102.589 25.3443 101.619 25.0144 101.621Z" fill="#F2F2F2"/>
<path d="M29.9579 102.657L29.8086 101.412L29.8768 101.318C30.1924 100.882 30.3533 100.456 30.3552 100.051C30.3556 99.987 30.3523 99.9227 30.3491 99.8572C30.3363 99.5976 30.3202 99.2749 30.5004 98.8988C30.6014 98.6891 30.8852 98.2036 31.3118 98.2636C31.4267 98.2787 31.5135 98.3279 31.5795 98.3856C31.5892 98.3712 31.5991 98.3568 31.6098 98.3412C31.7426 98.1519 31.8478 98.0708 31.9492 97.9926C32.0271 97.9326 32.1075 97.8707 32.2336 97.724C32.289 97.6598 32.3321 97.6033 32.3684 97.5558C32.4788 97.4122 32.6229 97.2409 32.8771 97.2439C33.1487 97.256 33.2909 97.4657 33.3852 97.6045C33.5534 97.852 33.6297 98.0305 33.6802 98.1489C33.6985 98.1921 33.7195 98.2408 33.7301 98.2558C33.8176 98.376 34.529 98.2636 34.797 98.2228C35.399 98.129 35.9199 98.0479 36.1345 98.4024C36.2883 98.656 36.1741 98.9913 35.7848 99.4258C35.6635 99.561 35.5345 99.6637 35.4199 99.7442C35.5148 99.7971 35.5998 99.8782 35.6342 100.006C35.7153 100.307 35.4376 100.609 34.8092 100.905C34.6532 100.979 34.4431 101.078 34.1487 101.125C34.01 101.147 33.8852 101.153 33.7783 101.156C33.7761 101.213 33.7616 101.276 33.724 101.34C33.6136 101.529 33.3839 101.62 33.0377 101.598C32.6567 101.579 32.343 101.511 32.0663 101.452C31.8247 101.4 31.6165 101.356 31.4531 101.367C31.15 101.389 30.9164 101.616 30.6423 101.91L29.9579 102.657Z" fill="#F2F2F2"/>
<path d="M30.6501 95.2473L29.3989 95.6978L29.2839 95.6601C28.7519 95.4857 28.2698 95.4484 27.8504 95.5493C27.7837 95.5653 27.7179 95.5845 27.6509 95.604C27.3853 95.6815 27.0551 95.7779 26.6197 95.7105C26.3768 95.6725 25.8019 95.5393 25.756 95.1387C25.7424 95.0311 25.7714 94.9402 25.8144 94.866C25.797 94.8609 25.7796 94.8556 25.7607 94.8499C25.5309 94.7779 25.4202 94.7035 25.3136 94.6317C25.2316 94.5766 25.147 94.5197 24.9632 94.4429C24.8825 94.4093 24.8131 94.3846 24.7547 94.3638C24.5779 94.3006 24.364 94.2138 24.3026 93.9835C24.2462 93.7352 24.4273 93.5535 24.5472 93.4332C24.761 93.2184 24.9265 93.1042 25.0363 93.0286C25.0765 93.001 25.1216 92.9698 25.1345 92.9564C25.2368 92.8469 24.9399 92.2328 24.8296 92.0011C24.5798 91.4811 24.3637 91.0312 24.6765 90.7474C24.9001 90.5442 25.2764 90.5623 25.8252 90.8038C25.9961 90.879 26.1352 90.9695 26.2477 91.0525C26.2784 90.9534 26.3409 90.8561 26.4641 90.7927C26.756 90.6429 27.1395 90.8171 27.6052 91.3097C27.7213 91.4319 27.8767 91.5966 28.0005 91.8505C28.0587 91.9701 28.096 92.0815 28.1262 92.1772C28.1865 92.1646 28.2549 92.1619 28.3311 92.1796C28.5552 92.2312 28.7068 92.4159 28.7722 92.7341C28.8495 93.0829 28.8588 93.3835 28.8673 93.6485C28.8751 93.8798 28.8825 94.079 28.9345 94.224C29.035 94.492 29.329 94.6455 29.7029 94.8186L30.6501 95.2473Z" fill="#F2F2F2"/>
<path d="M29.9579 91.5813L29.8086 90.3368L29.8768 90.2425C30.1924 89.8063 30.3533 89.3802 30.3552 88.9758C30.3556 88.9115 30.3523 88.8472 30.3491 88.7818C30.3363 88.5222 30.3202 88.1995 30.5004 87.8233C30.6014 87.6136 30.8852 87.1281 31.3118 87.1882C31.4267 87.2032 31.5135 87.2525 31.5795 87.3102C31.5892 87.2958 31.5991 87.2813 31.6098 87.2657C31.7426 87.0764 31.8478 86.9953 31.9492 86.9172C32.0271 86.8571 32.1075 86.7952 32.2336 86.6486C32.289 86.5843 32.3321 86.5278 32.3684 86.4804C32.4788 86.3367 32.6229 86.1655 32.8771 86.1685C33.1487 86.1805 33.2909 86.3902 33.3852 86.529C33.5534 86.7766 33.6297 86.9551 33.6802 87.0734C33.6985 87.1167 33.7195 87.1654 33.7301 87.1804C33.8176 87.3006 34.529 87.1882 34.797 87.1473C35.399 87.0536 35.9199 86.9725 36.1345 87.327C36.2883 87.5806 36.1741 87.9159 35.7848 88.3503C35.6635 88.4855 35.5345 88.5883 35.4199 88.6688C35.5148 88.7217 35.5998 88.8028 35.6342 88.9302C35.7153 89.2318 35.4376 89.5341 34.8092 89.8297C34.6532 89.9036 34.4431 90.0022 34.1487 90.0496C34.01 90.0719 33.8852 90.0773 33.7783 90.0803C33.7761 90.138 33.7616 90.2005 33.724 90.2647C33.6136 90.454 33.3839 90.5442 33.0377 90.5225C32.6567 90.5039 32.343 90.436 32.0663 90.3765C31.8247 90.3248 31.6165 90.281 31.4531 90.2912C31.15 90.314 30.9164 90.5405 30.6423 90.8344L29.9579 91.5813Z" fill="#F2F2F2"/>
<path d="M31.3215 115.737L31.0422 115.573L30.7166 115.608C30.7115 115.58 30.6938 115.515 30.6671 115.414C30.5213 114.857 30.077 113.164 29.7063 110.497C29.4476 108.636 29.3012 106.722 29.271 104.808C29.2407 102.891 29.3379 101.44 29.4158 100.274C29.4747 99.394 29.5461 98.5564 29.6162 97.7404C29.8028 95.5603 29.9788 93.5011 29.8479 91.2214C29.8189 90.7124 29.7581 89.653 29.0953 88.5258C28.7108 87.872 28.1812 87.2916 27.521 86.8012L27.9315 86.3193C28.6603 86.8613 29.2462 87.5043 29.6732 88.2302C30.4081 89.48 30.4743 90.6343 30.5062 91.1889C30.6394 93.5089 30.4615 95.588 30.2729 97.789C30.2034 98.602 30.132 99.4361 30.0734 100.312C29.9962 101.468 29.9 102.906 29.9299 104.798C29.9595 106.689 30.1043 108.58 30.3595 110.418C30.7256 113.051 31.1635 114.719 31.3073 115.267C31.3839 115.56 31.4 115.621 31.3215 115.737Z" fill="#F2F2F2"/>
<path d="M26.3126 87.7788C26.2855 87.7788 26.2582 87.7782 26.2305 87.7764C25.6694 87.7482 25.1498 87.4345 24.6858 86.8445C24.4683 86.5669 24.357 86.2502 24.135 85.6187C24.1005 85.5213 23.9332 85.0274 23.8315 84.3478C23.7649 83.9037 23.7733 83.7181 23.8676 83.554C23.9722 83.3713 24.1414 83.244 24.3319 83.158C24.3235 83.0991 24.3303 83.0385 24.3576 82.9766C24.4699 82.72 24.7685 82.7536 24.93 82.7699C25.0117 82.7795 25.1137 82.7921 25.2238 82.7867C25.3969 82.7789 25.4899 82.7308 25.6308 82.6587C25.7656 82.5896 25.9332 82.5037 26.1819 82.4562C26.6723 82.3607 27.0832 82.4904 27.2186 82.5331C27.9313 82.7548 28.2826 83.2722 28.6893 83.8713C28.7704 83.9914 29.0487 84.4289 29.2324 85.0286C29.365 85.4612 29.3463 85.6535 29.3064 85.7965C29.2254 86.0903 29.0339 86.2586 28.5478 86.6299C28.04 87.0187 27.7852 87.2134 27.5664 87.3318C27.0571 87.6064 26.7373 87.7788 26.3126 87.7788Z" fill="#F2F2F2"/>
<path d="M57.1795 114.684L58.9051 114.683L59.726 108.468L57.1792 108.468L57.1795 114.684Z" fill="#FFB6B6"/>
<path d="M63.0916 114.647C63.1453 114.732 63.1737 115.004 63.1737 115.103C63.1737 115.405 62.9115 115.649 62.588 115.649H57.244C57.0234 115.649 56.8445 115.482 56.8445 115.276V115.069C56.8445 115.069 56.5801 114.444 57.1244 113.675C57.1244 113.675 57.8008 114.277 58.8116 113.333L59.1097 112.829L61.2674 114.303L62.4634 114.44C62.725 114.47 62.957 114.435 63.0916 114.647Z" fill="#2F2E41"/>
<path d="M51.9203 114.684L53.6459 114.683L54.4668 108.468L51.9199 108.468L51.9203 114.684Z" fill="#FFB6B6"/>
<path d="M57.8323 114.647C57.8861 114.732 57.9144 115.004 57.9144 115.103C57.9144 115.405 57.6522 115.649 57.3287 115.649H51.9847C51.7641 115.649 51.5852 115.482 51.5852 115.276V115.069C51.5852 115.069 51.3208 114.444 51.8651 113.675C51.8651 113.675 52.5416 114.277 53.5524 113.333L53.8504 112.829L56.0081 114.303L57.2041 114.44C57.4657 114.47 57.6977 114.435 57.8323 114.647Z" fill="#2F2E41"/>
<path d="M59.1728 87.843L61.0135 94.4989L60.0931 111.591L55.7544 111.862L55.4915 102.023L54.9656 112.151L50.4954 111.283L50.2324 89.0006L59.1728 87.843Z" fill="#2F2E41"/>
<path d="M41.3542 65.4332C40.7603 64.46 39.7412 63.9574 39.078 64.3104C38.4148 64.6634 38.3588 65.7383 38.953 66.7118C39.1847 67.1037 39.5135 67.4381 39.9119 67.687L42.484 71.7806L44.5156 70.6126L41.7642 66.701C41.7379 66.2539 41.5973 65.8191 41.3542 65.4332Z" fill="#FFB6B6"/>
<path d="M53.0437 79.8845C53.0437 79.8845 50.6059 83.022 49.1149 81.9009C47.6239 80.7798 39.3862 68.1767 39.3862 68.1767L42.6554 66.5405L53.0437 79.8845Z" fill="#DC696F"/>
<path d="M50.7583 76.0572L53.9137 71.6375L57.0692 72.8651L56.2803 76.7938L50.7583 76.0572Z" fill="#FFB6B6"/>
<path d="M51.0211 75.0749L56.5431 74.8293L60.2245 75.8115L61.0133 93.9814L49.9693 92.9993V83.4174L48.3916 78.5124L51.0211 75.0749Z" fill="#DC696F"/>
<path d="M60.1344 87.3312C59.9404 86.8027 59.863 86.2448 59.9131 85.6881C60.0543 84.1171 60.081 81.039 58.3661 79.6484L57.3975 78.6686C57.3774 78.6482 57.3547 78.6308 57.3342 78.6109L58.9368 75.0934L57.9687 74.709L56.4812 77.9738C55.8215 77.599 55.0605 77.3913 54.2734 77.3913C53.3643 77.3913 52.4952 77.6682 51.7772 78.1556L50.87 75.0521L49.8552 75.3109L50.9894 78.8501C50.9482 78.8971 50.9032 78.9404 50.8641 78.9893L50.3099 79.6838C50.175 79.8529 50.0261 80.0099 49.8648 80.1575C49.5246 80.4685 48.861 81.2238 48.8545 82.3867C48.8523 82.7844 48.7648 83.1777 48.635 83.5564L47.9763 85.4785C47.9145 85.659 47.866 85.8427 47.833 86.0297C47.5426 87.6755 46.5373 95.4296 53.4079 95.2744C59.8126 95.1297 60.2341 91.4881 60.1968 90.2786C60.1887 90.0162 60.2139 89.7558 60.2663 89.4978C60.3624 89.0247 60.4488 88.1875 60.1344 87.3312Z" fill="#3F3D56"/>
<path d="M89.068 8.84351L89.6669 17.4783L82.1357 19.0919L82.6604 12.1103L89.068 8.84351Z" fill="#FFB6B6"/>
<path d="M89.6414 113.785L86.2467 113.784L84.6318 101.558L89.6421 101.558L89.6414 113.785Z" fill="#FFB6B6"/>
<path d="M78.0106 113.713C77.9049 113.879 77.8491 114.416 77.8491 114.609C77.8491 115.203 78.365 115.685 79.0013 115.685H89.5143C89.9484 115.685 90.3003 115.356 90.3003 114.951V114.542C90.3003 114.542 90.8204 113.314 89.7496 111.8C89.7496 111.8 88.4189 112.985 86.4304 111.128L85.844 110.136L81.5993 113.035L79.2465 113.306C78.7318 113.365 78.2754 113.296 78.0106 113.713Z" fill="#2F2E41"/>
<path d="M98.845 113.785L95.4503 113.784L93.8354 101.558L98.8457 101.558L98.845 113.785Z" fill="#FFB6B6"/>
<path d="M87.2142 113.713C87.1085 113.879 87.0527 114.416 87.0527 114.609C87.0527 115.203 87.5686 115.685 88.2049 115.685H98.7179C99.152 115.685 99.5039 115.356 99.5039 114.951V114.542C99.5039 114.542 100.024 113.314 98.9532 111.8C98.9532 111.8 97.6225 112.985 95.634 111.128L95.0476 110.136L90.8029 113.035L88.4501 113.306C87.9354 113.365 87.479 113.296 87.2142 113.713Z" fill="#2F2E41"/>
<path d="M100.982 55.6772C100.982 55.6772 103.875 59.1148 103.349 61.0791C102.823 63.0434 99.1416 108.223 99.1416 108.223L93.8826 107.977L90.7272 67.4631L89.9155 108.223L84.9422 107.977L78.6313 57.396L100.982 55.6772Z" fill="#2F2E41"/>
<path d="M70.5777 66.6379C70.0804 68.4176 68.694 69.6206 67.4811 69.3249C66.2683 69.0292 65.6884 67.347 66.1861 65.5668C66.3745 64.8531 66.7431 64.1919 67.2613 63.6385L69.4701 56.1228L73.2251 57.1659L70.6488 64.4643C70.8114 65.1838 70.787 65.9291 70.5777 66.6379Z" fill="#FFB6B6"/>
<path d="M82.9506 16.0092C87.1003 16.0092 90.4642 12.868 90.4642 8.9931C90.4642 5.11824 87.1003 1.97705 82.9506 1.97705C78.801 1.97705 75.437 5.11824 75.437 8.9931C75.437 12.868 78.801 16.0092 82.9506 16.0092Z" fill="#FFB6B6"/>
<path d="M82.0495 17.8641L89.9381 16.3909L98.6155 20.565L100.456 47.3288L102.823 57.396L78.3682 57.6415L79.42 44.1368L77.8423 22.7749L82.0495 17.8641Z" fill="#E6E6E6"/>
<path d="M80.2091 23.5117C80.2091 23.5117 76.0019 22.284 74.4242 24.4939C72.8465 26.7037 69.954 46.5924 69.954 46.5924L67.0615 61.5703L72.3206 62.3069L80.998 36.0342L80.2091 23.5117Z" fill="#E6E6E6"/>
<path d="M118.477 58.0297C119.335 59.6856 119.114 61.4409 117.986 61.9502C116.857 62.4594 115.248 61.5298 114.39 59.8732C114.038 59.2158 113.86 58.4893 113.87 57.7543L110.333 50.6952L113.915 49.2158L117.022 56.3319C117.645 56.7812 118.144 57.3634 118.477 58.0297Z" fill="#FFB6B6"/>
<path d="M95.3223 20.8197C95.3223 20.8197 99.1006 18.6999 101.192 20.4999C103.284 22.2998 111.119 40.9901 111.119 40.9901L117.713 54.9081L112.789 56.7824L97.7192 33.1626L95.3223 20.8197Z" fill="#E6E6E6"/>
<path d="M113.509 115.708C113.509 115.87 113.369 116 113.196 116H0.312914C0.139373 116 0 115.87 0 115.708C0 115.629 0.0315701 115.56 0.0841474 115.509H23.6763C24.1785 115.509 24.6702 115.477 25.1541 115.416H113.196C113.369 115.416 113.509 115.546 113.509 115.708Z" fill="#3F3D56"/>
<path d="M67.2901 67.4116C67.7593 66.3808 68.7093 65.7713 69.4118 66.0503C70.1143 66.3293 70.3032 67.3909 69.8336 68.422C69.6521 68.8363 69.3669 69.204 69.002 69.4943L66.9547 73.8385L64.792 72.8979L67.0399 68.7152C67.0106 68.2682 67.0964 67.8212 67.2901 67.4116Z" fill="#FFB6B6"/>
<path d="M53.6157 74.9005C56.2868 74.9005 58.4521 72.8785 58.4521 70.3843C58.4521 67.8901 56.2868 65.8682 53.6157 65.8682C50.9446 65.8682 48.7793 67.8901 48.7793 70.3843C48.7793 72.8785 50.9446 74.9005 53.6157 74.9005Z" fill="#FFB6B6"/>
<path d="M59.6987 75.8116L64.4319 74.0929L66.0096 68.9365L69.428 70.1642L66.7984 77.5304L59.6987 80.0631V75.8116Z" fill="#DC696F"/>
<path d="M52.9799 75.4058L55.8644 73.2142C55.8644 73.2142 55.5914 69.9298 56.6284 69.6344C57.6654 69.339 58.7468 68.1592 58.7468 68.1592C58.7468 68.1592 57.0305 64.5389 54.0095 65.0882C50.9884 65.6376 51.6777 64.8019 49.816 65.7226C47.9542 66.6432 47.5177 67.8717 47.7441 69.1769C47.9706 70.4822 47.2965 73.7251 49.5515 73.892C51.8064 74.059 52.9799 75.4058 52.9799 75.4058Z" fill="#2F2E41"/>
<path d="M78.3997 10.5638C77.8514 9.63012 78.1361 9.1844 77.6414 8.8194C77.6414 8.81939 77.4423 8.67252 75.9437 8.48545C75.8005 6.19565 75.4033 5.88964 75.4033 5.88963C74.9456 5.53694 74.2173 5.58611 73.7532 5.74631C72.7715 6.08512 72.8056 6.97773 72.1537 7.09942C71.2532 7.26753 73.7083 5.83002 73.6795 4.3094C73.6561 3.069 74.6076 1.93696 74.939 2.02532C75.2676 2.11294 76.1487 1.21943 76.5791 1.26633C76.8731 1.29837 78.1196 0.899323 78.4403 0.961722C78.7907 1.02987 79.9089 1.68553 79.9686 1.55924C80.3838 0.681711 80.3059 0.423828 80.6147 0.186961C81.1619 -0.232764 81.9657 0.147916 83.2549 0.416271C85.9075 0.968413 86.4463 0.177363 87.7733 0.839779C88.4435 1.1744 88.9594 1.98046 89.9638 3.57892C91.3683 5.81434 92.0706 6.93205 91.9701 8.1671C91.8675 9.42662 91.2214 9.29798 90.7751 11.1406C90.2783 13.1918 90.8755 14.1912 90.0767 14.8101C89.4594 15.2883 84.3403 15.3252 83.7677 14.8223C82.7875 13.9613 84.3196 12.1744 83.2788 10.7078C82.6399 9.80752 81.2415 9.32383 80.5503 9.69372C79.7688 10.112 80.0581 11.5323 79.5257 11.6252C79.0698 11.7048 78.4953 10.7265 78.3997 10.5638Z" fill="#2F2E41"/>
<path d="M41.9831 67.6415C43.0297 66.8159 42.7518 64.9016 41.3623 63.3657C40.7541 62.6934 40.0337 62.2052 39.3281 61.9379L38.5171 61.0639L28.0446 48.8111C28.0446 48.8111 22.2451 36.6221 20.5331 35.3052C18.8211 33.9884 16.8069 34.674 16.8069 34.674L15.2354 36.4896L25.0286 53.5084L35.0513 62.9271L36.4043 64.2443C36.5687 64.9386 36.9639 65.6834 37.5721 66.3556C38.9616 67.8915 40.9364 68.4672 41.9831 67.6415Z" fill="#FFB6B6"/>
<path d="M22.2147 37.5715L24.8391 41.1656L28.6068 46.3724L21.837 48.5592L15.8599 38.9821L22.2147 37.5715Z" fill="#E6E6E6"/>
<path d="M24.8793 25.34L22.9785 32.1067L15.7319 30.7755C15.7319 30.7755 18.5831 25.8946 17.8703 23.676L24.8793 25.34Z" fill="#FFB6B6"/>
<path d="M17.2299 113.422L21.5937 113.421L23.6696 97.7036L17.229 97.704L17.2299 113.422Z" fill="#FFB6B6"/>
<path d="M32.1808 113.329C32.3167 113.543 32.3884 114.232 32.3884 114.481C32.3884 115.245 31.7253 115.864 30.9073 115.864H17.393C16.8349 115.864 16.3825 115.442 16.3825 114.921V114.395C16.3825 114.395 15.714 112.816 17.0904 110.87C17.0904 110.87 18.8011 112.394 21.3573 110.007L22.1111 108.732L27.5676 112.458L30.592 112.806C31.2537 112.882 31.8404 112.794 32.1808 113.329Z" fill="#2F2E41"/>
<path d="M29.3465 67.9348L23.3333 106.144H15.789L16.7921 84.3334L17.3201 72.8651L15.789 67.4062C15.789 67.4062 15.0908 66.1928 14.5027 64.722C13.8398 63.0621 13.3162 61.0722 14.0935 60.1286C14.3795 59.7808 15.1231 59.5233 16.1336 59.3316C16.7511 59.2138 17.4697 59.122 18.2456 59.0508C22.7071 58.6386 29.0532 58.8961 29.0532 58.8961L29.2145 63.8674L29.304 66.6434L29.3465 67.9348Z" fill="#2F2E41"/>
<path d="M9.54248 111.553L13.86 112.145L18.3622 96.8768L11.99 96.0024L9.54248 111.553Z" fill="#FFB6B6"/>
<path d="M24.349 113.492C24.4501 113.722 24.4136 114.414 24.3749 114.66C24.2559 115.416 23.5034 115.938 22.6941 115.827L9.32354 113.992C8.77145 113.916 8.38967 113.436 8.47084 112.921L8.55268 112.401C8.55268 112.401 8.13723 110.748 9.80217 109.009C9.80217 109.009 11.2573 110.749 14.1581 108.735L15.1025 107.576L19.9205 112.004L22.8587 112.758C23.5015 112.924 24.0956 112.916 24.349 113.492Z" fill="#2F2E41"/>
<path d="M29.4411 61.5626L28.6164 68.1951L24.1185 82.1716L16.7143 105.182L9.25098 104.158L15.9492 71.4406L15.286 65.8305C15.286 65.8305 15.07 65.2729 14.8224 64.4565C14.331 62.8414 13.7146 60.2111 14.3927 58.8695C14.4843 58.6871 14.5992 58.5289 14.7414 58.4007C15.0081 58.1592 15.5502 58.0125 16.2765 57.9347C19.3122 57.6143 25.564 58.5307 28.3459 58.9805L29.4411 61.5626Z" fill="#2F2E41"/>
<path d="M23.6916 30.1098L31.8885 39.7607L30.4171 49.8226L29.1562 60.0608L14.3066 57.9532C14.3066 57.9532 17.5141 50.7427 17.8705 50.41C18.2269 50.0772 19.1221 50.8991 18.4963 49.8226C17.8705 48.746 17.1577 48.746 17.7517 48.1914C18.3457 47.6367 13.1187 40.4263 13.1187 36.5437C13.1187 32.6612 15.6134 29.5552 15.6134 29.5552L23.6916 30.1098Z" fill="#E6E6E6"/>
<path d="M21.7787 26.6179C24.8284 26.6179 27.3006 24.3093 27.3006 21.4616C27.3006 18.6139 24.8284 16.3054 21.7787 16.3054C18.7291 16.3054 16.2568 18.6139 16.2568 21.4616C16.2568 24.3093 18.7291 26.6179 21.7787 26.6179Z" fill="#FFB6B6"/>
<path d="M21.5208 31.3201C21.5208 31.3201 22.3471 25.2151 22.4934 23.4397C22.6396 21.6643 25.3234 18.8924 25.3234 18.8924L27.2247 20.3264C27.2247 20.3264 28.8335 20.3264 27.7366 18.1413C26.6397 15.9562 24.5921 15.6148 24.5921 15.6148C24.5921 15.6148 24.3728 12.7469 20.5702 13.0883C16.7676 13.4297 15.0857 16.2976 15.0857 16.2976C15.0857 16.2976 14.8663 12.6786 12.4531 15.3417C10.04 18.0047 8.65057 19.0973 11.21 19.985C13.7694 20.8727 15.6707 20.1898 15.6707 20.1898C15.6707 20.1898 13.1844 20.6678 13.6232 22.3066C14.0619 23.9454 7.84618 31.3884 10.6981 32.2078C13.55 33.0272 19.912 35.0074 20.6433 33.71C21.3746 32.4126 21.5208 31.3201 21.5208 31.3201Z" fill="#2F2E41"/>
<path d="M44.2831 68.153C45.3371 67.3356 45.0764 65.4192 43.7008 63.8726C43.0986 63.1955 42.3826 62.7017 41.6794 62.4288L40.8763 61.5486L30.5142 49.2142C30.5142 49.2142 24.8243 36.9802 23.1241 35.6501C21.424 34.3199 19.4037 34.9897 19.4037 34.9897L17.8159 36.7929L27.4561 53.8878L37.3939 63.3845L38.735 64.7123C38.8932 65.4078 39.2816 66.1557 39.8839 66.8327C41.2595 68.3794 43.2291 68.9705 44.2831 68.153Z" fill="#FFB6B6"/>
<path d="M17.2144 34.0413C17.2144 34.0413 19.7511 46.3334 22.6376 48.1455L28.3898 43.9572C28.3898 43.9572 28.8931 43.937 27.9563 42.9489C27.0194 41.9607 27.2593 39.8387 27.2593 39.8387C27.2593 39.8387 27.6808 40.348 26.7635 39.641C25.8463 38.934 26.7002 34.0716 26.7002 34.0716L17.2144 34.0413Z" fill="#E6E6E6"/>
<path d="M59.11 84.7555C58.9888 84.7555 58.8796 84.6769 58.8532 84.5617L58.564 83.3075C58.139 81.4631 56.4324 80.1161 54.4138 80.0319C52.5436 79.9536 50.8105 80.988 50.1002 82.6047L49.3748 84.256C49.3199 84.3816 49.1666 84.4413 49.0317 84.39C48.8974 84.3384 48.8332 84.195 48.8885 84.0696L49.6139 82.4184C50.4084 80.6105 52.3443 79.4558 54.4374 79.5413C56.6946 79.6354 58.6028 81.1416 59.0781 83.2041L59.3673 84.4583C59.3978 84.5909 59.3074 84.7215 59.1657 84.75C59.1469 84.7537 59.1282 84.7555 59.11 84.7555Z" fill="#FFB6B6"/>
<path d="M59.42 88.7488C59.4123 88.7488 59.4044 88.7484 59.3964 88.7478L49.6659 87.9376C49.5213 87.9255 49.4145 87.8063 49.4273 87.6712C49.4404 87.5362 49.5668 87.437 49.7126 87.4484L59.4431 88.2586C59.5877 88.2707 59.6945 88.3899 59.6817 88.525C59.6694 88.6527 59.5548 88.7488 59.42 88.7488Z" fill="#FFB6B6"/>
</g>
<defs>
<clipPath id="clip0_304_118">
<rect width="119" height="116" fill="white"/>
</clipPath>
</defs>
</svg>
