<svg width="149" height="106" viewBox="0 0 149 106" fill="none" xmlns="http://www.w3.org/2000/svg">
<g clip-path="url(#clip0_192_162)">
<path opacity="0.1" d="M49.536 105.94C56.7921 105.94 62.6744 104.991 62.6744 103.821C62.6744 102.651 56.7921 101.702 49.536 101.702C42.2798 101.702 36.3975 102.651 36.3975 103.821C36.3975 104.991 42.2798 105.94 49.536 105.94Z" fill="#53B774"/>
<path opacity="0.1" d="M120.955 106C130.01 106 137.35 105.051 137.35 103.881C137.35 102.71 130.01 101.761 120.955 101.761C111.901 101.761 104.561 102.71 104.561 103.881C104.561 105.051 111.901 106 120.955 106Z" fill="#53B774"/>
<path opacity="0.1" d="M1.8664 45.7996H15.551V64.5324H2.86824C2.83453 64.7247 2.80217 64.9184 2.76711 65.1121H15.551V80.2197C15.5281 80.2129 15.5078 80.2048 15.4863 80.1967C15.1249 80.0531 14.7662 79.9015 14.4076 79.739L14.1783 79.6347C13.8188 79.4641 13.4592 79.2835 13.0996 79.093C12.9742 79.0266 12.8489 78.9576 12.7248 78.8872C10.7287 77.7641 8.91526 76.3411 7.34751 74.6674C7.30167 74.6227 7.25852 74.5753 7.21267 74.532C6.99424 74.2936 6.77985 74.0526 6.5722 73.8061L6.34298 73.5353C6.09757 73.2333 5.86026 72.9232 5.62969 72.609C5.59598 72.563 5.56362 72.5169 5.52856 72.4736C4.59084 71.1677 3.81223 69.7538 3.20937 68.262C3.19049 68.2173 3.17431 68.1685 3.15679 68.1265C2.97161 67.6481 2.80756 67.1651 2.66463 66.6775C2.60261 66.473 2.54328 66.2713 2.49204 66.0587C2.47316 65.9964 2.45698 65.9354 2.44215 65.8745C1.67628 62.8722 1.58594 59.7534 1.58594 56.6563C1.58594 56.2947 1.58594 55.9318 1.58594 55.5729C1.58594 54.3203 1.60077 53.0595 1.62234 51.8001C1.62234 51.4737 1.63583 51.1487 1.64257 50.821C1.66145 49.9895 1.68841 49.158 1.72347 48.3265C1.73156 48.095 1.74235 47.8647 1.75448 47.6345C1.75448 47.5018 1.76123 47.3691 1.77471 47.2364C1.80707 46.7543 1.83404 46.2762 1.8664 45.7996Z" fill="#53B774"/>
<path opacity="0.1" d="M15.5503 24.9421H8.04395C9.26414 23.0239 10.5974 21.1807 12.0365 19.4223C13.1516 18.0464 14.3287 16.7057 15.5503 15.4138V24.9421Z" fill="#53B774"/>
<path opacity="0.1" d="M15.5506 25.5215V45.2199H1.90918C1.90918 45.163 1.91862 45.1048 1.92266 45.0479C1.9348 44.8922 1.94693 44.7365 1.96042 44.5821C1.97525 44.4006 1.99143 44.2178 2.00896 44.0404C2.02649 43.863 2.04536 43.6463 2.06559 43.45C2.08582 43.2536 2.10469 43.0545 2.12762 42.8582C2.15054 42.6618 2.17076 42.4655 2.19503 42.2704C2.2193 42.0754 2.24088 41.8777 2.2665 41.6827C2.28672 41.5202 2.3083 41.3591 2.32987 41.1965C2.36088 40.9677 2.39324 40.7375 2.4283 40.51C2.4283 40.4761 2.43774 40.4409 2.44313 40.4084C2.68924 38.7429 3.02457 37.092 3.44767 35.4628C3.89055 33.7538 4.4561 32.0792 5.13987 30.4522C5.86659 28.7502 6.71748 27.1044 7.68559 25.5283L15.5506 25.5215Z" fill="#53B774"/>
<path opacity="0.1" d="M18.8174 45.7982V64.5324H48.0459V45.7982H18.8174ZM18.8174 65.1107V81.1988C18.9846 81.234 19.1504 81.2678 19.3149 81.2963C19.5388 81.3396 19.7612 81.3789 19.9891 81.4127C20.0323 81.4195 20.0768 81.4263 20.124 81.4303C20.2129 81.4452 20.3046 81.4574 20.3936 81.4696C20.6188 81.5007 20.8426 81.5265 21.0678 81.5468C21.1743 81.5576 21.2822 81.5671 21.3901 81.5752L21.6503 81.5955C21.7919 81.6064 21.9321 81.6145 22.071 81.6186C22.1573 81.6186 22.2436 81.6267 22.3326 81.6294C22.4 81.6294 22.4674 81.6294 22.5375 81.6294C22.6076 81.6294 22.7074 81.6294 22.7924 81.6294C22.9083 81.6294 23.0243 81.6294 23.1389 81.6294H23.294C23.4099 81.6294 23.5259 81.6294 23.6405 81.6186H23.6486C23.7281 81.6186 23.809 81.6186 23.8899 81.6077C23.9124 81.6091 23.9349 81.6091 23.9574 81.6077C24.0248 81.6077 24.0922 81.6077 24.1569 81.5983H24.2041L24.6558 81.563C24.8041 81.5495 24.9538 81.5319 25.1048 81.5156L25.4122 81.4791C26.663 81.3031 27.8998 81.0388 29.1135 80.6882C31.8399 79.9244 34.507 78.856 37.232 78.0732C40.7553 77.0643 44.6481 76.5687 48.0527 77.8024V65.1107H18.8174ZM48.0459 24.9419V0.0012381C44.8459 -0.033582 41.6546 0.342322 38.5494 1.11982C31.1482 2.98729 24.5075 7.03775 18.8174 12.2109V24.9405H20.2844V25.5188H18.8174V45.2199H48.0459V25.5201H26.3076V24.9419H48.0459ZM85.5885 16.5173C83.7575 16.4523 81.9372 15.87 80.2908 14.9708C77.1424 13.2509 74.6277 10.5953 71.8177 8.35405C65.9792 3.68606 58.7385 0.869291 51.3103 0.170515V24.9419H93.0356L93.1394 24.8322L85.5885 16.5173ZM89.3896 15.8402L93.4199 20.282V14.6755C92.0701 14.8435 90.8876 15.243 89.395 15.8347L89.3896 15.8402ZM93.4199 85.1937V65.1107H84.8321C84.8092 65.0253 84.7863 64.9387 84.7593 64.852C84.7849 64.9387 84.8065 65.0253 84.8307 65.1107H51.3157V79.6346C51.6339 79.8716 51.9481 80.1208 52.2596 80.374C52.5953 80.6449 52.927 80.9306 53.2601 81.2109L53.5958 81.4899C53.7563 81.6253 53.9181 81.7608 54.0812 81.8881C54.4048 82.1517 54.7316 82.4117 55.0615 82.6681C55.2246 82.8035 55.3918 82.9254 55.5577 83.0527C58.1907 85.0745 60.9682 86.899 63.8677 88.5115C64.5176 88.8727 65.1734 89.2252 65.835 89.5692C66.2759 89.7953 66.7195 90.0201 67.1644 90.2382C67.8332 90.5659 68.5074 90.8819 69.187 91.1861C75.4524 94.0108 82.0775 95.9491 88.8732 96.9456C90.3824 97.1695 91.8975 97.3455 93.4185 97.4737V85.1923H93.5533L93.4199 85.1937ZM51.3157 25.5201V45.2199H93.4252V25.5201H51.3157ZM51.3157 45.7982V64.5324H93.4252V45.7982H51.3157ZM96.6937 14.6512V20.9049L101.838 15.2362C100.133 14.9599 98.4187 14.7627 96.6937 14.6444V14.6512ZM96.6937 45.8049V64.5324H137.65V45.7982L96.6937 45.8049ZM137.501 86.6806L137.645 65.1107H96.6937V97.6891C99.3318 97.8004 101.974 97.7687 104.609 97.5943H104.654C105.913 97.5148 107.166 97.3993 108.412 97.2476H108.441C115.092 96.4701 121.596 94.7271 127.749 92.0731M145.548 48.8831C145.394 48.5188 145.234 48.1572 145.07 47.7997C144.766 47.1226 144.443 46.4644 144.112 45.8063H140.916V64.5324H148.996C148.991 59.2293 147.655 53.8124 145.552 48.8763L145.548 48.8831ZM140.916 65.1174V83.6702C143.192 81.4791 145.115 78.9724 146.5 76.1069C148.165 72.6564 148.927 68.9201 148.989 65.1147L140.916 65.1174ZM140.916 40.3461V45.2213H143.812C142.936 43.543 141.971 41.9133 140.92 40.3393L140.916 40.3461ZM113.14 18.3265C112.927 18.2453 112.714 18.1626 112.499 18.0828C110.238 17.2441 107.928 16.5467 105.581 15.9945L97.709 24.671L97.558 24.8322L97.6591 24.9432H125.675C121.774 22.2457 117.567 20.0223 113.144 18.3197L113.14 18.3265ZM126.497 25.5269H97.2681L96.6937 26.055V45.2199H101.728H101.737H137.656V35.9367C134.406 31.99 130.656 28.488 126.501 25.5201L126.497 25.5269Z" fill="#53B774"/>
<path opacity="0.1" d="M15.5506 35.4575V45.2201H1.90918C1.90918 45.1632 1.91862 45.105 1.92266 45.0481C1.9348 44.8924 1.94693 44.7366 1.96042 44.5822C1.97525 44.4008 1.99143 44.218 2.00896 44.0405C2.02649 43.8631 2.04536 43.6465 2.06559 43.4501C2.08582 43.2538 2.10469 43.0547 2.12762 42.8583C2.15054 42.662 2.17076 42.4656 2.19503 42.2706C2.2193 42.0756 2.24088 41.8779 2.2665 41.6829C2.28672 41.5204 2.3083 41.3592 2.32987 41.1967C2.36088 40.9678 2.39324 40.7376 2.4283 40.5101C2.4283 40.4762 2.43774 40.441 2.44313 40.4085C2.68924 38.7431 3.02457 37.0921 3.44767 35.4629L15.5506 35.4575Z" fill="#53B774"/>
<path opacity="0.1" d="M1.8664 45.7996H15.551V64.5324H2.86824C2.83453 64.7247 2.80217 64.9184 2.76711 65.1121H15.551V80.2197C15.5281 80.2129 15.5078 80.2048 15.4863 80.1967C15.1249 80.0531 14.7662 79.9015 14.4076 79.739L14.1783 79.6347C13.8188 79.4641 13.4592 79.2835 13.0996 79.093C12.9742 79.0266 12.8489 78.9576 12.7248 78.8872C10.7287 77.7641 8.91526 76.3411 7.34751 74.6674C7.30167 74.6227 7.25852 74.5753 7.21267 74.532C6.99424 74.2936 6.77985 74.0526 6.5722 73.8061L6.34298 73.5353C6.09757 73.2333 5.86026 72.9232 5.62969 72.609C5.59598 72.563 5.56362 72.5169 5.52856 72.4736C4.59084 71.1677 3.81223 69.7538 3.20937 68.262C3.19049 68.2173 3.17431 68.1685 3.15679 68.1265C2.97161 67.6481 2.80756 67.1651 2.66463 66.6775C2.60261 66.473 2.54328 66.2713 2.49204 66.0587C2.47316 65.9964 2.45698 65.9354 2.44215 65.8745C1.67628 62.8722 1.58594 59.7534 1.58594 56.6563C1.58594 56.2947 1.58594 55.9318 1.58594 55.5729C1.58594 54.3203 1.60077 53.0595 1.62234 51.8001C1.62234 51.4737 1.63583 51.1487 1.64257 50.821C1.66145 49.9895 1.68841 49.158 1.72347 48.3265C1.73156 48.095 1.74235 47.8647 1.75448 47.6345C1.75448 47.5018 1.76123 47.3691 1.77471 47.2364C1.80707 46.7543 1.83404 46.2762 1.8664 45.7996Z" fill="#53B774"/>
<path opacity="0.1" d="M29.1068 28.341V45.22H18.8174V28.341H20.2844V22.6262H26.3062V28.341H29.1068Z" fill="#53B774"/>
<path opacity="0.1" d="M29.1074 45.7983H18.8193V64.5312H29.1074V45.7983Z" fill="#53B774"/>
<path opacity="0.1" d="M18.8174 65.1121H29.1068V80.6856C27.893 81.0358 26.6562 81.2997 25.4055 81.4751L25.0981 81.513C24.9471 81.5306 24.7974 81.5455 24.6491 81.5604C24.5008 81.5753 24.347 81.5861 24.1974 81.5956H24.1502C24.0855 81.5956 24.0153 81.6037 23.952 81.6051H23.8832C23.8023 81.6051 23.7214 81.6132 23.6405 81.6159C23.5259 81.6227 23.4113 81.624 23.294 81.6254C23.2441 81.6254 23.1969 81.6254 23.147 81.6254C23.031 81.6254 22.9164 81.6254 22.8005 81.6254H22.5456C22.4769 81.6254 22.4108 81.6254 22.3393 81.6254L22.0791 81.6159C21.9442 81.6159 21.7986 81.601 21.6584 81.5915L21.3995 81.5726L21.0772 81.5428C20.8507 81.5225 20.6255 81.4967 20.4031 81.4656L20.1334 81.4277L19.9986 81.4087C19.7734 81.3735 19.5509 81.3356 19.3244 81.2922C19.1585 81.2638 18.994 81.2286 18.8268 81.1947L18.8174 65.1121Z" fill="#53B774"/>
<path opacity="0.1" d="M93.4253 26.3477H84.9414V45.2187H93.4253V26.3477Z" fill="#53B774"/>
<path opacity="0.1" d="M93.4273 45.7983V64.5326H51.3164V56.452H73.7465V61.2188H84.942V45.7983H93.4273Z" fill="#53B774"/>
<path opacity="0.1" d="M93.5608 85.1979H93.4259V97.4874C91.9068 97.3583 90.3921 97.1827 88.8819 96.9606C82.083 95.9609 75.455 94.0185 69.1877 91.189C67.3782 90.371 65.6055 89.4781 63.8697 88.5103C60.9702 86.897 58.1923 85.0725 55.5584 83.0515C54.8968 82.5423 54.2437 82.0214 53.5992 81.4887C53.1529 81.119 52.7093 80.7398 52.2603 80.3715C51.9488 80.1182 51.6346 79.8691 51.3164 79.6307V65.1122H84.8301C84.8072 65.0255 84.7842 64.9388 84.76 64.8535C84.7856 64.9388 84.8099 65.0255 84.8328 65.1122H93.4259V85.1898C93.4718 85.1911 93.5163 85.1952 93.5608 85.1979Z" fill="#53B774"/>
<path opacity="0.1" d="M115.553 24.9419H110.024V23.2166H112.503V18.0774C112.718 18.1559 112.931 18.2367 113.145 18.3198V23.2166H115.553V24.9419Z" fill="#53B774"/>
<path opacity="0.1" d="M128.872 45.2199H101.732C101.732 45.2199 101.732 45.2199 101.741 45.2267L101.729 45.2199H96.6943V26.3489H98.1209V40.2974H104.64V32.0366H110.026V25.5215H115.554V32.042H120.939V40.3028H128.872V45.2199Z" fill="#53B774"/>
<path opacity="0.1" d="M96.6943 45.7983V64.5326H128.872V45.7983H96.6943ZM137.607 86.5846L137.651 71.756H128.872V65.1203H96.6943V97.6892C99.3324 97.8005 101.975 97.7689 104.609 97.5944H104.655C105.914 97.515 107.166 97.3994 108.413 97.2478H108.441C115.093 96.4703 121.597 94.7273 127.75 92.0733" fill="#53B774"/>
<path opacity="0.1" d="M141.488 65.1121H148.995C148.928 68.9161 148.168 72.6523 146.504 76.1029C145.119 78.9698 143.195 81.4764 140.922 83.6662V71.7491H141.488V65.1121Z" fill="#53B774"/>
<path opacity="0.1" d="M148.999 64.5326H141.488V48.8765H145.552C147.656 53.8126 148.992 59.2295 148.999 64.5326Z" fill="#53B774"/>
<path opacity="0.1" d="M93.4272 31.594H88.8818V37.5106H93.4272V31.594Z" fill="#53B774"/>
<path opacity="0.1" d="M93.4272 43.8577H88.8818V45.22H93.4272V43.8577Z" fill="#53B774"/>
<path opacity="0.1" d="M93.4272 45.7983H88.8818V49.773H93.4272V45.7983Z" fill="#53B774"/>
<path opacity="0.1" d="M93.4272 56.1216H88.8818V62.0382H93.4272V56.1216Z" fill="#53B774"/>
<path opacity="0.1" d="M93.4272 68.3853H88.8818V74.3018H93.4272V68.3853Z" fill="#53B774"/>
<path opacity="0.1" d="M93.4258 85.1896C93.4717 85.1896 93.5162 85.1896 93.5607 85.1977H93.4258V86.5723H88.8818V80.6489H93.4258V85.1896Z" fill="#53B774"/>
<path opacity="0.1" d="M93.4258 92.9102V97.4806C91.9067 97.3515 90.392 97.1759 88.8818 96.9538V92.9102H93.4258Z" fill="#53B774"/>
<path opacity="0.1" d="M70.7963 64.0979H51.3164V64.5326H70.7963V64.0979Z" fill="#53B774"/>
<path opacity="0.1" d="M70.7963 65.1108H51.3164V66.7765H70.7963V65.1108Z" fill="#53B774"/>
<path opacity="0.1" d="M70.7963 72.2366H51.3164V74.9152H70.7963V72.2366Z" fill="#53B774"/>
<path opacity="0.1" d="M70.7948 80.3755V83.0541H55.5582C54.8966 82.5467 54.2431 82.0258 53.5977 81.4914C53.1514 81.1217 52.7091 80.7425 52.2588 80.3755H70.7948Z" fill="#53B774"/>
<path opacity="0.1" d="M70.7944 88.5131V91.189H69.1858C67.378 90.3702 65.6058 89.4768 63.8691 88.509L70.7944 88.5131Z" fill="#53B774"/>
<path opacity="0.1" d="M108.445 47.6143H104.61V51.4657H108.445V47.6143Z" fill="#53B774"/>
<path opacity="0.1" d="M25.4158 29.6694H21.5811V33.5208H25.4158V29.6694Z" fill="#53B774"/>
<path opacity="0.1" d="M25.4158 38.6155H21.5811V42.4669H25.4158V38.6155Z" fill="#53B774"/>
<path opacity="0.1" d="M25.4158 47.5615H21.5811V51.4129H25.4158V47.5615Z" fill="#53B774"/>
<path opacity="0.1" d="M25.4158 56.5061H21.5811V60.3575H25.4158V56.5061Z" fill="#53B774"/>
<path opacity="0.1" d="M25.4158 65.4521H21.5811V69.3035H25.4158V65.4521Z" fill="#53B774"/>
<path opacity="0.1" d="M25.4158 74.3979H21.5811V78.2493H25.4158V74.3979Z" fill="#53B774"/>
<path opacity="0.1" d="M123.085 47.6143H119.25V51.4657H123.085V47.6143Z" fill="#53B774"/>
<path opacity="0.1" d="M108.445 57.114H104.61V60.9654H108.445V57.114Z" fill="#53B774"/>
<path opacity="0.1" d="M123.085 57.114H119.25V60.9654H123.085V57.114Z" fill="#53B774"/>
<path opacity="0.1" d="M108.445 66.6125H104.61V70.4639H108.445V66.6125Z" fill="#53B774"/>
<path opacity="0.1" d="M123.085 66.6125H119.25V70.4639H123.085V66.6125Z" fill="#53B774"/>
<path opacity="0.1" d="M108.445 76.1125H104.61V79.9639H108.445V76.1125Z" fill="#53B774"/>
<path opacity="0.1" d="M123.085 76.1125H119.25V79.9639H123.085V76.1125Z" fill="#53B774"/>
<path opacity="0.1" d="M108.445 85.6123H104.61V89.4637H108.445V85.6123Z" fill="#53B774"/>
<path opacity="0.1" d="M123.085 85.6123H119.25V89.4637H123.085V85.6123Z" fill="#53B774"/>
<path opacity="0.1" d="M104.61 97.5945V95.1108H108.444V97.241L104.61 97.5945Z" fill="#53B774"/>
<path opacity="0.1" d="M2.42676 40.4058V42.6091H15.5504V40.4058H2.42676ZM3.73467 42.4709H2.66407V40.5412H3.74276L3.73467 42.4709ZM5.04124 42.4709H3.96255V40.5412H5.04124V42.4709ZM6.34511 42.4709H5.26642V40.5412H6.34511V42.4709ZM7.65168 42.4709H6.57434V40.5412H7.65303L7.65168 42.4709ZM8.9569 42.4709H7.87821V40.5412H8.9569V42.4709ZM10.2635 42.4709H9.18478V40.5412H10.2635V42.4709ZM11.57 42.4709H10.4913V40.5412H11.57V42.4709ZM12.8753 42.4709H11.7966V40.5412H12.8753V42.4709ZM14.1805 42.4709H13.1018V40.5412H14.1805V42.4709ZM15.4857 42.4709H14.407V40.5412H15.4857V42.4709Z" fill="#53B774"/>
<path opacity="0.1" d="M2.42676 46.8167V49.02H15.5504V46.8167H2.42676ZM3.73467 48.8805H2.66407V46.9561H3.74276L3.73467 48.8805ZM5.04124 48.8805H3.96255V46.9561H5.04124V48.8805ZM6.34511 48.8805H5.26642V46.9561H6.34511V48.8805ZM7.65168 48.8805H6.57434V46.9561H7.65303L7.65168 48.8805ZM8.9569 48.8805H7.87821V46.9561H8.9569V48.8805ZM10.2635 48.8805H9.18478V46.9561H10.2635V48.8805ZM11.57 48.8805H10.4913V46.9561H11.57V48.8805ZM12.8753 48.8805H11.7966V46.9561H12.8753V48.8805ZM14.1805 48.8805H13.1018V46.9561H14.1805V48.8805ZM15.4857 48.8805H14.407V46.9561H15.4857V48.8805Z" fill="#53B774"/>
<path opacity="0.1" d="M2.42676 53.2302V55.4376H15.5504V53.2302H2.42676ZM3.73467 55.2941H2.66407V53.3684H3.74276L3.73467 55.2941ZM5.04124 55.2941H3.96255V53.3684H5.04124V55.2941ZM6.34511 55.2941H5.26642V53.3684H6.34511V55.2941ZM7.65168 55.2941H6.57434V53.3684H7.65303L7.65168 55.2941ZM8.9569 55.2941H7.87821V53.3684H8.9569V55.2941ZM10.2635 55.2941H9.18478V53.3684H10.2635V55.2941ZM11.57 55.2941H10.4913V53.3684H11.57V55.2941ZM12.8753 55.2941H11.7966V53.3684H12.8753V55.2941ZM14.1805 55.2941H13.1018V53.3684H14.1805V55.2941ZM15.4857 55.2941H14.407V53.3684H15.4857V55.2941Z" fill="#53B774"/>
<path opacity="0.1" d="M2.42676 59.6438V61.8444H15.5504V59.6438H2.42676ZM3.73467 61.7076H2.66407V59.7806H3.74276L3.73467 61.7076ZM5.04124 61.7076H3.96255V59.7806H5.04124V61.7076ZM6.34511 61.7076H5.26642V59.7806H6.34511V61.7076ZM7.65168 61.7076H6.57434V59.7806H7.65303L7.65168 61.7076ZM8.9569 61.7076H7.87821V59.7806H8.9569V61.7076ZM10.2635 61.7076H9.18478V59.7806H10.2635V61.7076ZM11.57 61.7076H10.4913V59.7806H11.57V61.7076ZM12.8753 61.7076H11.7966V59.7806H12.8753V61.7076ZM14.1805 61.7076H13.1018V59.7806H14.1805V61.7076ZM15.4857 61.7076H14.407V59.7806H15.4857V61.7076Z" fill="#53B774"/>
<path opacity="0.1" d="M2.4834 66.0559C2.53598 66.2631 2.59531 66.4703 2.65734 66.6748V66.194H3.73603V68.1197H3.15893C3.17646 68.1644 3.19399 68.2132 3.21152 68.2552H15.5504V66.0559H2.4834ZM5.0453 68.1197H3.9666V66.194H5.0453V68.1197ZM6.34917 68.1197H5.27047V66.194H6.34917V68.1197ZM7.65573 68.1197H6.57434V66.194H7.65304L7.65573 68.1197ZM8.96095 68.1197H7.88226V66.194H8.96095V68.1197ZM10.2675 68.1197H9.18883V66.194H10.2675V68.1197ZM11.5741 68.1197H10.4954V66.194H11.5741V68.1197ZM12.8793 68.1197H11.8006V66.194H12.8793V68.1197ZM14.1845 68.1197H13.1058V66.194H14.1845V68.1197ZM15.4897 68.1197H14.4111V66.194H15.4897V68.1197Z" fill="#53B774"/>
<path opacity="0.1" d="M5.53125 72.4695C5.56496 72.5128 5.59732 72.5616 5.63238 72.6049H6.34566V73.5298C6.42252 73.6219 6.49803 73.714 6.57623 73.8007V72.5995H7.65493V74.532H7.21806C7.2612 74.5766 7.303 74.624 7.35289 74.6674H15.555V72.4695H5.53125ZM8.95745 74.532H7.87876V72.6076H8.95745V74.532ZM10.264 74.532H9.18533V72.6076H10.264V74.532ZM11.5706 74.532H10.4919V72.6076H11.5706V74.532ZM12.8758 74.532H11.7971V72.6076H12.8758V74.532ZM14.181 74.532H13.1023V72.6076H14.181V74.532ZM15.4862 74.532H14.4076V72.6076H15.4862V74.532Z" fill="#53B774"/>
<path opacity="0.1" d="M12.7295 78.8818C12.8522 78.9523 12.9776 79.0173 13.1043 79.0877V79.02H14.183V79.6294L14.4123 79.7363V79.02H15.491V80.1914C15.5116 80.2017 15.5333 80.2099 15.5557 80.2157V78.8818H12.7295Z" fill="#53B774"/>
<path opacity="0.1" d="M84.7595 64.8522C84.7851 64.9389 84.8067 65.0255 84.831 65.1108C84.8094 65.0255 84.7865 64.9389 84.7595 64.8522ZM20.29 24.938V25.5162H26.3132V24.938H20.29ZM84.7595 64.8522C84.7851 64.9389 84.8067 65.0255 84.831 65.1108C84.8094 65.0255 84.7865 64.9389 84.7595 64.8522ZM84.7595 64.8522C84.7851 64.9389 84.8067 65.0255 84.831 65.1108C84.8094 65.0255 84.7865 64.9389 84.7595 64.8522Z" fill="#53B774"/>
<path d="M62.2411 51.4156C62.2411 51.4156 61.7098 51.3412 61.7098 50.5638C61.7098 49.7865 61.3296 48.3348 61.3296 48.3348C61.3296 48.328 61.0006 45.8065 60.5462 45.4056C60.0918 45.0048 59.508 42.6512 59.508 42.6512C59.508 42.6512 59.4082 41.3741 59.2046 41.0992C59.001 40.8243 58.7259 40.1513 58.3201 39.1911C57.9142 38.231 56.222 37.5661 56.222 37.5661C56.222 37.5661 53.1625 35.7839 52.2955 35.203C52.2167 35.1552 52.1431 35.0994 52.0758 35.0364C51.9247 34.8373 51.2667 34.8333 51.2667 34.8333C51.198 34.3972 51.1319 33.8961 51.1103 33.4425C51.1103 33.3937 51.1103 33.345 51.1036 33.2962C52.0704 32.7223 52.7985 31.8174 53.1545 30.7476C53.1706 30.6961 53.1841 30.642 53.1989 30.5905C53.2569 30.5713 53.3102 30.5402 53.3555 30.4992C53.4007 30.4582 53.437 30.4081 53.4619 30.3522C53.5401 30.1775 53.5414 29.973 53.6385 29.8105C53.7518 29.6182 53.9675 29.5152 54.1374 29.3703C54.5662 29.0047 54.6768 28.3885 54.6565 27.8279C54.6431 27.3742 54.5702 26.9165 54.5986 26.4655L54.6066 26.3518C54.6147 26.2841 54.6242 26.2164 54.6363 26.1514C54.7024 25.8155 54.8467 25.4986 54.9276 25.1655C55.0085 24.8324 55.0165 24.4572 54.8278 24.1702C54.5514 23.749 53.9756 23.665 53.47 23.6217C52.8969 23.5729 52.3845 23.6366 52.0178 23.1586C51.8461 22.9087 51.653 22.6744 51.4407 22.4584C51.3652 22.388 50.6317 21.9384 50.6317 21.9086C49.9158 21.5756 49.1043 21.5131 48.3462 21.7326C47.9659 21.8436 47.6073 22.0251 47.2216 22.1158C46.3897 22.3135 45.4324 22.0996 44.7258 22.5776C44.3321 22.8484 44.0961 23.2791 43.875 23.6989C43.6952 24.0447 43.5127 24.39 43.3276 24.7349C43.0296 25.3023 42.7262 25.8792 42.6008 26.5075C42.5744 26.6443 42.5582 26.7828 42.5522 26.9219V26.9287C42.5522 26.9788 42.5522 27.0289 42.5522 27.079V27.1427C42.5522 27.1901 42.5522 27.2361 42.5603 27.2781C42.5684 27.3201 42.5671 27.3336 42.5711 27.362C42.5752 27.3905 42.5819 27.4541 42.59 27.4975C42.5981 27.5408 42.6143 27.6166 42.6304 27.6762C42.6372 27.7019 42.6466 27.7263 42.6547 27.7507C42.6682 27.7967 42.6844 27.8414 42.7019 27.8861C42.7113 27.9091 42.7208 27.9335 42.7316 27.9565C42.7518 28.0039 42.7761 28.05 42.8003 28.092C42.8111 28.1109 42.8192 28.1285 42.83 28.1461C42.8676 28.2091 42.909 28.2697 42.9541 28.3276C43.2426 28.6892 43.6673 28.9194 43.9815 29.2579C43.9815 29.2715 43.9815 29.285 43.9815 29.2972C43.9815 29.3351 43.9815 29.3717 43.9815 29.4096C43.9982 30.1647 44.1983 30.9042 44.5644 31.5639C44.9305 32.2235 45.4516 32.7834 46.0823 33.1947C46.0823 33.2461 46.089 33.2989 46.0917 33.3504C46.118 33.7524 46.113 34.1558 46.0769 34.557C46.022 34.492 45.9532 34.4403 45.8758 34.4056C45.7983 34.3709 45.714 34.3542 45.6292 34.3566C45.5713 34.3537 45.5132 34.3587 45.4566 34.3715L45.4445 34.362V34.3742C45.1478 34.4473 44.7824 34.7574 44.4332 35.639C44.4332 35.639 43.3707 36.8416 42.5617 36.7915C41.7527 36.7414 39.7045 38.0428 39.7045 38.0428C39.7045 38.0428 37.7062 39.3455 37.2774 40.6726C37.0378 41.4252 36.7504 42.1616 36.4172 42.8773L33.947 47.9895L33.4912 52.0454C33.4912 52.0454 33.7434 53.8492 33.6935 54.1241C33.6436 54.399 34.7304 56.8786 34.7304 56.8786C34.7304 56.8786 38.3211 63.2149 39.7881 63.54L39.8933 63.4655C39.956 63.4984 40.0226 63.5234 40.0915 63.54L40.3935 63.326C40.4116 63.5645 40.404 63.8042 40.3706 64.041C40.1683 64.6667 40.4461 68.7496 40.7994 69.55C41.1526 70.3503 41.0272 80.8441 41.0272 80.8441L40.9773 81.7704C40.9773 81.7704 40.9773 81.8002 40.9895 81.8517L40.9773 82.0711L41.0138 82.09C41.0516 82.3838 41.0392 82.682 40.9773 82.9716C40.8506 83.3779 40.7994 84.5263 40.7994 84.5263C40.7994 84.5263 39.7894 91.0103 40.2681 92.313C40.7468 93.6158 41.154 95.0431 41.154 95.0431C41.154 95.0431 41.6596 96.6682 41.1783 96.9458C40.6969 97.2234 39.3283 97.6893 39.6101 98.3664C39.8663 98.992 40.8385 100.669 40.9827 100.914L40.9706 101.042L40.7724 103.2C40.8045 103.484 40.8814 103.762 41.0003 104.023C41.2174 104.493 41.6394 104.98 42.4417 104.928C42.5765 104.918 42.7329 104.902 42.8839 104.882C44.3523 104.684 46.1605 104.026 46.1605 104.026C46.0666 103.966 45.9805 103.894 45.9043 103.813C45.8321 103.743 45.7749 103.659 45.7362 103.565C45.6975 103.472 45.6781 103.372 45.6791 103.271C45.7007 102.879 44.9685 101.007 44.7865 100.547C44.7582 100.48 44.7433 100.442 44.7433 100.442C44.7433 100.442 46.4126 98.69 46.1349 97.1367C46.1349 97.1367 44.2876 96.0534 44.8957 95.4589C45.5038 94.8644 46.5906 93.1567 46.5906 93.1567C46.5906 93.1567 46.6405 86.7716 46.5906 85.8182C46.5386 85.1565 46.5698 84.4908 46.6836 83.837C46.7039 83.7381 46.7281 83.642 46.7538 83.5472C47.5948 83.6732 48.4438 83.738 49.2941 83.7408C49.6042 83.7408 49.9197 83.7408 50.2379 83.7219C50.2379 83.8121 50.242 83.9096 50.2501 84.0144C50.3202 85.5961 50.451 88.3695 50.5575 89.4001C50.7085 90.8775 51.5432 94.8589 51.5432 94.8589C51.5432 94.8589 49.9507 95.8854 51.8209 98.4151C51.8209 98.4151 51.8209 99.3319 51.6969 99.4646C51.5644 99.8985 51.4577 100.34 51.3773 100.786C51.2991 101.263 51.2667 101.745 51.3935 101.996C51.6969 102.594 53.5172 102.545 53.5172 102.545L53.5617 102.537C53.9053 102.502 54.2526 102.535 54.5834 102.635C54.9141 102.735 55.2218 102.9 55.4885 103.121C56.1802 103.679 58.8055 103.434 60.2266 103.256C60.7835 103.186 61.1557 103.121 61.1557 103.121C61.1737 103.058 61.1801 102.992 61.1745 102.926C61.1597 102.575 60.886 101.806 59.0306 101.119C59.0306 101.119 57.2859 99.9413 57.3101 98.9148H57.2737H57.0715C57.2184 98.9067 57.3128 98.9148 57.3128 98.9148C57.3128 98.9148 56.6292 96.4095 56.9083 96.2064C57.1874 96.0033 56.3514 93.2271 56.3514 93.2271C56.3514 93.2271 55.8728 88.5686 55.8471 88.2422C55.8482 87.9622 55.8905 87.6838 55.9725 87.4162L55.8471 84.8621C55.8471 84.8621 55.8229 84.013 55.8471 83.7367C55.8431 83.497 55.8237 83.2577 55.7892 83.0204C55.777 82.9256 55.7649 82.8267 55.7514 82.7292C56.4054 82.5626 56.8301 82.4083 56.8301 82.4083L56.7546 73.5178C57.3101 72.4345 57.4126 70.0578 57.4099 68.3718C57.4099 67.2884 57.3614 66.4867 57.3614 66.4867L58.1205 65.2422C58.1205 65.2422 58.2958 63.7526 58.018 63.4262C57.8953 63.2786 57.9506 63.1256 58.0517 62.9996C58.1042 62.9578 58.1597 62.9198 58.2176 62.8859C58.2176 62.8859 58.2095 62.8737 58.2 62.8561C58.2531 62.8116 58.3094 62.7713 58.3686 62.7355C58.3686 62.7355 58.0989 62.3157 58.3403 62.1383C58.5668 62.2927 58.7691 62.4092 58.9228 62.504C58.912 62.6028 58.9012 62.6597 58.9012 62.6597L58.9659 62.5243C59.1142 62.6083 59.2046 62.6597 59.2046 62.6597C59.2046 62.6597 60.3938 60.2804 60.3682 59.9296C60.3426 59.5789 61.1772 58.1014 61.1772 58.1014C61.1772 58.1014 61.2784 57.3255 61.7341 57.0004C62.1899 56.6754 62.0874 54.3204 62.0874 54.3204C62.0874 54.3204 62.2141 53.0935 62.5175 52.5925C62.8209 52.0914 62.2411 51.4156 62.2411 51.4156ZM39.4861 50.3715L39.509 50.939C39.3741 50.7209 39.2771 50.5638 39.2771 50.5638L39.4861 50.3715Z" fill="url(#paint0_linear_192_162)"/>
<path d="M59.2687 61.6318L58.9775 62.8777C58.9775 62.8777 56.6448 61.6819 56.2241 60.1625C55.8034 58.6431 56.9279 58.0662 56.9279 58.0662L59.1015 58.9911L59.2687 61.6318Z" fill="white"/>
<path opacity="0.1" d="M59.2687 61.6318L58.9775 62.8777C58.9775 62.8777 56.6448 61.6819 56.2241 60.1625C55.8034 58.6431 56.9279 58.0662 56.9279 58.0662L59.1015 58.9911L59.2687 61.6318Z" fill="black"/>
<path d="M46.1779 104.034C46.1779 104.034 44.0205 104.83 42.5373 104.93C41.7499 104.983 41.3359 104.498 41.1229 104.031C41.0065 103.771 40.9314 103.495 40.9004 103.212L41.0932 101.065L41.1957 99.9224L44.3468 99.1003L44.7931 100.471L44.8349 100.575C45.0143 101.033 45.7329 102.895 45.7114 103.284C45.7105 103.383 45.7296 103.482 45.7676 103.574C45.8056 103.666 45.8617 103.749 45.9325 103.818C46.0048 103.9 46.0873 103.973 46.1779 104.034Z" fill="white"/>
<path d="M60.9141 102.942C60.9195 103.007 60.9131 103.073 60.8952 103.136C60.8952 103.136 56.2811 103.909 55.3373 103.136C55.0712 102.91 54.761 102.742 54.4266 102.644C54.0922 102.546 53.741 102.518 53.3956 102.564C53.3956 102.564 51.6104 102.613 51.3124 102.023C51.1883 101.775 51.2207 101.294 51.2976 100.82C51.376 100.376 51.4804 99.9369 51.6104 99.5051L51.6818 99.4482L52.1066 99.1056L57.0794 98.958H57.1171C57.0928 99.9791 58.8053 101.15 58.8053 101.15C60.6242 101.828 60.8925 102.593 60.9141 102.942Z" fill="white"/>
<path opacity="0.1" d="M60.9134 102.942C60.9181 103.007 60.9113 103.073 60.8932 103.136C60.8932 103.136 56.2804 103.909 55.3366 103.136C55.0706 102.91 54.7606 102.743 54.4265 102.644C54.0924 102.546 53.7415 102.519 53.3963 102.564C53.3963 102.564 51.6097 102.613 51.313 102.023C51.189 101.773 51.22 101.294 51.2968 100.82C51.9845 100.889 53.0699 101.061 53.496 101.471C54.1406 102.096 55.2327 102.719 55.9029 102.767C56.4274 102.801 59.565 102.901 60.9134 102.942Z" fill="black"/>
<path opacity="0.1" d="M46.1777 104.034C46.1777 104.034 44.0203 104.83 42.5371 104.93C41.7497 104.983 41.3357 104.498 41.124 104.03C41.6728 104.215 42.4346 104.41 42.8351 104.231C43.3097 104.02 44.9925 103.883 45.9363 103.825C46.0082 103.904 46.0892 103.974 46.1777 104.034Z" fill="black"/>
<path d="M49.379 39.8641C47.5992 39.1694 45.3097 36.874 45.8814 35.8014C46.0083 35.5308 46.0838 35.2387 46.1038 34.9401C46.1406 34.5349 46.146 34.1274 46.12 33.7213C46.0799 33.0563 46.0002 32.3943 45.8814 31.7388C45.8814 31.7388 51.438 31.8647 51.1144 32.6867C51.02 32.9278 51.0052 33.3462 51.0308 33.8148C51.0564 34.2833 51.1238 34.8128 51.1939 35.2611C51.291 35.8759 51.3881 36.3445 51.3881 36.3445C51.3881 36.3445 51.0483 36.8225 50.8488 36.8482C50.6492 36.874 51.9328 40.854 49.379 39.8641Z" fill="#CF6F80"/>
<path opacity="0.1" d="M44.8306 100.575L44.7888 100.621C43.1276 98.6033 41.1185 101.118 41.1185 101.118L41.0889 101.065L41.1913 99.9224L44.3425 99.1003L44.7888 100.471L44.8306 100.575Z" fill="black"/>
<path opacity="0.1" d="M57.1179 99.1002C57.1179 99.1002 55.9043 99.0745 55.2571 99.6487C54.6099 100.223 51.4817 99.7733 51.6165 99.6487C51.6565 99.587 51.6806 99.5162 51.6867 99.4429L52.1114 99.1002L57.0842 98.9526C57.103 99.0434 57.1179 99.1002 57.1179 99.1002Z" fill="black"/>
<path d="M46.898 83.2547C46.8076 83.4791 46.739 83.7117 46.693 83.9494C46.5806 84.6002 46.5493 85.2625 46.6 85.9211C46.6499 86.8691 46.6 93.2217 46.6 93.2217C46.6 93.2217 45.5334 94.9158 44.9388 95.513C44.3442 96.1102 46.1523 97.1828 46.1523 97.1828C46.422 98.7266 44.7878 100.471 44.7878 100.471C43.1266 98.453 41.1175 100.969 41.1175 100.969C41.1175 100.969 40.0254 99.0733 39.753 98.3962C39.4806 97.7191 40.8196 97.2505 41.2901 96.9756C41.7607 96.7007 41.2672 95.0797 41.2672 95.0797C41.2672 95.0797 40.8694 93.6591 40.3975 92.3631C39.9256 91.0671 40.918 84.6157 40.918 84.6157C40.918 84.6157 40.9692 83.47 41.0919 83.0705C41.1538 82.7822 41.1661 82.4854 41.1283 82.193C41.1202 82.0941 41.1108 82.0115 41.1041 81.956C41.0973 81.9004 41.0919 81.8747 41.0919 81.8747L41.1108 81.8422L41.785 80.5801C41.785 80.5801 47.2216 82.4597 46.898 83.2547Z" fill="#1D2366"/>
<path d="M57.1182 98.9512C57.1182 98.9512 55.9047 98.9255 55.2575 99.4929C54.6103 100.06 51.4821 99.6175 51.6169 99.4929C51.7517 99.3683 51.741 98.4461 51.741 98.4461C49.9058 95.9299 51.4713 94.9088 51.4713 94.9088C51.4713 94.9088 50.6515 90.9478 50.5032 89.4784C50.3993 88.4519 50.2712 85.6934 50.2025 84.1184C50.1728 83.4413 50.1553 82.9755 50.1553 82.9755L51.6547 82.6721L51.8475 82.6329L55.4638 81.9043C55.4638 81.9043 55.5636 82.5814 55.631 83.1353C55.6646 83.3718 55.6835 83.6101 55.6876 83.849C55.6634 84.1198 55.6876 84.9675 55.6876 84.9675L55.8103 87.5094C55.7302 87.776 55.6888 88.0529 55.6876 88.3314C55.7119 88.6551 56.1825 93.2892 56.1825 93.2892C56.1825 93.2892 57.0009 96.0545 56.7218 96.2536C56.4427 96.4527 57.1182 98.9512 57.1182 98.9512Z" fill="#1D2366"/>
<path opacity="0.1" d="M51.1139 32.6867C51.0195 32.9278 51.0047 33.3462 51.0303 33.8148C50.286 34.2649 49.4304 34.4951 48.5617 34.4788C47.693 34.4625 46.8466 34.2004 46.1195 33.7227C46.0795 33.0572 45.9998 32.3947 45.8809 31.7388C45.8809 31.7388 51.4375 31.862 51.1139 32.6867Z" fill="black"/>
<path d="M53.2623 29.6938C53.2634 30.1818 53.1869 30.6669 53.0358 31.1306C52.698 32.1698 52.0053 33.0556 51.0801 33.6314C50.1549 34.2073 49.0568 34.4361 47.9799 34.2774C46.903 34.1188 45.9166 33.5829 45.195 32.7644C44.4735 31.946 44.0632 30.8977 44.0368 29.8049C44.0368 29.7669 44.0368 29.7317 44.0368 29.6938C44.0263 29.0787 44.1379 28.4676 44.3651 27.8962C44.5922 27.3249 44.9304 26.8046 45.3598 26.3659C45.7892 25.9272 46.3014 25.5787 46.8663 25.3408C47.4312 25.103 48.0377 24.9805 48.6502 24.9805C49.2628 24.9805 49.8693 25.103 50.4342 25.3408C50.9991 25.5787 51.5113 25.9272 51.9407 26.3659C52.3701 26.8046 52.7083 27.3249 52.9354 27.8962C53.1626 28.4676 53.2742 29.0787 53.2637 29.6938H53.2623Z" fill="#CF6F80"/>
<path opacity="0.1" d="M49.379 39.8641C47.5992 39.1694 45.3097 36.874 45.8814 35.8015C46.0083 35.5308 46.0838 35.2387 46.1038 34.9402L48.5403 36.9512L50.0478 38.193L51.1939 35.2625C51.291 35.8773 51.3881 36.3459 51.3881 36.3459C51.3881 36.3459 51.0483 36.8239 50.8488 36.8496C50.6492 36.8754 51.9328 40.8541 49.379 39.8641Z" fill="black"/>
<path d="M55.6797 48.7518L53.645 83.0812L50.9914 83.2559L44.1201 63.3503L45.2474 39.7179L45.4847 34.7249L48.5401 37.2451L50.0489 38.4869L51.2287 35.471L53.4225 37.3913L55.6797 48.7518Z" fill="#1D2366"/>
<path opacity="0.1" d="M46.8975 83.2546C46.8071 83.479 46.7385 83.7116 46.6925 83.9493C44.7617 83.6499 42.8864 83.0615 41.1292 82.2037L41.0928 82.1847L41.1049 81.9667L41.1117 81.853L41.7858 80.5908C41.7858 80.5908 47.2211 82.4596 46.8975 83.2546Z" fill="black"/>
<path opacity="0.1" d="M51.6859 83.9546C51.1923 84.0389 50.6945 84.0959 50.1947 84.1253C50.165 83.4482 50.1475 82.9823 50.1475 82.9823L51.6468 82.679L51.6859 83.9546Z" fill="black"/>
<path opacity="0.1" d="M55.6224 83.1421C54.6637 83.3927 53.1832 83.6743 51.8577 83.4983L51.8389 82.6397L55.4552 81.9111C55.4552 81.9111 55.555 82.5815 55.6224 83.1421Z" fill="black"/>
<path opacity="0.1" d="M51.8335 83.6553C46.3052 84.6033 41.2421 81.8854 41.2421 81.8854L41.2906 80.9645C41.2906 80.9645 41.416 70.5249 41.0682 69.7245C40.7203 68.9242 40.4493 64.8656 40.6461 64.2426C40.843 63.6197 39.9274 54.2783 39.9274 54.2783L39.7791 50.4865L34.3506 48.2778L36.7776 43.1968C37.1055 42.4844 37.3874 41.7516 37.6217 41.0029C38.0438 39.6839 40.0029 38.3879 40.0029 38.3879C40.0029 38.3879 42.012 37.0933 42.8062 37.142C43.6004 37.1908 44.6413 35.9964 44.6413 35.9964C45.4099 34.0287 46.1057 34.9198 46.1057 34.9198C46.1057 35.0132 46.1057 34.9198 46.0679 35.2109C45.7982 37.3709 50.4285 44.1962 50.4946 44.3167L50.9355 55.1044L51.3818 68.7562L51.8335 83.6553Z" fill="black"/>
<path d="M51.6852 83.6554C46.1569 84.6034 41.0924 81.8855 41.0924 81.8855L41.1423 80.9646C41.1423 80.9646 41.2677 70.5249 40.9185 69.7246C40.5693 68.9242 40.2996 64.8657 40.4978 64.2427C40.696 63.6198 39.7791 54.2784 39.7791 54.2784L39.6295 50.4866L34.1982 48.2697L36.6253 43.1887C36.9524 42.476 37.2343 41.7433 37.4694 40.9949C37.8901 39.6759 39.8506 38.3799 39.8506 38.3799C39.8506 38.3799 41.8597 37.0852 42.6525 37.134C43.4453 37.1827 44.4876 35.9883 44.4876 35.9883C45.2576 34.0206 46.1057 34.9117 46.1057 34.9117C46.1057 35.0052 46.0248 35.0471 46.0679 35.2029C46.6612 37.2978 50.2802 44.1881 50.3463 44.3086L50.7926 55.0963L51.2389 68.7482L51.6852 83.6554Z" fill="white"/>
<path opacity="0.1" d="M50.1953 44.6161C49.6007 44.3669 46.4509 40.7552 46.4509 40.7552V39.9332C46.3363 39.6624 45.6554 39.8276 45.1025 40.0172L45.3399 35.0242L45.6095 35.249C46.2001 37.3426 50.1266 44.4956 50.1953 44.6161Z" fill="black"/>
<path d="M50.3451 44.3168C49.7491 44.0676 46.5993 40.4559 46.5993 40.4559V39.6339C46.4847 39.363 45.8038 39.5283 45.251 39.7179L45.4896 34.7249L45.7593 34.9497C46.3512 37.0433 50.279 44.1976 50.3451 44.3168Z" fill="white"/>
<path opacity="0.1" d="M41.2428 62.3293C41.317 62.3293 45.087 61.9312 45.087 61.9312C45.087 61.9312 47.3698 66.4393 47.2202 67.5363C47.0705 68.6332 46.7995 69.6041 45.8812 69.4322C44.963 69.2602 40.9395 69.5676 40.9395 69.5676L41.2428 62.3293Z" fill="black"/>
<path d="M41.0924 62.03C41.1666 62.03 44.9366 61.6318 44.9366 61.6318C44.9366 61.6318 47.2181 66.1414 47.0698 67.2369C46.9214 68.3325 46.6477 69.3048 45.7308 69.1328C44.8139 68.9609 40.7891 69.2683 40.7891 69.2683L41.0924 62.03Z" fill="white"/>
<path d="M43.9337 59.9133C43.9337 59.9133 47.3936 61.7808 47.4678 62.3509C47.542 62.921 45.7068 62.1017 45.3104 62.0029C45.0495 61.9397 44.7839 61.8981 44.5162 61.8783L41.8721 61.9501L43.9337 59.9133Z" fill="#CF6F80"/>
<path opacity="0.1" d="M49.2303 44.849C49.4313 44.849 49.5943 44.6853 49.5943 44.4833C49.5943 44.2814 49.4313 44.1177 49.2303 44.1177C49.0292 44.1177 48.8662 44.2814 48.8662 44.4833C48.8662 44.6853 49.0292 44.849 49.2303 44.849Z" fill="black"/>
<path d="M49.2303 44.7C49.4313 44.7 49.5943 44.5363 49.5943 44.3344C49.5943 44.1325 49.4313 43.9688 49.2303 43.9688C49.0292 43.9688 48.8662 44.1325 48.8662 44.3344C48.8662 44.5363 49.0292 44.7 49.2303 44.7Z" fill="#3F3D56"/>
<path opacity="0.1" d="M49.9002 60.6771C50.1013 60.6771 50.2643 60.5134 50.2643 60.3114C50.2643 60.1095 50.1013 59.9458 49.9002 59.9458C49.6991 59.9458 49.5361 60.1095 49.5361 60.3114C49.5361 60.5134 49.6991 60.6771 49.9002 60.6771Z" fill="black"/>
<path d="M49.9002 60.5267C50.1013 60.5267 50.2643 60.363 50.2643 60.1611C50.2643 59.9591 50.1013 59.7954 49.9002 59.7954C49.6991 59.7954 49.5361 59.9591 49.5361 60.1611C49.5361 60.363 49.6991 60.5267 49.9002 60.5267Z" fill="#3F3D56"/>
<path opacity="0.1" d="M49.5926 52.763C49.7936 52.763 49.9566 52.5993 49.9566 52.3974C49.9566 52.1954 49.7936 52.0317 49.5926 52.0317C49.3915 52.0317 49.2285 52.1954 49.2285 52.3974C49.2285 52.5993 49.3915 52.763 49.5926 52.763Z" fill="black"/>
<path d="M49.5926 52.6141C49.7936 52.6141 49.9566 52.4504 49.9566 52.2485C49.9566 52.0465 49.7936 51.8828 49.5926 51.8828C49.3915 51.8828 49.2285 52.0465 49.2285 52.2485C49.2285 52.4504 49.3915 52.6141 49.5926 52.6141Z" fill="#3F3D56"/>
<path d="M57.9855 61.8023C57.9855 61.8023 58.2336 62.1761 57.9855 62.3508C57.7374 62.5254 58.0097 62.948 58.0097 62.948C58.0097 62.948 57.3908 63.3123 57.6632 63.64C57.9356 63.9677 57.763 65.4478 57.763 65.4478L57.0187 66.6856C57.0187 66.6856 57.0632 67.4832 57.0659 68.5612C57.0659 70.2431 56.9674 72.6076 56.4227 73.6856L56.4982 82.5299C56.4982 82.5299 53.8918 83.486 51.7102 83.1949L51.3865 69.0027C51.3865 69.0027 51.8585 60.9546 52.0324 59.4107C52.1342 58.6093 52.1757 57.8012 52.1565 56.9935C52.1565 56.9935 52.0823 54.5775 51.8329 53.4563C51.8329 53.4563 51.5632 48.5987 51.5362 47.2539C51.5241 46.6107 51.5578 44.7337 51.5955 42.9489C51.6373 40.9975 51.6845 39.1571 51.6845 39.1571L51.1924 35.2461C51.1924 35.2461 51.6845 35.196 51.8329 35.3951C51.8993 35.4574 51.9715 35.5132 52.0486 35.5616C52.8981 36.1385 55.8995 37.9126 55.8995 37.9126C55.8995 37.9126 57.5607 38.5761 57.9585 39.5268C58.3563 40.4774 58.6327 41.1518 58.8255 41.4227C59.0183 41.6935 59.1235 42.9665 59.1235 42.9665C59.1235 42.9665 59.6952 45.3093 60.1415 45.7061C60.5878 46.1029 60.9141 48.6271 60.9141 48.6271L56.9701 51.7418C56.9701 51.7418 56.6236 56.9231 56.5494 57.1235C56.4753 57.3239 57.9855 61.8023 57.9855 61.8023Z" fill="white"/>
<path d="M58.1348 61.8025C58.1348 61.8025 58.3816 62.1762 58.1348 62.3509C57.8881 62.5256 58.1577 62.9481 58.1577 62.9481C58.1577 62.9481 57.5429 63.3165 57.8125 63.6442C58.0822 63.9719 57.9123 65.4521 57.9123 65.4521L57.168 66.6898C57.168 66.6898 57.2125 67.4875 57.2166 68.5654C57.2166 70.2474 57.1181 72.6118 56.5734 73.6898L56.6475 82.5342C56.6475 82.5342 54.0371 83.4903 51.8582 83.1991L51.5359 69.0069C51.5359 69.0069 52.0078 60.9588 52.1818 59.415C52.2837 58.6135 52.3247 57.8054 52.3045 56.9977C52.3045 56.9977 52.2303 54.5818 51.9822 53.4605C51.9822 53.4605 51.7125 48.6029 51.6842 47.2582C51.6721 46.6149 51.7071 44.738 51.7435 42.9531C51.7853 41.0017 51.8325 39.1613 51.8325 39.1613L51.1826 35.1975C51.1826 35.1975 51.8325 35.1975 51.9822 35.3993C52.048 35.4624 52.1203 35.5182 52.1979 35.5659C53.0474 36.1428 56.0502 37.9168 56.0502 37.9168C56.0502 37.9168 57.7101 38.5803 58.1078 39.531C58.5056 40.4817 58.782 41.1561 58.9762 41.4269C59.1703 41.6978 59.2728 42.9707 59.2728 42.9707C59.2728 42.9707 59.8445 45.3135 60.2908 45.7103C60.7372 46.1071 61.0594 48.6259 61.0594 48.6259L57.1154 51.7406C57.1154 51.7406 56.7689 56.9219 56.6934 57.1223C56.6179 57.3227 58.1348 61.8025 58.1348 61.8025Z" fill="white"/>
<path opacity="0.1" d="M53.4112 40.3111L53.7672 41.3538L51.893 43.2497C51.9348 41.2997 51.9819 39.4579 51.9819 39.4579L51.332 35.4941C51.332 35.4941 51.9819 35.4941 52.1316 35.6959C52.1972 35.7588 52.2696 35.8142 52.3474 35.8611L53.9411 40.479L53.4112 40.3111Z" fill="black"/>
<path d="M53.2618 40.0118L53.6191 41.0545L51.7449 42.9504C51.7867 40.999 51.8339 39.1586 51.8339 39.1586L51.1826 35.1948C51.1826 35.1948 51.8339 35.1948 51.9822 35.3966C52.0483 35.4593 52.1206 35.5151 52.1979 35.5632L53.7931 40.1797L53.2618 40.0118Z" fill="white"/>
<path opacity="0.1" d="M53.2623 29.6938C53.2634 30.1818 53.1869 30.6669 53.0358 31.1306C53.0103 31.1346 52.9843 31.1335 52.9593 31.1272C52.9343 31.1209 52.9108 31.1096 52.8902 31.0941C52.8551 29.8753 52.2578 28.731 51.5229 27.7573C51.3166 27.4633 51.0665 27.203 50.7813 26.9854C50.493 26.7679 50.1345 26.666 49.7755 26.6996C49.371 26.7552 49.0136 27.0314 48.6051 27.0666C48.0657 27.1113 47.583 26.7362 47.0477 26.7172C46.8301 26.7193 46.6154 26.768 46.418 26.86C46.2206 26.952 46.045 27.0852 45.903 27.2508C45.6217 27.5849 45.4128 27.9742 45.2894 28.3938C45.0774 29.03 44.962 29.6947 44.947 30.3655C44.9402 30.7447 44.9038 31.22 44.5532 31.3581C44.5796 31.0793 44.5481 30.798 44.4606 30.532C44.3731 30.266 44.2315 30.0212 44.0449 29.813L44.0368 29.8049C44.0368 29.7669 44.0368 29.7317 44.0368 29.6938C44.0263 29.0787 44.1379 28.4676 44.3651 27.8962C44.5922 27.3249 44.9304 26.8046 45.3598 26.3659C45.7892 25.9272 46.3014 25.5787 46.8663 25.3408C47.4312 25.103 48.0377 24.9805 48.6502 24.9805C49.2628 24.9805 49.8693 25.103 50.4342 25.3408C50.9991 25.5787 51.5113 25.9272 51.9407 26.3659C52.3701 26.8046 52.7083 27.3249 52.9354 27.8962C53.1626 28.4676 53.2742 29.0787 53.2637 29.6938H53.2623Z" fill="black"/>
<path d="M50.5596 22.3364C49.8589 22.0054 49.062 21.9428 48.3186 22.1604C47.9451 22.2714 47.5932 22.4515 47.2143 22.5423C46.4053 22.7386 45.4614 22.526 44.767 23.0013C44.3814 23.2722 44.1495 23.7001 43.9337 24.1159L43.3944 25.1478C43.1004 25.7125 42.8038 26.2867 42.6811 26.9083C42.5584 27.5298 42.6325 28.2259 43.0249 28.7256C43.3108 29.0899 43.7328 29.3188 44.0429 29.6614C44.2287 29.8698 44.3697 30.1145 44.4569 30.3801C44.5441 30.6458 44.5758 30.9267 44.5499 31.2052C44.9018 31.0698 44.9356 30.5931 44.9436 30.2139C44.9587 29.5431 45.0741 28.8784 45.2861 28.2422C45.4092 27.8224 45.6182 27.4332 45.8996 27.0992C46.0418 26.9338 46.2174 26.8006 46.4148 26.7086C46.6122 26.6166 46.8268 26.5679 47.0444 26.5656C47.5838 26.5846 48.0678 26.9584 48.6018 26.9137C49.0063 26.8798 49.3649 26.6022 49.7721 26.548C50.1312 26.5139 50.49 26.6158 50.778 26.8338C51.0631 27.051 51.3128 27.3114 51.5183 27.6057C52.2545 28.5794 52.8518 29.721 52.8869 30.9425C53.0392 31.0549 53.259 30.9086 53.3345 30.7353C53.41 30.5619 53.4127 30.3588 53.5085 30.1936C53.619 30.0026 53.8307 29.9011 53.9966 29.7575C54.4173 29.3932 54.5224 28.7798 54.5063 28.2232C54.4901 27.6666 54.3822 27.1019 54.4874 26.5548C54.5508 26.219 54.6937 25.9048 54.7719 25.573C54.8501 25.2412 54.8595 24.8688 54.6748 24.5831C54.4051 24.1633 53.8375 24.0807 53.3426 24.0414C52.7804 23.9926 52.2774 24.0549 51.9188 23.5796C51.7504 23.3316 51.5609 23.0987 51.3524 22.8835C51.281 22.8131 50.5596 22.3662 50.5596 22.3364Z" fill="#512E4E"/>
<path opacity="0.1" d="M35.9042 50.8942L34.4951 48.2778L34.0488 52.3148C34.0488 52.3148 34.2969 54.1077 34.247 54.3826C34.1971 54.6575 35.2637 57.1222 35.2637 57.1222C35.2637 57.1222 38.787 63.4248 40.2257 63.7498L45.0866 60.2613L43.7975 58.6173C43.7975 58.6173 43.3512 58.4426 43.2393 58.6173C43.2393 58.6173 40.8459 54.4815 40.5978 54.1822C40.3497 53.8829 40.3983 53.2857 40.3983 53.2857C40.3983 53.2857 40.0261 52.8876 40.1502 52.5138C40.2742 52.1401 39.4315 50.8441 39.4315 50.8441L40.2001 50.1223L35.9042 50.8942Z" fill="black"/>
<path d="M34.5694 47.98L34.1973 48.2779L33.751 52.3148C33.751 52.3148 33.9991 54.1078 33.9492 54.3827C33.8993 54.6576 34.9672 57.1223 34.9672 57.1223C34.9672 57.1223 38.4891 63.4248 39.9278 63.7498L44.7901 60.2614L43.4997 58.6174C43.4997 58.6174 43.0534 58.4427 42.9414 58.6174C42.9414 58.6174 40.5481 54.4816 40.3 54.1823C40.0519 53.883 40.1018 53.2858 40.1018 53.2858C40.1018 53.2858 39.7296 52.8877 39.8537 52.5139C39.9777 52.1401 39.1337 50.8441 39.1337 50.8441L39.9022 50.1224L34.5694 47.98Z" fill="white"/>
<path opacity="0.1" d="M57.6627 63.7944C57.9323 64.1235 57.7624 65.601 57.7624 65.601L57.0181 66.8387C57.0181 66.8387 57.0626 67.6377 57.0653 68.7143L55.814 69.107C55.701 69.1425 55.5811 69.1503 55.4644 69.1298C55.3477 69.1092 55.2376 69.061 55.1432 68.989C55.0489 68.9171 54.973 68.8235 54.922 68.7161C54.871 68.6087 54.8463 68.4906 54.85 68.3717L55.0657 61.3826L57.9849 62.5039C57.7368 62.6772 58.0092 63.1024 58.0092 63.1024C58.0092 63.1024 57.3903 63.4654 57.6627 63.7944Z" fill="black"/>
<path d="M57.8124 63.6441C58.0821 63.9732 57.9122 65.452 57.9122 65.452L57.1679 66.6898C57.1679 66.6898 57.2124 67.4874 57.2164 68.5654L55.9422 68.9649C55.8315 68.9994 55.7141 69.0069 55.5999 68.9867C55.4857 68.9665 55.3779 68.9192 55.2856 68.8488C55.1933 68.7783 55.119 68.6867 55.0691 68.5815C55.0191 68.4764 54.9949 68.3609 54.9984 68.2444L55.2155 61.2336L58.136 62.3549C57.8866 62.5283 58.159 62.9521 58.159 62.9521C58.159 62.9521 57.5427 63.3164 57.8124 63.6441Z" fill="white"/>
<path d="M58.7797 60.3129C58.7797 60.3129 58.5815 61.5845 58.0853 61.6589C57.5891 61.7334 57.3666 63.716 56.8718 63.6456C56.3769 63.5752 56.7046 61.8025 56.7221 61.4585C56.7396 61.1146 56.1828 59.6899 56.5994 59.3663C57.016 59.0426 58.3347 59.3663 58.3347 59.3663L58.7797 60.3129Z" fill="#CF6F80"/>
<path opacity="0.1" d="M59.8348 50.5204L60.7706 48.6245C60.7706 48.6245 61.1427 50.0695 61.1427 50.8414C61.1427 51.6133 61.6632 51.6891 61.6632 51.6891C61.6632 51.6891 62.2335 52.3662 61.9329 52.8591C61.6322 53.3521 61.5108 54.579 61.5108 54.579C61.5108 54.579 61.6093 56.9204 61.1629 57.2441C60.7166 57.5678 60.6236 58.341 60.6236 58.341C60.6236 58.341 59.8038 59.8103 59.8294 60.1597C59.855 60.5091 58.6887 62.8749 58.6887 62.8749C58.6887 62.8749 59.259 59.9349 55.9353 58.6647C55.9353 58.6647 55.9097 57.6666 56.1578 57.3931C56.4059 57.1195 56.7929 56.9949 56.5502 55.6123C56.3075 54.2296 56.4801 52.5775 56.4801 52.2457C56.4801 51.9139 57.2244 49.8447 57.2244 49.8447L59.8348 50.5204Z" fill="black"/>
<path d="M60.2396 48.3538L61.0567 48.6246C61.0567 48.6246 61.4302 50.0696 61.4302 50.8415C61.4302 51.6134 61.9507 51.6892 61.9507 51.6892C61.9507 51.6892 62.5211 52.3663 62.2204 52.8592C61.9197 53.3522 61.7997 54.5791 61.7997 54.5791C61.7997 54.5791 61.8981 56.9205 61.4518 57.2442C61.0055 57.5679 60.9057 58.3411 60.9057 58.3411C60.9057 58.3411 60.0873 59.8104 60.1129 60.1598C60.1385 60.5092 58.9708 62.875 58.9708 62.875C58.9708 62.875 59.5425 59.935 56.2174 58.6648C56.2174 58.6648 56.1932 57.6667 56.4413 57.3932C56.6894 57.1196 57.0764 56.995 56.8336 55.6124C56.5909 54.2297 56.7635 52.5776 56.7635 52.2458C56.7635 51.914 57.5078 49.8448 57.5078 49.8448L60.2396 48.3538Z" fill="white"/>
<path opacity="0.1" d="M42.1914 97.4941C42.1914 97.4941 43.4939 96.6721 44.3488 97.2693C45.2037 97.8665 42.1914 97.4941 42.1914 97.4941Z" fill="black"/>
<path opacity="0.1" d="M52.3125 94.9524C52.3125 94.9524 53.4654 94.8034 54.4335 95.8502C55.4016 96.897 52.3125 94.9524 52.3125 94.9524Z" fill="black"/>
<g opacity="0.1">
<path d="M53.9996 29.4609C53.8338 29.6045 53.6207 29.7074 53.5102 29.8983C53.4158 30.0622 53.4131 30.264 53.3376 30.44C53.2621 30.6161 53.0423 30.7596 52.8899 30.6486C52.8549 29.4298 52.2562 28.2855 51.5213 27.3104C51.3159 27.0162 51.0661 26.7558 50.7811 26.5385C50.4925 26.3206 50.1333 26.2187 49.7738 26.2528C49.3693 26.3083 49.0134 26.5846 48.6048 26.6184C48.0655 26.6645 47.5814 26.2893 47.0461 26.2704C46.8286 26.2726 46.614 26.3214 46.4168 26.4137C46.2196 26.5059 46.0443 26.6395 45.9027 26.8053C45.6212 27.1387 45.4122 27.5276 45.2892 27.9469C45.0773 28.5832 44.9618 29.2479 44.9467 29.9186C44.9386 30.2965 44.9035 30.7677 44.5557 30.9086C44.5638 31.0086 44.5638 31.1092 44.5557 31.2092C44.9062 31.0738 44.9413 30.5971 44.9494 30.2179C44.9644 29.5471 45.0799 28.8825 45.2919 28.2462C45.4149 27.8265 45.6239 27.4372 45.9054 27.1032C46.0473 26.9378 46.2227 26.8047 46.4198 26.7127C46.617 26.6207 46.8314 26.5719 47.0488 26.5697C47.5881 26.5886 48.0736 26.9624 48.6075 26.9177C49.012 26.8838 49.3707 26.6062 49.7765 26.5521C50.136 26.518 50.4952 26.6199 50.7838 26.8378C51.0688 27.055 51.3186 27.3155 51.524 27.6097C52.2589 28.5834 52.8576 29.725 52.8926 30.9465C53.045 31.0589 53.2648 30.9126 53.3403 30.7393C53.4158 30.566 53.4185 30.3628 53.5129 30.1976C53.6234 30.0067 53.8365 29.9051 54.0023 29.7616C54.423 29.3973 54.5282 28.7838 54.512 28.2272C54.512 28.2096 54.512 28.192 54.512 28.1758C54.4864 28.6579 54.3583 29.1494 53.9996 29.4609Z" fill="black"/>
<path d="M44.0458 29.3648C43.7357 29.0222 43.3123 28.7933 43.0278 28.4304C42.7882 28.1091 42.6514 27.7224 42.6354 27.3213C42.593 27.8225 42.7323 28.3222 43.0278 28.7283C43.3123 29.0926 43.7357 29.3215 44.0458 29.6641C44.3436 29.9992 44.5223 30.424 44.5541 30.872C44.5748 30.5994 44.5404 30.3253 44.453 30.0663C44.3657 29.8074 44.2272 29.5687 44.0458 29.3648Z" fill="black"/>
<path d="M54.7744 25.2764C54.6949 25.6082 54.5533 25.9238 54.4886 26.2582C54.4502 26.4818 54.4362 26.7088 54.4468 26.9354C54.4513 26.8063 54.4652 26.6777 54.4886 26.5508C54.5533 26.2149 54.6949 25.9007 54.7744 25.5689C54.8208 25.3859 54.8358 25.1964 54.8189 25.0083C54.8105 25.0986 54.7957 25.1883 54.7744 25.2764Z" fill="black"/>
</g>
<path opacity="0.1" d="M17.8973 103C25.1535 103 31.0358 102.052 31.0358 100.881C31.0358 99.7106 25.1535 98.7617 17.8973 98.7617C10.6411 98.7617 4.75879 99.7106 4.75879 100.881C4.75879 102.052 10.6411 103 17.8973 103Z" fill="#53B774"/>
<path d="M18.32 60.2817H17.4746V79.3992H18.32V60.2817Z" fill="#535461"/>
<path d="M23.6329 79.3408L23.5803 80.2021L23.5048 81.4209L23.4738 81.9274L23.3996 83.1461L23.3673 83.6526L23.2918 84.8714L22.4396 98.6939C22.4026 99.2886 22.1413 99.8468 21.7089 100.255C21.2766 100.663 20.7056 100.89 20.1123 100.89H15.6816C15.0884 100.89 14.5176 100.663 14.0855 100.255C13.6534 99.8467 13.3924 99.2885 13.3556 98.6939L12.5075 84.8619L12.432 83.6432L12.401 83.1367L12.3255 81.9179L12.2945 81.4114L12.219 80.1926L12.165 79.3313C12.1557 79.1656 12.1801 78.9996 12.2369 78.8437C12.2937 78.6877 12.3816 78.5451 12.4952 78.4245C12.6088 78.3039 12.7458 78.2079 12.8977 78.1424C13.0496 78.0769 13.2132 78.0432 13.3786 78.0435H22.4409C22.6056 78.0449 22.7683 78.0802 22.9189 78.1472C23.0695 78.2142 23.2048 78.3115 23.3165 78.4331C23.4282 78.5546 23.5139 78.6979 23.5683 78.854C23.6227 79.0101 23.6447 79.1758 23.6329 79.3408Z" fill="#3F3D56"/>
<path d="M23.5806 80.2021L23.5051 81.4169H12.2894L12.2139 80.2021H23.5806Z" fill="#9D9CB5"/>
<path d="M23.474 81.9233L23.3998 83.1394H12.3958L12.3203 81.9233H23.474Z" fill="#9D9CB5"/>
<path d="M23.3674 83.6472L23.2933 84.862H12.5023L12.4268 83.6472H23.3674Z" fill="#9D9CB5"/>
<path d="M10.9227 67.4467C15.8456 71.0246 17.9005 76.6202 17.9005 76.6202C17.9005 76.6202 11.9677 76.4157 7.04346 72.8379C2.11923 69.26 0.0683594 63.6658 0.0683594 63.6658C0.0683594 63.6658 5.99848 63.8689 10.9227 67.4467Z" fill="#53B774"/>
<path d="M0.0644531 63.6658C0.0644531 63.6658 6.2238 67.0987 8.19915 69.9412C10.1745 72.7837 17.9007 76.6202 17.9007 76.6202" stroke="#535461" stroke-width="2" stroke-miterlimit="10"/>
<path d="M14.1009 60.2396C16.7801 62.1856 17.9006 65.2312 17.9006 65.2312C17.9006 65.2312 14.6713 65.1202 11.9907 63.1742C9.31018 61.2281 8.19238 58.1812 8.19238 58.1812C8.19238 58.1812 11.4204 58.2922 14.1009 60.2396Z" fill="#53B774"/>
<path d="M8.19238 58.1812C8.19238 58.1812 11.5444 60.05 12.6191 61.5965C13.6937 63.143 17.9006 65.2312 17.9006 65.2312" stroke="#535461" stroke-width="2" stroke-miterlimit="10"/>
<path d="M21.7911 65.0768C18.7128 68.4746 18.0615 72.915 18.0615 72.915C18.0615 72.915 22.4019 71.8452 25.4775 68.4461C28.5532 65.047 29.2071 60.6079 29.2071 60.6079C29.2071 60.6079 24.8694 61.6791 21.7911 65.0768Z" fill="#53B774"/>
<path d="M29.2098 60.6094C29.2098 60.6094 25.1998 64.0924 24.1804 66.4921C23.161 68.8918 18.0615 72.9151 18.0615 72.9151" stroke="#535461" stroke-width="2" stroke-miterlimit="10"/>
<path d="M134.792 63.8811C134.792 63.8811 132.566 52.7575 133.418 51.3735C133.418 51.3735 133.449 50.087 133.398 48.4471C133.398 48.3848 133.398 48.3225 133.398 48.2588C133.548 48.3592 133.704 48.4497 133.866 48.5297C134.651 48.9348 135.552 49.0517 136.414 48.8601L135.74 48.1058C135.578 47.9257 135.41 47.7307 135.375 47.4923C135.339 47.254 135.437 47.0414 135.52 46.8288C136.161 45.2037 136.194 43.1602 134.961 41.9197C133.918 40.877 133.665 39.5309 132.534 38.5789C131.707 37.8815 131.253 36.859 130.824 35.8705C130.461 35.0349 130.096 34.1926 129.888 33.3069C129.726 32.6149 129.662 31.8985 129.439 31.2228C129.217 30.547 128.8 29.8902 128.149 29.5882C127.917 29.4813 127.659 29.4203 127.448 29.2781C127.17 29.0899 127.003 28.7838 126.802 28.5157C125.781 27.1615 122.363 27.9591 120.745 28.5089C120.305 28.6474 119.898 28.8741 119.547 29.1752L119.562 29.1508C119.574 29.1305 119.589 29.1102 119.603 29.0899C119.426 29.2337 119.273 29.4052 119.15 29.5977C118.914 29.9728 118.815 30.4103 118.618 30.8165C118.381 31.2973 117.061 32.6393 117.629 33.1796C117.668 33.2159 117.714 33.2452 117.764 33.2663C117.977 33.3554 118.211 33.3789 118.438 33.334L118.413 33.3922C118.22 33.869 118.12 34.3791 118.121 34.8941C118.121 37.119 119.948 38.9229 122.204 38.9229C122.628 38.9233 123.049 38.858 123.454 38.7292C123.463 38.7807 123.471 38.8321 123.481 38.8836C123.481 38.9039 123.487 38.9242 123.49 38.9445L123.419 39.0447C123.415 39.0386 123.411 39.0327 123.406 39.0271L121.29 41.9983C120.966 42.2272 119.102 43.5814 118.997 44.597C118.887 45.7088 118.776 47.0102 118.776 47.0102L118.761 47.2892C118.669 47.3669 118.561 47.4234 118.444 47.455C118.328 47.4865 118.206 47.4924 118.087 47.472C117.426 47.3637 117.426 49.9096 117.426 49.9096C117.426 49.9096 116.987 50.3159 116.685 49.9638C116.383 49.6117 115.585 50.8048 115.585 50.8048L110.582 51.0214L110.468 51.0282L110.198 50.1899C110.169 50.1015 110.106 50.0282 110.024 49.9858C109.941 49.9435 109.845 49.9356 109.757 49.9638C109.736 49.9707 109.716 49.9793 109.696 49.9895L109.677 50.0004L109.642 50.0247L109.625 50.041C109.615 50.0498 109.606 50.0593 109.598 50.0694L109.582 50.0884L109.574 50.0965C109.542 50.1397 109.522 50.1897 109.513 50.2424C109.505 50.2951 109.509 50.349 109.525 50.3998L109.757 51.1189C108.791 51.3139 107.804 51.8638 108.609 53.3778L104.529 52.6208L105.849 53.7339L112.664 55.1464C112.574 55.3089 112.633 55.5445 112.915 55.8763C114.128 57.3077 116.34 57.6964 117.23 57.7966C117.465 58.3246 117.758 58.8243 118.105 59.2862L118.028 60.7122C118.028 60.7122 115.775 71.5812 115.362 72.1323C115.57 71.8953 115.761 71.6432 115.932 71.378C115.278 73.6111 114.364 76.6676 114.124 77.1253C113.739 77.8566 113.381 80.8156 113.821 81.0052C113.956 81.0634 114.341 81.035 114.892 80.993V81.2381L114.867 90.5267C114.867 90.5267 114.978 96.2239 114.674 96.7669C114.371 97.3099 114.29 98.4488 114.29 98.4488C114.29 98.4488 113.077 100.695 112.115 101.599C112.109 101.606 112.101 101.612 112.094 101.618L112.064 101.406C112.064 101.406 110.908 102.872 108.352 102.789C108.352 102.789 106.813 103.794 109.095 103.848C111.376 103.902 114.29 103.767 114.29 103.767C114.29 103.767 116.325 100.652 118.029 101.058V103.419H118.551V101.02C118.793 100.86 119 100.653 119.16 100.41C119.319 100.167 119.428 99.8944 119.48 99.608C119.525 99.3129 119.492 99.0112 119.385 98.7326C119.278 98.454 119.101 98.2083 118.871 98.0195C118.767 97.9256 118.684 97.8112 118.627 97.6835C118.569 97.5557 118.539 97.4175 118.537 97.2774L118.519 97.2937C118.519 97.2463 118.506 97.1975 118.501 97.1474C118.351 95.9286 118.164 93.4139 118.826 91.5532C119.733 89.0018 120.009 85.4483 119.348 83.3331C119.135 82.6569 118.96 81.9692 118.823 81.2733C118.807 81.1853 118.792 81.1013 118.779 81.0228C119.23 81.0841 119.678 81.1746 120.118 81.2936C121.648 81.7175 124.996 81.796 127.855 81.773C127.861 81.8515 127.87 81.9342 127.879 82.0168C127.93 82.591 128.037 83.1588 128.197 83.7122C128.556 84.7956 128.72 89.5719 128.72 89.5719C128.72 89.5719 129.183 93.4992 128.931 95.0971C128.796 95.9855 128.661 96.8779 128.584 97.7744V97.792C128.584 97.792 127.826 99.9588 127.272 101.136C127.259 101.165 127.244 101.195 127.23 101.224C127.083 101.237 126.937 101.269 126.798 101.32C126.798 101.32 126.055 102.809 125.314 103.056C124.574 103.302 124.82 104.114 126.496 103.816C128.172 103.518 130.702 103.274 130.702 103.274L130.812 101.754L131.327 101.107L131.192 102.623L131.741 102.514L131.668 100.671L132.511 99.6121C132.511 99.6121 133.529 98.7021 132.016 96.9118V96.9511C132 96.9253 131.985 96.8982 131.967 96.8725V96.8644C131.716 96.4744 131.517 95.7472 131.882 94.4566C132.543 92.1246 132.927 90.008 132.927 90.008C132.927 90.008 134.402 84.3379 132.629 81.6552H132.707C132.526 81.2777 132.397 80.8766 132.326 80.4635C132.317 80.4147 132.309 80.3646 132.302 80.3132C133.614 80.2373 134.901 79.999 135.952 79.4844C135.948 79.479 135.315 66.0235 134.792 63.8811ZM118.136 54.4964V54.5234L117.866 54.537L118.136 54.4964ZM117.211 54.625C117.166 54.6349 117.125 54.6548 117.089 54.6832C116.973 54.848 116.901 55.0394 116.878 55.2398L116.457 55.145C116.457 55.145 116.162 55.0814 115.737 55.0096L115.536 54.8065C116.089 54.7604 116.663 54.6927 117.211 54.625Z" fill="url(#paint1_linear_192_162)"/>
<path d="M131.13 100.69L130.97 102.609L131.508 102.501L131.427 100.419L131.13 100.69Z" fill="#1D2366"/>
<path d="M118.856 91.5789C118.207 93.4342 118.39 95.9381 118.536 97.1542C118.59 97.6038 118.64 97.8774 118.64 97.8774C118.64 97.8774 117.67 100.096 117.589 100.18C117.509 100.263 114.736 101.963 114.736 101.963L112.799 103.099C112.799 103.099 110.833 102.234 111.775 101.936C111.968 101.858 112.141 101.74 112.284 101.588C113.227 100.687 114.413 98.4488 114.413 98.4488C114.413 98.4488 114.494 97.3126 114.79 96.7723C115.087 96.232 114.979 90.5537 114.979 90.5537L115.002 81.2977V80.0911L118.69 80.1182C118.713 80.5278 118.766 80.9351 118.849 81.3369C118.981 82.0305 119.153 82.7159 119.363 83.3899C120.012 85.5012 119.743 89.037 118.856 91.5789Z" fill="#FFB0B1"/>
<path opacity="0.1" d="M118.64 97.8774C118.64 97.8774 117.67 100.096 117.589 100.18C117.509 100.264 114.736 101.963 114.736 101.963L112.799 103.099C112.799 103.099 110.833 102.234 111.775 101.936C111.968 101.858 112.141 101.74 112.284 101.588L112.367 102.18L113.013 102.153L118.541 97.157C118.59 97.6039 118.64 97.8774 118.64 97.8774Z" fill="black"/>
<path d="M118.573 97.283L113.013 102.313L112.367 102.34L112.233 101.392C112.233 101.392 111.103 102.852 108.592 102.77C108.592 102.77 107.085 103.771 109.319 103.825C111.553 103.879 114.406 103.744 114.406 103.744C114.406 103.744 116.399 100.629 118.067 101.035V103.388H118.579V101.014C118.818 100.853 119.021 100.645 119.177 100.403C119.333 100.161 119.439 99.8896 119.488 99.6054C119.533 99.3127 119.501 99.0134 119.397 98.7364C119.293 98.4594 119.119 98.2139 118.894 98.0237C118.793 97.9287 118.712 97.814 118.657 97.6866C118.602 97.5592 118.573 97.4219 118.573 97.283Z" fill="#1D2366"/>
<path d="M131.643 94.4715C131.284 95.758 131.48 96.4826 131.725 96.8712V96.8793C132.04 97.3592 132.259 97.896 132.37 98.4597L132.391 98.5816L129.862 102.285L128.489 102.827C128.489 102.827 126.282 102.07 126.685 101.853C126.786 101.801 126.944 101.519 127.124 101.13C127.664 99.9588 128.408 97.7975 128.408 97.7975V97.7799C128.486 96.8875 128.61 95.9977 128.748 95.1121C128.995 93.5182 128.542 89.6058 128.542 89.6058C128.542 89.6058 128.38 84.8485 128.029 83.7664C127.871 83.2163 127.766 82.6522 127.715 82.0818C127.642 81.4047 127.626 80.8468 127.626 80.8468C127.626 80.8468 129.08 78.8154 131.744 81.0093C131.957 81.1842 132.145 81.3885 132.301 81.6159C134.141 84.2458 132.66 90.0392 132.66 90.0392C132.66 90.0392 132.289 92.1463 131.643 94.4715Z" fill="#FFB0B1"/>
<path opacity="0.1" d="M132.395 98.5815L129.866 102.285L128.493 102.827C128.493 102.827 126.286 102.07 126.689 101.853C126.79 101.8 126.948 101.519 127.128 101.13C128.063 101.122 128.547 102.016 128.547 102.016L129.731 101.826C129.731 101.826 131.292 98.744 131.643 98.5558C131.993 98.3675 131.697 97.1487 131.697 97.1487V96.8386C131.706 96.8495 131.714 96.8616 131.725 96.8725V96.8806C132.04 97.3605 132.259 97.8972 132.37 98.461L132.395 98.5815Z" fill="black"/>
<path d="M128.627 102.096C128.627 102.096 127.953 100.853 126.661 101.312C126.661 101.312 125.935 102.801 125.208 103.042C124.481 103.283 124.724 104.096 126.366 103.799C128.008 103.503 130.484 103.258 130.484 103.258L130.592 101.742L132.261 99.6067C132.261 99.6067 133.256 98.7007 131.776 96.9172V97.2274C131.776 97.2274 132.072 98.4461 131.722 98.6344C131.371 98.8226 129.815 101.906 129.815 101.906L128.627 102.096Z" fill="#1D2366"/>
<path opacity="0.1" d="M118.694 80.1155C118.717 80.5251 118.77 80.9324 118.853 81.3343C117.335 81.1108 115.926 81.2219 115.002 81.295V80.0884L118.694 80.1155Z" fill="black"/>
<path opacity="0.1" d="M132.45 81.953C132.45 81.953 130.293 82.0587 127.72 82.0803C127.647 81.4032 127.631 80.8453 127.631 80.8453C127.631 80.8453 129.084 78.814 131.749 81.0078C131.962 81.1828 132.149 81.387 132.306 81.6145C132.347 81.7299 132.396 81.843 132.45 81.953Z" fill="black"/>
<path d="M132.45 81.7095C132.45 81.7095 123.001 82.1686 120.121 81.3574C117.241 80.5462 114.386 81.2491 113.956 81.0608C113.526 80.8726 113.875 77.9245 114.253 77.1945C114.63 76.4646 116.701 69.0828 116.701 69.0828L118.694 58.6472L120.794 58.0662L120.942 58.0242L124.6 57.0113L127.281 56.2678C127.281 56.2678 132.611 77.1675 132.154 78.7086C131.988 79.2987 131.961 79.9195 132.075 80.5218C132.145 80.9332 132.271 81.3329 132.45 81.7095Z" fill="#1D2366"/>
<path d="M111.747 51.5103C111.747 51.5103 109.859 53.5416 111.289 54.6737C112.718 55.8058 113.658 54.782 113.658 54.782L111.747 51.5103Z" fill="#C7DAF5"/>
<path opacity="0.1" d="M111.747 51.5103C111.747 51.5103 109.859 53.5416 111.289 54.6737C112.718 55.8058 113.658 54.782 113.658 54.782L111.747 51.5103Z" fill="black"/>
<path d="M126.998 38.1551C126.998 38.1551 126.777 38.3663 126.444 38.6778C125.97 39.1233 125.267 39.7747 124.644 40.3205C123.781 41.0748 123.069 41.6286 123.324 41.156C123.579 40.6834 123.53 39.86 123.404 39.0895C123.394 39.038 123.386 38.9866 123.377 38.9365C123.272 38.3705 123.133 37.8116 122.96 37.2626C122.96 37.2626 124.354 35.4534 125.125 34.7397C125.413 34.4689 125.614 34.3579 125.626 34.5461C125.639 34.7993 125.828 35.3586 126.063 35.9518C126.069 35.9707 126.076 35.9883 126.084 36.0073C126.241 36.4135 126.417 36.8307 126.572 37.1909C126.81 37.7434 126.998 38.1551 126.998 38.1551Z" fill="#FFB0B1"/>
<path opacity="0.1" d="M126.084 36.0074C125.953 36.7152 125.635 37.3746 125.164 37.9168C124.692 38.459 124.084 38.864 123.404 39.0896C123.296 38.4714 123.148 37.8611 122.96 37.2628C122.96 37.2628 125.585 33.8569 125.626 34.5462C125.635 34.8076 125.84 35.3872 126.084 36.0074Z" fill="black"/>
<path opacity="0.1" d="M123.142 39.9995L123.482 39.5188C123.482 39.5188 123.707 40.8974 124.535 40.2893C125.363 39.6813 125.403 44.8652 125.403 44.8652L124.515 58.2083L118.094 57.8224L118.276 51.375L119.003 48.1248L120.8 43.4L121.869 41.8386L123.142 39.9995Z" fill="black"/>
<path d="M125.403 44.9479L124.594 57.0127L124.509 58.291L120.929 58.0757L120.794 58.0676L118.098 57.9051L118.28 51.4563L119.006 48.2062L120.804 43.4813L121.873 41.9199L123.146 40.0741L123.486 39.5947C123.486 39.5947 123.711 40.9733 124.539 40.3653L124.556 40.3531C125.365 39.8385 125.403 44.9479 125.403 44.9479Z" fill="#1D2366"/>
<path d="M119.097 47.0767C119.097 47.0767 118.775 47.7538 118.128 47.6441C117.48 47.5344 117.482 50.0817 117.482 50.0817C117.482 50.0817 117.052 50.4879 116.755 50.1358C116.458 49.7837 115.676 50.9741 115.676 50.9741L110.776 51.1908C110.776 51.1908 112.957 52.1915 112.529 55.2196C112.529 55.2196 119.932 54.7591 120.174 54.0563C120.417 53.3535 119.097 47.0767 119.097 47.0767Z" fill="white"/>
<path opacity="0.03" d="M119.097 47.0767C119.097 47.0767 118.775 47.7538 118.128 47.6441C117.48 47.5344 117.482 50.0817 117.482 50.0817C117.482 50.0817 117.052 50.4879 116.755 50.1358C116.458 49.7837 115.676 50.9741 115.676 50.9741L110.776 51.1908C110.776 51.1908 112.957 52.1915 112.529 55.2196C112.529 55.2196 119.932 54.7591 120.174 54.0563C120.417 53.3535 119.097 47.0767 119.097 47.0767Z" fill="black"/>
<path d="M104.857 52.782L106.149 53.8897L116.782 56.1337L115.464 54.7822L104.857 52.782Z" fill="white"/>
<path d="M123.163 40.4261C122.986 40.6969 122.48 42.0837 122.058 43.2943C121.706 44.3032 121.412 45.1902 121.412 45.1902C121.412 45.1902 120.726 49.6781 120.376 50.4893C120.025 51.3005 120.215 54.4639 120.215 54.4639L118.909 62.2764C118.909 62.2764 118.317 66.3052 117.402 68.7116C116.5 71.0802 115.496 72.1906 115.465 72.2258C115.869 71.676 118.074 60.8504 118.074 60.8504L118.802 47.1972C118.802 47.1972 118.909 45.8999 119.016 44.7908C119.124 43.6816 121.309 42.1676 121.309 42.1676L123.415 39.1599C123.627 39.4443 123.485 39.9399 123.163 40.4261Z" fill="white"/>
<path d="M117.671 57.9727C117.671 57.9727 114.57 57.8373 113.068 56.0253C111.566 54.2134 116.54 55.3022 116.54 55.3022L117.833 55.6001L117.671 57.9727Z" fill="#FFB0B1"/>
<path opacity="0.1" d="M132.154 78.7098C131.988 79.2999 131.961 79.9207 132.076 80.5231C128.693 80.7641 125.074 79.846 125.074 79.846C124.399 80.4689 122.624 81.3871 122.624 81.3871L121.656 69.3345C121.037 67.7095 120.794 59.1955 120.794 59.1955C120.794 59.1955 120.849 58.75 120.929 58.0823C120.929 58.0661 120.929 58.0485 120.936 58.0322C121.177 56.1675 121.656 52.6668 121.89 52.1942C122.214 51.5442 120.895 49.8148 120.895 49.8148L121.495 44.6756L121.568 44.0553C122.833 43.4879 123.802 41.676 123.802 41.676L124.546 40.3665C125.355 39.8451 125.397 44.9545 125.397 44.9545L124.588 57.0193L127.269 56.2758C127.269 56.2758 132.611 77.1687 132.154 78.7098Z" fill="black"/>
<path d="M135.625 79.5427C131.938 81.3818 125.235 79.6782 125.235 79.6782C124.561 80.3011 122.785 81.2192 122.785 81.2192L121.815 69.1667C121.198 67.5417 120.955 59.0277 120.955 59.0277C120.955 59.0277 121.734 52.6751 122.058 52.0264C122.152 51.8368 122.107 51.5551 121.995 51.2518C121.444 49.8079 121.242 48.2539 121.404 46.7165L121.663 44.5078L121.734 43.8889C123.001 43.3201 123.97 41.5082 123.97 41.5082L124.644 40.3219L125.885 38.1362L126.473 37.1016L126.572 37.1923L127.334 37.8857C127.334 37.8857 127.658 38.1565 128.143 38.5628C129.199 39.4565 131.023 41.0301 131.964 41.993C132.792 42.8407 133.054 46.1383 133.129 48.6205C133.179 50.2551 133.15 51.5362 133.15 51.5362C132.315 52.9161 134.498 63.995 134.498 63.995C135.006 66.136 135.625 79.5427 135.625 79.5427Z" fill="white"/>
<path opacity="0.03" d="M128.547 41.481C128.547 41.481 126.016 46.3197 126.31 48.1587C126.604 49.9977 127.44 52.0792 127.037 52.5653C126.898 52.7495 126.719 52.899 126.513 53.0021C126.308 53.1053 126.081 53.1592 125.851 53.1598C125.447 53.1869 124.368 53.9439 124.368 54.0252C124.368 54.1064 123.372 54.1064 122.48 54.4856C121.589 54.8648 120.273 55.0801 120.273 55.0801C120.273 55.0801 117.711 54.9988 117.473 55.2426C117.234 55.4864 116.989 56.9449 117.5 58.1081C118.011 59.2714 118.578 60.1395 119.007 60.2979C119.436 60.4563 122.157 59.5409 124.364 59.3242C126.571 59.1075 128.967 57.3511 128.967 57.3511C128.967 57.3511 131.606 56.4032 132.069 54.8093C132.531 53.2153 131.504 44.4549 131.504 44.4549C131.504 44.4549 130.727 40.3719 128.547 41.481Z" fill="black"/>
<path opacity="0.03" d="M128.223 41.0747C128.223 41.0747 125.693 45.9146 125.989 47.7523C126.286 49.59 127.119 51.6728 126.715 52.1603C126.577 52.3447 126.398 52.4944 126.192 52.5975C125.987 52.7007 125.76 52.7545 125.531 52.7548C125.126 52.7819 124.048 53.5389 124.048 53.6201C124.048 53.7014 123.051 53.7014 122.16 54.0792C121.269 54.457 119.953 54.6737 119.953 54.6737C119.953 54.6737 117.391 54.5925 117.153 54.8362C116.916 55.08 116.668 56.5398 117.18 57.7017C117.693 58.8637 118.259 59.7331 118.688 59.8915C119.117 60.05 121.838 59.1345 124.045 58.9192C126.252 58.7039 128.648 56.9447 128.648 56.9447C128.648 56.9447 131.286 55.9968 131.743 54.4042C132.2 52.8117 131.178 44.0485 131.178 44.0485C131.178 44.0485 130.404 39.9669 128.223 41.0747Z" fill="black"/>
<path d="M128.467 41.2372C128.467 41.2372 125.936 46.0772 126.233 47.9149C126.529 49.7525 127.363 51.8353 126.959 52.3215C126.821 52.5063 126.642 52.6564 126.437 52.7598C126.231 52.8632 126.004 52.9171 125.774 52.9173C125.37 52.9444 124.291 53.7014 124.291 53.7813C124.291 53.8612 123.296 53.8626 122.403 54.2418C121.511 54.621 120.196 54.8363 120.196 54.8363C120.196 54.8363 117.634 54.755 117.395 54.9988C117.157 55.2425 116.911 56.7024 117.422 57.8643C117.933 59.0262 118.501 59.8956 118.93 60.0541C119.359 60.2125 122.08 59.2971 124.287 59.0804C126.494 58.8637 128.89 57.1073 128.89 57.1073C128.89 57.1073 131.529 56.1593 131.991 54.5654C132.454 52.9715 131.433 44.2111 131.433 44.2111C131.433 44.2111 130.646 40.1349 128.467 41.2372Z" fill="white"/>
<path opacity="0.1" d="M128.412 54.2188C128.412 54.2188 126.389 53.8125 127.093 54.4896C127.797 55.1667 127.793 55.7599 128.654 55.7328C129.516 55.7057 128.412 54.2188 128.412 54.2188Z" fill="black"/>
<path opacity="0.1" d="M131.83 68.7874C131.83 68.7874 130.915 69.4089 132.664 70.8417C134.413 72.2745 131.83 68.7874 131.83 68.7874Z" fill="black"/>
<path opacity="0.1" d="M130.085 73.897C130.085 73.9782 129.762 76.8762 130.972 77.6008C132.183 78.3253 130.085 73.897 130.085 73.897Z" fill="black"/>
<path d="M110.86 51.1841C109.883 51.2179 107.775 51.5172 108.868 53.5661C109.835 55.3794 111.46 54.1674 112.374 53.2479C112.151 52.3906 111.609 51.6519 110.86 51.1841Z" fill="#FFB0B1"/>
<path opacity="0.1" d="M128.143 38.6453C127.108 39.3563 126.239 39.9562 126.07 40.0808C125.606 40.4261 124.721 42.4534 124.151 43.488C123.696 44.3208 122.22 44.5348 121.663 44.5876L121.735 43.9687C123.001 43.4 123.97 41.588 123.97 41.588L126.473 37.1814L127.334 37.9682C127.334 37.9682 127.658 38.239 128.143 38.6453Z" fill="black"/>
<path d="M128.143 38.564C127.108 39.275 126.239 39.8749 126.07 40.0008C125.606 40.3448 124.721 42.3721 124.151 43.4067C123.696 44.2395 122.22 44.4535 121.663 44.5063L121.735 43.8874C123.001 43.3187 123.97 41.5067 123.97 41.5067L126.473 37.1001L127.334 37.8842C127.334 37.8842 127.658 38.1523 128.143 38.564Z" fill="#DCE7FF"/>
<path d="M126.151 35.1136C126.151 35.9265 125.906 36.7204 125.447 37.39C124.905 38.1817 124.098 38.7521 123.173 38.9976C122.248 39.2431 121.267 39.1474 120.406 38.728C119.545 38.3086 118.863 37.5932 118.482 36.7116C118.102 35.83 118.049 34.8407 118.332 33.9231C118.616 33.0055 119.218 32.2205 120.029 31.7104C120.839 31.2003 121.805 30.999 122.751 31.143C123.697 31.2871 124.56 31.7668 125.184 32.4953C125.808 33.2238 126.151 34.1528 126.151 35.1136Z" fill="#FFB0B1"/>
<path opacity="0.1" d="M133.13 48.6219C132.583 48.2836 132.137 47.8025 131.84 47.2298C131.615 46.7829 131.465 46.2669 131.081 45.95C130.734 45.6657 130.272 45.5966 129.84 45.4693C128.422 45.0481 127.232 43.7481 127.188 42.2639C127.166 41.5651 127.383 40.8677 127.285 40.1757C127.229 39.784 127.074 39.4133 126.835 39.0991C126.716 38.9487 126.585 38.8079 126.445 38.6779C126.256 38.4991 126.058 38.3258 125.885 38.1362C125.777 38.0188 125.682 37.8893 125.602 37.7503C125.538 37.6364 125.486 37.5162 125.447 37.3914C125.177 36.5626 125.423 35.5794 125.126 34.7412L125.11 34.6951C124.998 34.3972 124.77 34.0993 124.453 34.0763C124.137 34.0532 123.866 34.3173 123.563 34.4351C122.931 34.6816 122.249 34.2618 121.722 33.8339C121.194 33.4059 120.6 32.917 119.93 33.0118C119.486 33.0755 119.135 33.3788 118.727 33.5359C118.635 33.5718 118.539 33.5994 118.442 33.6185C118.788 32.7525 119.423 32.0345 120.239 31.5878C121.055 31.1411 122 30.9936 122.912 31.1706C123.824 31.3477 124.646 31.8383 125.237 32.558C125.828 33.2778 126.151 34.1819 126.151 35.1149C126.151 35.3967 126.122 35.6777 126.063 35.9532C126.07 35.9722 126.077 35.9898 126.085 36.0087C126.241 36.415 126.418 36.8321 126.573 37.1923L127.335 37.8857C127.335 37.8857 127.658 38.1565 128.144 38.5628C129.2 39.4566 131.024 41.0302 131.965 41.993C132.793 42.8435 133.052 46.1396 133.13 48.6219Z" fill="black"/>
<path d="M118.679 31.0617C118.872 30.6677 118.968 30.2262 119.198 29.8524C119.537 29.3107 120.127 28.9641 120.734 28.7541C122.318 28.2057 125.666 27.4094 126.667 28.7541C126.864 29.025 127.027 29.3256 127.299 29.5125C127.507 29.6547 127.758 29.7156 127.985 29.8226C128.623 30.1233 129.03 30.7787 129.247 31.4477C129.465 32.1167 129.529 32.8344 129.688 33.5237C129.892 34.408 130.249 35.2463 130.605 36.0791C131.025 37.0623 131.47 38.082 132.279 38.7767C133.383 39.7247 133.627 41.0667 134.652 42.1067C135.865 43.3418 135.826 45.3799 135.201 46.9982C135.118 47.2108 135.025 47.4329 135.058 47.659C135.09 47.8852 135.257 48.091 135.415 48.2711L136.078 49.0227C134.509 49.4033 132.733 48.5799 132.002 47.1349C131.777 46.688 131.627 46.1734 131.242 45.8552C130.897 45.5708 130.433 45.5031 130.003 45.3758C128.584 44.9533 127.395 43.6519 127.35 42.1677C127.329 41.4703 127.546 40.7728 127.447 40.0822C127.393 39.6879 127.237 39.3146 126.996 38.9988C126.625 38.5126 126.065 38.1863 125.763 37.6446C125.252 36.7386 125.641 35.5618 125.272 34.5895C125.159 34.2915 124.933 33.9936 124.616 33.9706C124.299 33.9476 124.028 34.2116 123.725 34.3295C123.094 34.5759 122.411 34.1575 121.884 33.7282C121.357 33.2989 120.762 32.8114 120.091 32.9075C119.647 32.9698 119.298 33.2732 118.889 33.4316C118.587 33.5481 117.975 33.6524 117.711 33.3964C117.153 32.8804 118.446 31.5438 118.679 31.0617Z" fill="#591D4B"/>
<path opacity="0.1" d="M132.378 46.6879C132.151 46.241 132.003 45.7264 131.617 45.4095C131.272 45.1252 130.808 45.0561 130.377 44.9288C128.96 44.5076 127.77 43.2062 127.725 41.722C127.703 41.0246 127.92 40.3258 127.823 39.6352C127.767 39.2434 127.611 38.8728 127.371 38.5586C126.999 38.0724 126.44 37.746 126.139 37.2043C125.628 36.2997 126.016 35.1229 125.647 34.1492C125.535 33.8526 125.307 33.5547 124.991 33.5303C124.676 33.506 124.402 33.7728 124.1 33.8906C123.469 34.137 122.786 33.7172 122.26 33.2893C121.734 32.8614 121.136 32.3725 120.466 32.4673C120.023 32.5309 119.672 32.8343 119.265 32.9914C118.963 33.1078 118.349 33.2135 118.085 32.9575C117.53 32.4158 118.823 31.0819 119.055 30.6025C119.247 30.2071 119.343 29.767 119.575 29.3932C119.587 29.3729 119.601 29.3526 119.614 29.3323C119.441 29.4766 119.291 29.6475 119.171 29.8388C118.94 30.2125 118.844 30.6513 118.651 31.0481C118.418 31.5275 117.125 32.8654 117.682 33.4031C117.952 33.6604 118.558 33.5547 118.86 33.4383C119.265 33.2798 119.618 32.9765 120.062 32.9142C120.736 32.818 121.329 33.3069 121.855 33.7348C122.381 34.1628 123.069 34.5826 123.697 34.3361C123.999 34.2183 124.263 33.9529 124.587 33.9772C124.911 34.0016 125.126 34.2982 125.244 34.5961C125.612 35.5684 125.223 36.7453 125.734 37.6512C126.036 38.1834 126.596 38.5166 126.967 39.0054C127.208 39.3213 127.364 39.6945 127.418 40.0888C127.517 40.7795 127.3 41.4769 127.321 42.1743C127.366 43.664 128.555 44.9599 129.974 45.3825C130.401 45.5098 130.868 45.5775 131.213 45.8619C131.6 46.1801 131.752 46.6947 131.973 47.1416C132.704 48.5865 134.48 49.4099 136.049 49.0294L135.737 48.6746C134.376 48.6949 132.999 47.9176 132.378 46.6879Z" fill="black"/>
<path opacity="0.1" d="M123.082 40.5073C122.905 40.7781 122.399 42.1648 121.977 43.3755C121.582 43.2211 121.224 42.2366 121.224 42.2366L123.33 39.2275C123.546 39.5255 123.404 40.0198 123.082 40.5073Z" fill="black"/>
<path d="M123.163 40.4261C122.986 40.6969 122.48 42.0836 122.058 43.2943C121.663 43.1413 121.305 42.1554 121.305 42.1554L123.411 39.1477C123.627 39.4443 123.485 39.9399 123.163 40.4261Z" fill="#DCE7FF"/>
<path d="M110.917 54.2609L109.749 50.5625C109.735 50.5192 109.73 50.4736 109.734 50.4283C109.737 50.383 109.75 50.3389 109.771 50.2985C109.792 50.2581 109.82 50.2222 109.855 50.1929C109.889 50.1636 109.929 50.1415 109.973 50.1278C110.06 50.1006 110.154 50.1089 110.234 50.151C110.315 50.1931 110.376 50.2656 110.404 50.3526L111.572 54.0469L111.456 54.8202L110.917 54.2609Z" fill="#BE8B87"/>
<path opacity="0.1" d="M109.86 50.2375C109.947 50.2098 110.041 50.2179 110.122 50.2601C110.203 50.3022 110.265 50.3749 110.292 50.4623L111.46 54.1566L111.372 54.7362L111.457 54.8255L111.573 54.0523L110.399 50.358C110.371 50.2709 110.31 50.1985 110.229 50.1564C110.148 50.1143 110.054 50.1059 109.967 50.1332C109.894 50.157 109.831 50.2047 109.788 50.2686C109.811 50.2563 109.835 50.2458 109.86 50.2375Z" fill="white"/>
<path d="M110.917 54.2608L111.572 54.0522L111.477 54.686L111.456 54.8255L111.265 54.6251L110.917 54.2608Z" fill="#EFC8C4"/>
<path d="M111.265 54.625C111.276 54.6105 111.29 54.5985 111.306 54.5898C111.316 54.5838 111.327 54.5806 111.338 54.5806C111.349 54.5806 111.36 54.5838 111.37 54.5898C111.379 54.6009 111.387 54.6132 111.393 54.6263C111.402 54.6413 111.414 54.654 111.428 54.6636C111.443 54.6732 111.459 54.6795 111.476 54.6819L111.456 54.8173L111.265 54.625Z" fill="#727A9C"/>
<path d="M109.742 51.876C109.742 51.876 112.084 51.8624 111.533 52.8632C110.981 53.864 110.12 53.9845 110.12 53.9845L109.742 51.876Z" fill="#FFB0B1"/>
<path d="M95.1758 6.96338H95.0747C91.0511 6.96338 87.4928 9.10169 85.446 12.257C83.3992 9.10169 79.8408 6.96338 75.8173 6.96338H75.7162C72.6966 6.99228 69.8104 8.21684 67.6848 10.371C65.5592 12.5251 64.3659 15.4347 64.3643 18.4675C64.3643 22.2335 66.0066 27.5773 69.2089 31.9744C75.3103 40.353 85.446 47.6833 85.446 47.6833C85.446 47.6833 95.5817 40.3543 101.682 31.9744C104.885 27.5773 106.526 22.2335 106.526 18.4675C106.525 15.4349 105.332 12.5255 103.206 10.3714C101.081 8.21736 98.1951 6.99263 95.1758 6.96338ZM93.729 32.619C93.2708 32.6173 92.8238 32.4764 92.4467 32.2149C92.0696 31.9534 91.7801 31.5835 91.6161 31.1538H89.2106C89.0522 31.1528 88.8981 31.1021 88.7697 31.0089C88.6414 30.9157 88.5452 30.7845 88.4946 30.6337L87.7557 28.3979L85.4177 36.6031C85.3721 36.7611 85.2768 36.8999 85.146 36.9988C85.0152 37.0977 84.856 37.1513 84.6922 37.1516H84.6451C84.4742 37.1433 84.3114 37.0764 84.1838 36.962C84.0562 36.8476 83.9715 36.6928 83.9439 36.5232L81.5344 21.9681L79.7734 30.5809C79.733 30.7445 79.6392 30.8899 79.507 30.9937C79.3748 31.0975 79.2118 31.1539 79.0439 31.1538H75.6555C75.5539 31.1581 75.4525 31.1417 75.3574 31.1056C75.2623 31.0696 75.1754 31.0146 75.102 30.9439C75.0286 30.8733 74.9702 30.7884 74.9303 30.6945C74.8904 30.6006 74.8699 30.4995 74.8699 30.3974C74.8699 30.2953 74.8904 30.1943 74.9303 30.1004C74.9702 30.0064 75.0286 29.9216 75.102 29.8509C75.1754 29.7803 75.2623 29.7253 75.3574 29.6892C75.4525 29.6531 75.5539 29.6368 75.6555 29.6411H78.4506L80.9451 18.0612C80.9861 17.89 81.085 17.7384 81.2249 17.6323C81.3648 17.5262 81.5371 17.4722 81.7122 17.4796C81.8874 17.4869 82.0546 17.5552 82.1852 17.6726C82.3158 17.7901 82.4018 17.9494 82.4283 18.1235L84.8891 32.9711L86.9845 25.6299C87.0281 25.4753 87.1203 25.339 87.2474 25.2414C87.3745 25.1437 87.5297 25.09 87.6897 25.0882H87.7045C87.863 25.0883 88.0174 25.1386 88.1457 25.232C88.274 25.3253 88.3697 25.457 88.4191 25.6082L89.7554 29.6452H91.5864C91.7166 29.2479 91.9536 28.8945 92.2711 28.624C92.5886 28.3534 92.9744 28.1763 93.3859 28.112C93.7974 28.0478 94.2185 28.099 94.6028 28.26C94.9871 28.4209 95.3197 28.6854 95.5638 29.0242C95.8079 29.363 95.9541 29.763 95.9862 30.1799C96.0182 30.5969 95.935 31.0146 95.7456 31.3871C95.5562 31.7595 95.268 32.0722 94.9129 32.2905C94.5578 32.5089 94.1495 32.6244 93.733 32.6244L93.729 32.619Z" fill="#53B774"/>
</g>
<defs>
<linearGradient id="paint0_linear_192_162" x1="48.0468" y1="104.934" x2="48.0468" y2="21.6039" gradientUnits="userSpaceOnUse">
<stop stop-color="#808080" stop-opacity="0.25"/>
<stop offset="0.54" stop-color="#808080" stop-opacity="0.12"/>
<stop offset="1" stop-color="#808080" stop-opacity="0.1"/>
</linearGradient>
<linearGradient id="paint1_linear_192_162" x1="120.467" y1="103.881" x2="120.467" y2="27.7736" gradientUnits="userSpaceOnUse">
<stop stop-color="#808080" stop-opacity="0.25"/>
<stop offset="0.54" stop-color="#808080" stop-opacity="0.12"/>
<stop offset="1" stop-color="#808080" stop-opacity="0.1"/>
</linearGradient>
<clipPath id="clip0_192_162">
<rect width="149" height="106" fill="white"/>
</clipPath>
</defs>
</svg>
