<svg width="116" height="102" viewBox="0 0 116 102" fill="none" xmlns="http://www.w3.org/2000/svg">
<path d="M67.288 101.703C67.2712 101.671 66.8684 100.897 66.7288 99.2915C66.6008 97.8182 66.683 95.3349 67.8024 91.8707C69.923 85.3081 67.3137 80.0132 67.2871 79.9604L67.4159 79.8745C67.9181 80.9808 68.281 82.1637 68.4936 83.3876C69.0192 86.2377 68.8278 89.2011 67.942 91.9305C65.8251 98.4818 67.3989 101.583 67.415 101.614L67.288 101.703Z" fill="#F2F2F2"/>
<path d="M66.4588 79.5751C66.9929 79.5751 67.4259 79.0769 67.4259 78.4624C67.4259 77.8478 66.9929 77.3496 66.4588 77.3496C65.9247 77.3496 65.4917 77.8478 65.4917 78.4624C65.4917 79.0769 65.9247 79.5751 66.4588 79.5751Z" fill="#F2F2F2"/>
<path d="M69.5091 83.6835C70.0432 83.6835 70.4762 83.1853 70.4762 82.5708C70.4762 81.9562 70.0432 81.458 69.5091 81.458C68.975 81.458 68.542 81.9562 68.542 82.5708C68.542 83.1853 68.975 83.6835 69.5091 83.6835Z" fill="#F2F2F2"/>
<path d="M67.4256 86.4228C67.9597 86.4228 68.3927 85.9246 68.3927 85.31C68.3927 84.6955 67.9597 84.1973 67.4256 84.1973C66.8915 84.1973 66.4585 84.6955 66.4585 85.31C66.4585 85.9246 66.8915 86.4228 67.4256 86.4228Z" fill="#F2F2F2"/>
<path d="M69.9554 88.7338C70.4895 88.7338 70.9225 88.2356 70.9225 87.6211C70.9225 87.0065 70.4895 86.5083 69.9554 86.5083C69.4213 86.5083 68.9883 87.0065 68.9883 87.6211C68.9883 88.2356 69.4213 88.7338 69.9554 88.7338Z" fill="#F2F2F2"/>
<path d="M66.6819 92.3285C67.2161 92.3285 67.649 91.8303 67.649 91.2158C67.649 90.6012 67.2161 90.103 66.6819 90.103C66.1478 90.103 65.7148 90.6012 65.7148 91.2158C65.7148 91.8303 66.1478 92.3285 66.6819 92.3285Z" fill="#F2F2F2"/>
<path d="M67.8725 101.743C67.8725 101.743 66.9054 99.0043 69.8066 96.95L67.8725 101.743Z" fill="#F2F2F2"/>
<path d="M66.683 101.694C66.683 101.694 66.2429 98.7814 62.8364 98.8063L66.683 101.694Z" fill="#F2F2F2"/>
<path d="M17 21C16.2089 21 15.4355 20.7361 14.7777 20.2416C14.1199 19.7471 13.6072 19.0443 13.3045 18.2221C13.0017 17.3998 12.9225 16.495 13.0769 15.6221C13.2312 14.7492 13.6122 13.9474 14.1716 13.318C14.731 12.6887 15.4437 12.2601 16.2196 12.0865C16.9956 11.9128 17.7998 12.0019 18.5307 12.3425C19.2616 12.6831 19.8864 13.2599 20.3259 13.9999C20.7654 14.74 21 15.61 21 16.5C21 17.6935 20.5786 18.8381 19.8284 19.682C19.0783 20.5259 18.0609 21 17 21ZM17 12.1553C16.2361 12.1553 15.4895 12.4101 14.8543 12.8875C14.2192 13.365 13.7242 14.0435 13.4319 14.8375C13.1396 15.6314 13.0631 16.505 13.2121 17.3478C13.3611 18.1906 13.729 18.9648 14.2691 19.5725C14.8092 20.1801 15.4974 20.5939 16.2465 20.7616C16.9957 20.9292 17.7723 20.8432 18.478 20.5143C19.1837 20.1855 19.7868 19.6286 20.2112 18.9141C20.6356 18.1995 20.8621 17.3595 20.8621 16.5002C20.8621 15.9296 20.7622 15.3646 20.5681 14.8375C20.374 14.3103 20.0896 13.8313 19.7309 13.4279C19.3723 13.0244 18.9465 12.7044 18.478 12.486C18.0094 12.2677 17.5072 12.1553 17 12.1553Z" fill="#3F3D56"/>
<path d="M56.5 21C55.8078 21 55.1311 20.7361 54.5555 20.2416C53.9799 19.7471 53.5313 19.0443 53.2664 18.2221C53.0015 17.3998 52.9322 16.495 53.0673 15.6221C53.2023 14.7492 53.5356 13.9474 54.0251 13.318C54.5146 12.6887 55.1383 12.2601 55.8172 12.0865C56.4961 11.9128 57.1999 12.0019 57.8394 12.3425C58.4789 12.6831 59.0256 13.2599 59.4101 13.9999C59.7947 14.74 60 15.61 60 16.5C60 17.6935 59.6312 18.8381 58.9749 19.682C58.3185 20.5259 57.4283 21 56.5 21ZM56.5 12.1553C55.8316 12.1553 55.1783 12.4101 54.6225 12.8875C54.0668 13.365 53.6337 14.0435 53.3779 14.8375C53.1221 15.6314 53.0552 16.505 53.1856 17.3478C53.316 18.1906 53.6378 18.9648 54.1104 19.5725C54.5831 20.1801 55.1852 20.5939 55.8407 20.7616C56.4963 20.9292 57.1757 20.8432 57.7932 20.5143C58.4107 20.1855 58.9385 19.6286 59.3098 18.9141C59.6811 18.1995 59.8793 17.3595 59.8793 16.5002C59.8793 15.9296 59.7919 15.3646 59.6221 14.8375C59.4523 14.3103 59.2034 13.8313 58.8896 13.4279C58.5758 13.0244 58.2032 12.7044 57.7932 12.486C57.3832 12.2677 56.9438 12.1553 56.5 12.1553Z" fill="#3F3D56"/>
<path d="M71.562 10.0002H2.43798C1.09233 10.0028 0.0018423 11.5581 0 13.4776V51.5226C0.0018423 53.4419 1.09233 54.9965 2.43798 55H71.562C72.9077 54.9973 73.9982 53.4421 74 51.5226V13.4774C73.9982 11.5581 72.9077 10.0035 71.562 10V10.0002ZM73.7135 51.5226C73.712 53.2163 72.7498 54.5888 71.5623 54.5908H2.43798C1.25046 54.5886 0.288627 53.2163 0.286785 51.5226V13.4774C0.288167 11.7837 1.25046 10.4112 2.43798 10.4092H71.562C72.7495 10.4114 73.7114 11.7837 73.7132 13.4774L73.7135 51.5226Z" fill="#3F3D56"/>
<path d="M17 25H5V35H17V25Z" fill="#F2F2F2"/>
<path d="M33 25H22V35H33V25Z" fill="#F2F2F2"/>
<path d="M51 25H39V35H51V25Z" fill="#F2F2F2"/>
<path d="M68 25H56V35H68V25Z" fill="#F2F2F2"/>
<path d="M17 40H5V50H17V40Z" fill="#F2F2F2"/>
<path d="M33 40H22V50H33V40Z" fill="#F2F2F2"/>
<path d="M51 40H39V50H51V40Z" fill="#F2F2F2"/>
<path d="M68 40H56V50H68V40Z" fill="#F2F2F2"/>
<path d="M26.0894 49L23 44.6971L23.8415 44.0827L26.2064 47.3762L35.2557 38L36 38.7309L26.0894 49Z" fill="#53B774"/>
<path d="M42.8517 35L40 30.3059L40.7768 29.6357L42.9597 33.2286L51.3129 23L52 23.7973L42.8517 35Z" fill="#53B774"/>
<path d="M115.781 101.999H59.2186C59.1906 102.003 59.1625 101.994 59.1361 101.971C59.1096 101.948 59.0854 101.912 59.0649 101.865C59.0444 101.818 59.0281 101.762 59.0169 101.699C59.0058 101.636 59 101.568 59 101.5C59 101.432 59.0058 101.364 59.0169 101.301C59.0281 101.238 59.0444 101.182 59.0649 101.135C59.0854 101.088 59.1096 101.052 59.1361 101.029C59.1625 101.006 59.1906 100.997 59.2186 101.001H115.781C115.809 100.997 115.837 101.006 115.864 101.029C115.89 101.052 115.915 101.088 115.935 101.135C115.956 101.182 115.972 101.238 115.983 101.301C115.994 101.364 116 101.432 116 101.5C116 101.568 115.994 101.636 115.983 101.699C115.972 101.762 115.956 101.818 115.935 101.865C115.915 101.912 115.89 101.948 115.864 101.971C115.837 101.994 115.809 102.003 115.781 101.999Z" fill="#3F3D56"/>
<path d="M9.6141 35L7 30.3059L7.71204 29.6357L9.71308 33.2286L17.3702 23L18 23.7973L9.6141 35Z" fill="#53B774"/>
<path d="M99.2706 64.4512C99.3509 64.4237 99.4329 64.4035 99.5159 64.3908L102.829 56.6456L101.817 54.9011L103.906 52.8008L106.531 56.4976L101.184 65.4522C101.316 65.791 101.355 66.1679 101.296 66.5328C101.237 66.8977 101.083 67.2334 100.854 67.4951C100.625 67.7568 100.333 67.9322 100.015 67.9978C99.6979 68.0635 99.3705 68.0164 99.0769 67.8628C98.7832 67.7091 98.5372 67.4563 98.3715 67.1378C98.2058 66.8193 98.1283 66.4504 98.1494 66.08C98.1704 65.7096 98.289 65.3554 98.4893 65.0644C98.6896 64.7735 98.9621 64.5596 99.2706 64.4512Z" fill="#FFB8B8"/>
<path d="M104.926 53.872C104.881 53.9266 104.829 53.9735 104.772 54.0112L101.383 56.2719C101.227 56.3761 101.041 56.4046 100.866 56.3512C100.692 56.2978 100.543 56.1668 100.452 55.9871C100.443 55.9683 100.434 55.9491 100.426 55.9294L98.7773 51.9222C98.7071 51.7536 98.692 51.5616 98.7347 51.3812C98.7774 51.2008 98.875 51.0441 99.0098 50.9397L101.111 49.2953C101.242 49.1926 101.4 49.1459 101.558 49.1632C101.716 49.1805 101.864 49.2607 101.976 49.39L104.912 52.7807C105.037 52.9249 105.109 53.1195 105.111 53.3232C105.114 53.5269 105.047 53.7237 104.925 53.8718L104.926 53.872Z" fill="#CCCCCC"/>
<path d="M109.684 98.2499L107.895 98.8102L105.165 91.1345L107.806 90.3076L109.684 98.2499Z" fill="#FFB8B8"/>
<path d="M106.478 98.6212L109.929 97.5408L110.52 100.04L104.896 101.801C104.739 101.138 104.818 100.43 105.114 99.8338C105.411 99.2374 105.901 98.8009 106.478 98.6205L106.478 98.6212Z" fill="#2F2E41"/>
<path d="M94.386 99.8211H92.5313L91.6489 91.5906H94.386V99.8211Z" fill="#FFB8B8"/>
<path d="M91.207 99.2112H94.7836V101.802H88.9551C88.9551 101.462 89.0133 101.125 89.1264 100.811C89.2396 100.496 89.4054 100.211 89.6145 99.9702C89.8236 99.7296 90.0719 99.5387 90.3451 99.4085C90.6183 99.2782 90.9113 99.2112 91.207 99.2112Z" fill="#2F2E41"/>
<path d="M96.3403 46.5634C98.3922 46.5634 100.056 44.6495 100.056 42.2885C100.056 39.9276 98.3922 38.0137 96.3403 38.0137C94.2884 38.0137 92.625 39.9276 92.625 42.2885C92.625 44.6495 94.2884 46.5634 96.3403 46.5634Z" fill="#FFB8B8"/>
<path d="M94.2729 93.9528H91.7387C91.5653 93.9526 91.3985 93.8766 91.2721 93.7401C91.1456 93.6036 91.0691 93.4168 91.058 93.2178C90.3028 79.4049 90.7445 69.4965 92.4481 62.036C92.4556 62.0034 92.4648 61.9713 92.4756 61.9399L92.6118 61.5495C92.662 61.4039 92.7491 61.279 92.8619 61.1911C92.9746 61.1033 93.1078 61.0566 93.2439 61.0571H98.4555C98.5537 61.057 98.6507 61.0814 98.74 61.1286C98.8292 61.1758 98.9085 61.2447 98.9723 61.3306L99.6801 62.2809C99.6939 62.2993 99.7069 62.3183 99.7193 62.3381C102.911 67.4598 105.772 77.4726 109.085 90.9309C109.134 91.1265 109.114 91.3363 109.031 91.5157C108.947 91.6951 108.806 91.8298 108.637 91.8911L105.914 92.894C105.758 92.9507 105.589 92.9409 105.439 92.8664C105.288 92.7919 105.166 92.6577 105.094 92.4881L98.026 75.6214C97.9766 75.5035 97.8955 75.4071 97.7947 75.3464C97.6939 75.2857 97.5789 75.2639 97.4665 75.2843C97.3542 75.3048 97.2505 75.3663 97.1709 75.4598C97.0913 75.5533 97.04 75.6738 97.0246 75.8034L94.9474 93.2755C94.9246 93.4629 94.8438 93.6346 94.7199 93.759C94.596 93.8834 94.4373 93.9522 94.2729 93.9528Z" fill="#2F2E41"/>
<path d="M99.3942 62.3505H99.3728L93.0421 62.12C92.8793 62.1148 92.7236 62.0425 92.6034 61.9161C92.4832 61.7898 92.4065 61.6179 92.3872 61.4318C91.5855 53.9579 93.7856 51.9556 94.7691 51.4413C94.8513 51.3986 94.9225 51.3323 94.9758 51.2486C95.0291 51.165 95.0628 51.0669 95.0735 50.9639L95.1586 50.1807C95.1731 50.0423 95.2196 49.9109 95.2931 49.8002C96.8352 47.5018 98.9407 46.7658 100.058 46.5319C100.235 46.4952 100.418 46.5411 100.566 46.6595C100.714 46.7779 100.815 46.9591 100.847 47.1633C100.849 47.1761 100.851 47.189 100.852 47.202L100.98 48.3268C100.993 48.4341 101.03 48.5356 101.088 48.6212C104.304 53.4584 100.721 60.6006 99.9702 61.9832C99.9089 62.0954 99.824 62.188 99.7233 62.2522C99.6225 62.3164 99.5093 62.3502 99.3942 62.3505Z" fill="#CCCCCC"/>
<path d="M97.4024 71.6921L92.6195 72.7526L92.4378 71.6672L96.0988 70.8553L91.8438 57.949L92.742 57.5571L97.4024 71.6921Z" fill="#53B774"/>
<path d="M103.836 42.7697C103.007 41.4269 102.013 40.2297 100.885 39.2155C99.9474 38.3729 98.9037 37.6529 97.7527 37.3086C96.6017 36.9644 95.3295 37.0228 94.2791 37.6653C93.2287 38.3077 92.1424 39.5842 92.1358 40.9529C92.1337 41.3927 92.2309 41.9876 92.6073 41.9116L92.7162 41.929L95.4401 41.296L96.6002 45.9285C96.6817 46.254 96.7911 46.6179 97.0596 46.7566C97.3125 46.8873 97.6041 46.7641 97.8613 46.6412C97.9033 46.621 98.2649 45.6871 98.2649 45.6871C98.2739 45.6579 98.2896 45.632 98.3103 45.6121C98.3309 45.5922 98.3558 45.5791 98.3824 45.5739C98.409 45.5688 98.4363 45.572 98.4614 45.5831C98.4866 45.5941 98.5087 45.6128 98.5255 45.637L98.7403 45.9459C98.7813 46.005 98.8379 46.0472 98.9015 46.0661C98.9652 46.0849 99.0324 46.0794 99.0931 46.0503L103.535 43.9166C103.74 43.8183 103.969 43.6904 104.028 43.4441C104.084 43.2072 103.959 42.9691 103.836 42.7697Z" fill="#2F2E41"/>
<path d="M98.8036 72.9737C98.998 72.8167 99.1602 72.6126 99.2787 72.3757C99.3973 72.1388 99.4692 71.8749 99.4894 71.6025C99.5097 71.3302 99.4779 71.0561 99.3961 70.7994C99.3143 70.5428 99.1847 70.3099 99.0162 70.1171L100.192 53.7788L96.6911 54.333L96.6245 70.2064C96.3614 70.5533 96.2181 70.9993 96.2217 71.4597C96.2254 71.9202 96.3758 72.363 96.6445 72.7043C96.9131 73.0456 97.2813 73.2616 97.6791 73.3112C98.0769 73.3609 98.4768 73.2409 98.8028 72.9739L98.8036 72.9737Z" fill="#FFB8B8"/>
<path d="M100.422 56.1314C100.356 56.1314 100.291 56.1206 100.228 56.0992L96.4696 54.8272C96.3838 54.7982 96.3039 54.75 96.2343 54.6854C96.1647 54.6209 96.1069 54.5412 96.0641 54.4509C96.0213 54.3606 95.9943 54.2614 95.9848 54.1592C95.9753 54.0569 95.9834 53.9535 96.0086 53.8548C96.0139 53.834 96.02 53.8134 96.0268 53.7932L97.4177 49.6588C97.4757 49.4841 97.5864 49.3393 97.7295 49.2507C97.8726 49.1621 98.0386 49.1357 98.1972 49.1763L100.68 49.7973C100.835 49.8361 100.974 49.9359 101.071 50.0796C101.169 50.2233 101.22 50.4018 101.216 50.5842L101.101 55.3692C101.096 55.5729 101.022 55.7664 100.895 55.9086C100.769 56.0509 100.599 56.1307 100.422 56.1312V56.1314Z" fill="#CCCCCC"/>
</svg>
